<?xml version="1.0" encoding="utf-8"?>
<!-- Generator: Adobe Illustrator 19.2.1, SVG Export Plug-In . SVG Version: 6.00 Build 0)  -->
<svg version="1.1" id="Слой_1" xmlns="http://www.w3.org/2000/svg" xmlns:xlink="http://www.w3.org/1999/xlink" x="0px" y="0px"
	 viewBox="0 0 48.6 45.1" style="enable-background:new 0 0 48.6 45.1;" xml:space="preserve">
<style type="text/css">
	.st0{fill-rule:evenodd;clip-rule:evenodd;fill:#C20B19;stroke:#FFFFFF;stroke-width:0.32;stroke-miterlimit:10;}
	.st1{fill-rule:evenodd;clip-rule:evenodd;fill:#7E1F1B;}
	.st2{fill-rule:evenodd;clip-rule:evenodd;fill:#E7AF18;}
	.st3{fill:#FFFFFF;}
	.st4{clip-path:url(#SVGID_4_);}
	.st5{fill-rule:evenodd;clip-rule:evenodd;fill:#DD941B;}
	.st6{fill-rule:evenodd;clip-rule:evenodd;fill:#006F8D;}
	.st7{fill-rule:evenodd;clip-rule:evenodd;fill:#008CC1;}
	.st8{fill-rule:evenodd;clip-rule:evenodd;fill:#009CD1;}
	.st9{fill-rule:evenodd;clip-rule:evenodd;fill:#00719C;}
	.st10{clip-path:url(#SVGID_4_);fill-rule:evenodd;clip-rule:evenodd;fill:#BDDEF8;}
	.st11{clip-path:url(#SVGID_12_);}
	.st12{fill-rule:evenodd;clip-rule:evenodd;fill:#FFFFFF;}
	.st13{fill-rule:evenodd;clip-rule:evenodd;fill:#ADA384;}
	.st14{fill-rule:evenodd;clip-rule:evenodd;fill:#289548;}
	.st15{fill-rule:evenodd;clip-rule:evenodd;fill:#8D7659;}
	.st16{fill-rule:evenodd;clip-rule:evenodd;fill:#253556;}
	.st17{fill-rule:evenodd;clip-rule:evenodd;fill:#C20B19;}
</style>
<g>
	<g>
		<polygon class="st0" points="30.4,5.6 37.7,4.4 45.1,3.1 43.5,6.9 45.1,9.9 30.4,12.4 		"/>
	</g>
	<polygon class="st0" points="16.5,18.8 14.5,16 16.2,12.1 8.4,13.8 0.6,15.5 0.6,22.3 11.6,27.4 11.6,20.6 10.6,20.1 	"/>
	<g>
		<defs>
			<polygon id="SVGID_1_" points="30.4,5.6 37.7,4.4 45.1,3.1 43.5,6.9 45.1,9.9 30.4,12.4 			"/>
		</defs>
		<clipPath id="SVGID_2_">
			<use xlink:href="#SVGID_1_"  style="overflow:visible;"/>
		</clipPath>
	</g>
	<g>
		<polygon class="st1" points="0.6,22.3 11.6,27.4 11.6,20.6 1.4,15.5 		"/>
	</g>
	<g>
		<g>
			<polygon class="st2" points="22.4,42 17.9,42.3 15.2,39.1 10.9,37.6 9.6,33.6 6.2,30.6 6.5,26.4 4.5,22.3 6.4,18.6 6.2,14 
				9.3,11.3 10.8,7 14.8,5.7 17.8,2.3 22,2.6 26.1,0.7 29.9,2.5 34.4,2.3 37.1,5.5 41.4,7 42.7,10.9 46.1,14 45.8,18.1 47.8,22.2 
				45.9,26 46.1,30.5 43,33.3 41.5,37.5 37.5,38.9 34.5,42.2 30.3,41.9 26.2,43.9 			"/>
			<path class="st3" d="M26.2,0.7l3.7,1.9l4.6-0.2l2.7,3.1L41.4,7l1.3,3.9l3.4,3.1l-0.3,4.1l2,4.1l-1.9,3.7l0.2,4.6l-3.1,2.7
				l-1.5,4.3l-3.9,1.3l-3.1,3.4l-4.1-0.3l-4.1,2l-3.7-1.9l-4.6,0.2L15.2,39l-4.3-1.5l-1.3-3.9l-3.4-3.1l0.3-4.1l-2-4.1l1.9-3.7
				L6.2,14l3.1-2.7L10.9,7l3.9-1.3l3.1-3.4L22,2.7L26.2,0.7 M26.2,0.6L26.2,0.6l-4.2,2l-4.1-0.3l-0.1,0l-0.1,0.1l-3,3.4l-3.9,1.3
				l-0.1,0l0,0.1l-1.5,4.3l-3.1,2.6L6.1,14l0,0.1l0.2,4.5l-1.9,3.6l0,0.1l0,0.1l2,4.1l-0.3,4.1l0,0.1l0.1,0.1l3.4,3l1.3,3.9l0,0.1
				l0.1,0l4.3,1.5l2.6,3.1l0.1,0.1l0.1,0l4.5-0.2l3.6,1.9l0.1,0l0.1,0l4.1-2l4.1,0.3l0.1,0l0.1-0.1l3-3.4l3.9-1.3l0.1,0l0-0.1
				l1.5-4.3l3.1-2.6l0.1-0.1l0-0.1L46,26l1.9-3.6l0-0.1l0-0.1l-2-4.1l0.3-4.1l0-0.1l-0.1-0.1l-3.4-3L41.5,7l0-0.1l-0.1,0l-4.3-1.5
				l-2.6-3.1l-0.1-0.1l-0.1,0l-4.5,0.2L26.2,0.6L26.2,0.6L26.2,0.6z"/>
		</g>
	</g>
	<g>
		<defs>
			<polygon id="SVGID_3_" points="26.2,0.7 29.8,2.6 34.4,2.4 37.1,5.5 41.4,7 42.7,11 46.1,14 45.7,18.1 47.7,22.3 45.8,25.9 
				46.1,30.5 42.9,33.2 41.4,37.5 37.5,38.8 34.4,42.2 30.3,41.9 26.2,43.8 22.5,41.9 17.9,42.2 15.2,39 10.9,37.5 9.6,33.6 
				6.2,30.5 6.6,26.4 4.6,22.3 6.5,18.6 6.2,14 9.4,11.4 10.9,7 14.8,5.8 17.9,2.4 22,2.7 			"/>
		</defs>
		<clipPath id="SVGID_4_">
			<use xlink:href="#SVGID_3_"  style="overflow:visible;"/>
		</clipPath>
		<g class="st4">
			<path class="st5" d="M26.1,22.3L26.1,22.3L26.1,22.3L26.1,22.3z M26.2,22.3L26.2,22.3L26.2,22.3L26.2,22.3L26.2,22.3z M26.2,22.3
				L26.2,22.3L26.2,22.3L26.2,22.3z M26.2,22.2L26.2,22.2L26.2,22.2L26.2,22.2L26.2,22.2z M26.2,22.1L26.2,22.1L26.2,22.1L26.2,22.1
				L26.2,22.1z M26.1,22.3L26.1,22.3L26.1,22.3L26.1,22.3L26.1,22.3z M26.1,22.3L26.1,22.3L26.1,22.3L26.1,22.3L26.1,22.3z
				 M26.2,22.4L26.2,22.4L26.2,22.4L26.2,22.4z M25.9,22.6l0.1-0.1l0.1,0l0,0.1L25.9,22.6z M26.2,22.3L26.2,22.3L26.2,22.3
				L26.2,22.3z M26.2,22.3L26.2,22.3L26.2,22.3L26.2,22.3L26.2,22.3L26.2,22.3z M26.3,22.2L26.3,22.2L26.3,22.2L26.3,22.2L26.3,22.2
				z M26.3,22.2L26.3,22.2L26.3,22.2L26.3,22.2L26.3,22.2z M26.2,22.3L26.2,22.3L26.2,22.3L26.2,22.3z M26.3,22L26.3,22L26.3,22
				l-0.1-0.1L26.3,22z M26.4,22.1L26.4,22.1L26.4,22.1L26.4,22.1L26.4,22.1z M26.3,22.4L26.3,22.4l0.1,0L26.3,22.4L26.3,22.4z
				 M26.2,22.4L26.2,22.4L26.2,22.4L26.2,22.4z M26.1,22.4L26.1,22.4L26.1,22.4L26.1,22.4L26.1,22.4L26.1,22.4L26.1,22.4L26.1,22.4
				L26.1,22.4L26.1,22.4L26.1,22.4L26.1,22.4L26.1,22.4L26.1,22.4L26.1,22.4L26.1,22.4L26.1,22.4z M26.2,22.4L26.2,22.4L26.2,22.4
				L26.2,22.4L26.2,22.4z M26.3,22.3L26.3,22.3L26.3,22.3L26.3,22.3L26.3,22.3L26.3,22.3z M26.3,22.3L26.3,22.3L26.3,22.3L26.3,22.3
				L26.3,22.3L26.3,22.3L26.3,22.3L26.3,22.3L26.3,22.3L26.3,22.3L26.3,22.3L26.3,22.3L26.3,22.3L26.3,22.3L26.3,22.3L26.3,22.3
				l0.1-0.1L26.3,22.3L26.3,22.3z M34.8,42.8l-8.6-20.4l0,0l0.1,0l11.3,16.7l4.3-1.1L26.3,22.5l0.2,0l16.7,10.9l3.6-2.6L27,22.6
				l19.2,3.5l2.3-3.8l-21.9,0.1l-0.2-0.1l19.7-4.2l0.6-4.4l-20.3,8.6l0-0.1l16.5-11.5l-1.1-4.3L26.4,22.1l0-0.1l11-16.7l-2.6-3.6
				l-8.3,20.2l-0.1-0.3l3.6-19.3L26.1,0l0,21L22,2.3l-4.4-0.6l8.6,19.9l0,0.3L14.9,5.4l-4.3,1.1L26.1,22l0,0.1l-16.8-11l-3.6,2.6
				l20.4,8.4l0,0.1l0,0l0,0l0,0l0,0l0,0l0,0l0,0l0,0l0,0l0,0l0,0l0,0L6.3,18.5L4,22.4l22-0.1L26,22.3l-19.6,4l-0.7,4.4l20.2-8.3
				l-0.1,0.2l-16.3,11l1.1,4.3l14.9-14.8L15,39.3l2.7,3.6l8.2-20.1l0.2-0.2l-3.6,19.7l3.8,2.3l-0.1-22l0.1-0.1l4.3,19.7L34.8,42.8z"
				/>
		</g>
		<g class="st4">
			<polygon class="st6" points="26.2,3.2 28.7,7.7 33.5,4.6 34.1,9.8 39.6,8.8 38.3,13.8 43.8,15 40.6,19.1 45.2,22.3 40.8,24.8 
				43.8,29.6 38.7,30.2 39.6,35.8 34.7,34.4 33.5,39.9 29.4,36.8 26.2,41.4 23.6,36.9 18.8,39.9 18.2,34.8 12.7,35.8 14,30.8 
				8.5,29.6 11.7,25.5 7.1,22.3 11.5,19.7 8.5,15 13.6,14.3 12.7,8.8 17.6,10.1 18.8,4.6 22.9,7.8 			"/>
		</g>
		<g class="st4">
			<polygon class="st7" points="26.2,4.4 28.6,8.6 33,5.7 33.6,10.5 38.8,9.6 37.5,14.3 42.7,15.4 39.7,19.3 44.1,22.3 39.9,24.7 
				42.7,29.1 37.9,29.7 38.8,34.9 34.1,33.7 33,38.8 29.2,35.9 26.2,40.2 23.7,36 19.3,38.8 18.7,34 13.5,34.9 14.8,30.3 9.6,29.1 
				12.6,25.3 8.2,22.3 12.4,19.9 9.6,15.4 14.4,14.8 13.5,9.6 18.2,10.9 19.3,5.7 23.1,8.7 			"/>
		</g>
		<g class="st4">
			<path class="st8" d="M26.2,5c9.5,0,17.2,7.7,17.2,17.2c0,9.5-7.7,17.2-17.2,17.2c-9.5,0-17.2-7.7-17.2-17.2
				C8.9,12.8,16.6,5,26.2,5"/>
		</g>
		<g class="st4">
			<defs>
				<path id="SVGID_5_" d="M26.2,5c9.5,0,17.2,7.7,17.2,17.2c0,9.5-7.7,17.2-17.2,17.2c-9.5,0-17.2-7.7-17.2-17.2
					C8.9,12.8,16.6,5,26.2,5"/>
			</defs>
			<clipPath id="SVGID_6_">
				<use xlink:href="#SVGID_5_"  style="overflow:visible;"/>
			</clipPath>
		</g>
		<g class="st4">
			<path class="st9" d="M29,8.1c7.8,1.6,12.9,9.2,11.3,17c-1.6,7.8-9.2,12.9-17,11.3c-7.8-1.6-12.9-9.2-11.3-17
				C13.6,11.6,21.2,6.6,29,8.1"/>
		</g>
		<g class="st4">
			<defs>
				<path id="SVGID_7_" d="M28.8,8.9c7.4,1.5,12.2,8.7,10.7,16c-1.5,7.4-8.7,12.2-16,10.7c-7.4-1.5-12.2-8.7-10.7-16
					C14.2,12.2,21.4,7.4,28.8,8.9"/>
			</defs>
			<clipPath id="SVGID_8_">
				<use xlink:href="#SVGID_7_"  style="overflow:visible;"/>
			</clipPath>
		</g>
		<g class="st4">
			<path class="st8" d="M14.1,22.6c-0.2-6.7,5.1-12.2,11.8-12.3C32.5,10.1,38,15.3,38.2,22c0.2,6.7-5.1,12.2-11.8,12.3
				C19.8,34.5,14.3,29.2,14.1,22.6"/>
		</g>
		<g class="st4">
			<defs>
				<path id="SVGID_9_" d="M14.8,22.5c-0.1-6.3,4.8-11.5,11.1-11.6c6.3-0.1,11.5,4.8,11.6,11.1c0.1,6.3-4.8,11.5-11.1,11.6
					C20.1,33.8,14.9,28.8,14.8,22.5"/>
			</defs>
			<clipPath id="SVGID_10_">
				<use xlink:href="#SVGID_9_"  style="overflow:visible;"/>
			</clipPath>
		</g>
		<path class="st10" d="M34.8,14.7c-1.5-0.2-2.5-0.2-2.6-0.9c-0.1-0.7-0.3-1.3-2.5-2.3c-2.2-1-4.1-0.8-4.1-2.4c0-0.9-1-1.3-1.2-1.4
			c-1.1-0.4-3.2,2.1-5.4,1c-4-2.1-21.1-3-24.2,1.4c-9.5,13.4-7.6,32.2,15.9,30.5c1.8-4.8,4.3-13.2,8-16.7c4-3.7,11.4-2.8,14.6-4.2
			c3.2-1.4,3.2-3.8,3.2-4.3C36.5,14.9,36.3,14.9,34.8,14.7z M28.9,13c0,0-0.4,0.4-0.4,0.5c0,0.2,0.3,0.5-0.1,0.5
			c-0.4,0-1.5-0.5-1.4-0.6C27.1,13.3,29,12.6,28.9,13z"/>
		<g class="st4">
			<defs>
				<path id="SVGID_11_" d="M28.9,13c0.1-0.5-1.8,0.2-1.9,0.4c-0.2,0.2,1,0.6,1.4,0.6s0.2-0.3,0.1-0.5C28.4,13.4,28.9,13,28.9,13
					 M10.7,40.5C-12.8,42.2-14.7,23.5-5.2,10c3.1-4.4,20.1-3.4,24.2-1.4c2.3,1.2,4.3-1.3,5.4-1c0.3,0.1,1.2,0.5,1.2,1.4
					c0,1.6,1.9,1.4,4.1,2.4c2.2,1,2.4,1.6,2.5,2.3c0.1,0.7,1.1,0.7,2.6,0.9c1.5,0.2,1.7,0.2,1.7,0.7c0,0.5,0,3-3.2,4.3
					c-3.2,1.4-10.6,0.4-14.6,4.2C15,27.3,12.5,35.7,10.7,40.5z"/>
			</defs>
			<clipPath id="SVGID_12_">
				<use xlink:href="#SVGID_11_"  style="overflow:visible;"/>
			</clipPath>
			<g class="st11">
				<path class="st12" d="M6.2,33.6c0,0,1.1-4.1,1.8-4.8c0.8-0.7,0.6,0.2,0.6,0.6c0,0.5,2.6-3.7,4.3-4.9c1.7-1.2-1,2.2-2.3,5.4
					c-1.4,3.2-1.7,6.5-1.7,6.5L6.2,33.6z M3.6,34.7c0.2-0.7,1.5-5.4,2.8-7.5c1.3-2.1,0.7-0.5,0.8,0.6c0.1,1.1,0.3-0.3,1.1-1.9
					c0.7-1.6,2.1-4.2,4.4-6c2.3-1.9,1.1-0.2,0.8,0.6c-0.3,0.8,1.5-1.5,2.3-2c0.9-0.5-0.1,0.9-0.1,1.1c0,0.2,2.2-1.5,7.8-2.1
					c5.6-0.6,6.9,0.4,8.7,0.4c1.7,0,2.4-0.2,2.8-0.7c0.4-0.5,1-0.2,0.9,0.5c-0.1,0.7,2.1,0,1.6-2.3c-0.5-2.2-3.6-2.1-5.7-3
					c-2.1-0.9-5.3-1.1-6.4-0.8c-1.1,0.3-1.5,0.1-1-0.2c0.5-0.3,0.1-0.4-0.3-0.5c-0.4-0.1,0.3-0.8,0.2-1.7c-0.2-0.9-1.3-0.3-1.7,0
					c-0.4,0.3-2.4,0.8-3.5,0.2c-1.1-0.6-3.9-0.7-3.6-0.4c0.3,0.3-0.1,0.1-0.8,0c-0.7-0.1-0.9-0.1-0.8,0.1c0.1,0.2,0.4,0.2-0.5,0.2
					c-1,0-3.5-0.4-6.4,0.8c-2.9,1.2-5.3,4.4-6,7.8C0.3,21.2,0,25,0.1,26c0.2,1,2.5-2,5.2-5.3c2.7-3.4,7.2-5,6.3-4.1
					c-0.8,0.9-2.4,2.2-1.7,1.9c0.8-0.3-1.3,1.5-3.8,5.4c-2.5,4-3.2,5.9-3.2,5.9L3.6,34.7z"/>
			</g>
		</g>
	</g>
	<g>
		<polygon class="st13" points="38.7,22.6 39.8,23.7 39.8,27.6 38.7,26.5 		"/>
	</g>
	<g>
		<polygon class="st13" points="44.3,25.6 45.3,26.7 45.3,32.8 44.3,31.7 		"/>
	</g>
	<g>
		<polygon class="st14" points="19.2,23.8 20.6,24.2 19,21.6 19.9,21.7 18.1,18.7 16.3,21.7 17.2,21.6 15.6,24.2 17,23.8 15.5,27 
			17.4,26.1 17.4,27.5 18.1,27.5 18.8,27.5 18.8,26.1 20.7,27 		"/>
	</g>
	<g>
		<polygon class="st14" points="24.4,21.8 26.6,22.4 24.1,18.2 25.5,18.4 22.7,13.7 19.8,18.4 21.3,18.2 18.7,22.4 21,21.8 
			18.6,26.8 21.6,25.5 21.6,27.7 22.7,27.7 23.8,27.7 23.8,25.5 26.8,26.8 		"/>
	</g>
	<g>
		<polygon class="st14" points="16.1,25.4 16.9,25.6 16,24.1 16.5,24.1 15.5,22.4 14.5,24.1 15,24.1 14.1,25.6 14.9,25.4 14,27.2 
			15.1,26.7 15.1,27.5 15.5,27.5 15.9,27.5 15.9,26.7 17,27.2 		"/>
	</g>
	<g>
		<polygon class="st15" points="44.3,31.7 45.3,32.8 14.6,38 13.5,36.8 		"/>
	</g>
	<g>
		<polygon class="st16" points="13.5,26.8 38.7,22.6 38.7,26.5 44.3,25.6 44.3,31.7 13.5,36.8 13.5,32.9 13.5,30.7 		"/>
	</g>
	<g>
		<path class="st12" d="M16.6,29.9c0,0.2-0.2,0.4-0.4,0.4l-0.1,0v-0.7l0.1,0C16.4,29.5,16.6,29.6,16.6,29.9 M18.6,31.1l-1.3,0.2
			L17,33l-0.4-1.5l-1.3,0.2l-0.1,2.9l0.8-0.1l0.1-1.7l0.5,1.6l0.8-0.1l0.5-1.8l0.1,1.7l0.9-0.2L18.6,31.1z M42,29.1l-0.5,0.1
			l0.2-0.8L42,29.1z M42.3,30.1l1-0.2l-0.9-2.7l-1.1,0.2l-0.9,3.1l0.9-0.1l0.1-0.4l0.8-0.1L42.3,30.1z M39.3,30.6l0.1,0.7l0.7-0.1
			v-1.5l-0.4,0.1v-2.2l-1,0.2v2.1L37.9,30v-2.1l-1,0.2V31L39.3,30.6z M36.6,31v-2.9l-1.1,0.2l-0.8,1.6v-1.4l-1,0.2v2.9l1.1-0.2
			l0.8-1.6v1.4L36.6,31z M33.5,32.2v-1.4l-0.4,0.1v-2.2l-2.2,0.4c0,1.5-0.1,1.7-0.4,2.2l-0.3,0v1.4l0.7-0.1L31,32l1.7-0.3l0.1,0.6
			L33.5,32.2z M31.4,31.2c0.3-0.4,0.3-0.9,0.3-1.5l0.4-0.1V31L31.4,31.2z M29.7,30.4l-0.9,0.2v-0.4l1-0.2v-0.7l-2,0.3v2.9l2-0.3
			v-0.7l-1.1,0.2v-0.5l0.9-0.2V30.4z M26.4,30.7c0,0.2-0.1,0.3-0.3,0.3L26,31v-0.6l0.2,0C26.3,30.4,26.4,30.5,26.4,30.7z M26.5,31.8
			c0,0.2-0.1,0.3-0.4,0.4l-0.2,0v-0.7l0.2,0C26.4,31.5,26.5,31.6,26.5,31.8z M25.1,30.1V33l1.4-0.2c0.5-0.1,1-0.4,1-1
			c0-0.3-0.3-0.6-0.7-0.6c0.4-0.1,0.6-0.5,0.6-0.8c0-0.5-0.5-0.7-1-0.6L25.1,30.1z M24.8,33.6v-1.4l-0.4,0.1v-2.2l-2.2,0.4
			c0,1.5-0.1,1.7-0.4,2.2l-0.3,0v1.4l0.7-0.1l0.1-0.6l1.7-0.3l0.1,0.6L24.8,33.6z M22.7,32.6c0.3-0.4,0.3-0.9,0.3-1.5l0.4-0.1v1.4
			L22.7,32.6z M21.1,31.8L20.1,32v-0.4l1-0.2v-0.7l-2,0.3V34l2-0.3V33l-1.1,0.2v-0.5l0.9-0.2V31.8z M35.5,25.8
			c0-0.2,0.2-0.4,0.3-0.4l0.2,0V26l-0.2,0C35.7,26.1,35.5,26,35.5,25.8z M36.1,27.5l1-0.2v-2.9l-1.4,0.2c-0.5,0.1-1,0.6-1,1.2
			c0,0.4,0.2,0.7,0.5,0.8l-0.7,1.1l1-0.2l0.5-0.9l0.1,0V27.5z M32.9,27l-0.5,0.1l0.2-0.8L32.9,27z M33.2,28l1-0.2l-0.9-2.7l-1.1,0.2
			l-0.9,3.1l0.9-0.1l0.1-0.4l0.8-0.1L33.2,28z M26.9,26.2v2.9l4-0.7v-2.9l-1,0.2v2.1l-0.6,0.1v-2.1l-1,0.2V28l-0.6,0.1V26L26.9,26.2
			z M25.6,28.3c0,0.2-0.2,0.4-0.3,0.4l-0.2,0V28l0.2,0C25.4,28,25.6,28.1,25.6,28.3z M24.1,26.6v2.9l1.4-0.2
			c0.6-0.1,1.1-0.6,1.1-1.2c0-0.7-0.5-0.9-1.1-0.8l-0.4,0.1v-0.9L24.1,26.6z M22.8,29.7l1-0.2v-2.9l-2.4,0.4
			c-0.1,1.8-0.1,2.2-0.8,2.4l0.2,0.7c1-0.3,1.3-0.7,1.4-2.4l0.5-0.1V29.7z M17.7,29.1c0,0.9,0.5,1.4,1.5,1.3c1-0.2,1.5-0.9,1.5-1.8
			c0-0.9-0.5-1.4-1.5-1.3C18.2,27.5,17.7,28.3,17.7,29.1z M18.7,29c0-0.6,0.2-0.9,0.5-0.9c0.3-0.1,0.5,0.2,0.5,0.8
			c0,0.6-0.2,0.9-0.5,0.9C18.9,29.8,18.7,29.6,18.7,29z M17.5,29.7c0-0.7-0.6-0.8-1.1-0.7L16.1,29v-0.4l1.2-0.2v-0.7l-2.1,0.4V31
			l1.3-0.2C17,30.7,17.5,30.3,17.5,29.7z"/>
	</g>
	<g>
		<polygon class="st12" points="28.9,7.6 29.1,8 29.5,7.9 29.3,8.2 29.6,8.5 29.2,8.6 29.2,9 28.9,8.7 28.6,9 28.6,8.6 28.2,8.5 
			28.5,8.2 28.3,7.9 28.7,8 		"/>
	</g>
	<g>
		<polygon class="st12" points="28.6,22.1 28.8,22.5 29.2,22.4 29,22.8 29.4,23 28.9,23.1 28.9,23.6 28.6,23.3 28.2,23.6 28.3,23.1 
			27.8,23 28.2,22.8 28,22.4 28.4,22.5 		"/>
	</g>
	<g>
		<polygon class="st12" points="37.4,19.2 37.8,20.1 38.7,19.8 38.2,20.6 39,21.1 38,21.3 38.1,22.2 37.4,21.6 36.7,22.2 36.8,21.3 
			35.9,21.1 36.6,20.6 36.2,19.8 37.1,20.1 		"/>
	</g>
	<g>
		<polygon class="st17" points="0.6,15.5 8.4,13.8 16.2,12.1 14.5,16 16.5,18.8 0.6,22.3 		"/>
	</g>
	<g>
		<defs>
			<polygon id="SVGID_13_" points="1.4,15.5 8.8,14.2 16.2,13 14.6,16.7 16.2,19.8 1.4,22.3 			"/>
		</defs>
		<clipPath id="SVGID_14_">
			<use xlink:href="#SVGID_13_"  style="overflow:visible;"/>
		</clipPath>
	</g>
	<g>
		<g>
			<g>
				<path class="st3" d="M6.6,16.4c0-0.1,0-0.2-0.1-0.2c0-0.1-0.1-0.1-0.2-0.1l-0.1,0c-0.1,0-0.2,0.1-0.2,0.1C6,16.4,6,16.5,6,16.5
					l-0.1,2.6c0,0.1,0,0.2,0.1,0.2c0,0.1,0.1,0.1,0.2,0.1l0.1,0c0.1,0,0.2-0.1,0.2-0.1c0-0.1,0.1-0.2,0.1-0.2L6.6,16.4z M6.7,19
					c0,0.2,0,0.3-0.1,0.4c-0.1,0.1-0.2,0.2-0.3,0.2l-0.1,0c-0.1,0-0.3,0-0.3-0.1c-0.1-0.1-0.1-0.2-0.1-0.4l0.1-2.6
					c0-0.2,0-0.3,0.1-0.4C6,16.1,6.1,16,6.3,16l0.1,0c0.1,0,0.3,0,0.3,0.1c0.1,0.1,0.1,0.2,0.1,0.4L6.7,19z M5.6,16.3l-0.5,0.1
					L5,19.8l-0.1,0l0.1-3.4l-0.5,0.1l0-0.2l1.1-0.2L5.6,16.3z M4.2,16.5l0,0.2l-0.7,0.1l0,1L4,17.7l0,0.2l-0.5,0.1l0,2.1l0.7-0.1
					l0,0.2l-0.8,0.2l0.1-3.5L4.2,16.5z M2.9,16.8l-0.1,3.5l-0.1,0l0.1-3.4L2.3,17l-0.2,3c0,0.3-0.1,0.4-0.3,0.5l-0.1,0l0-0.2l0.1,0
					c0.1,0,0.1,0,0.2-0.1c0,0,0.1-0.1,0.1-0.2l0.2-3.2L2.9,16.8z"/>
			</g>
		</g>
		<g>
			<g>
				<polygon class="st12" points="7.5,15 7.8,14.9 7.6,20.1 7.4,20.1 				"/>
			</g>
		</g>
	</g>
	<g>
		<polygon class="st12" points="38.8,14.1 39,14.5 39.4,14.4 39.2,14.8 39.5,15 39.1,15.1 39.1,15.5 38.8,15.3 38.5,15.5 38.5,15.1 
			38.1,15 38.4,14.8 38.2,14.4 38.6,14.5 		"/>
	</g>
</g>
<g>
	<g>
		<path class="st3" d="M12.5,14.5l-0.1,3.7L12,18.3l0.1-3.3l-0.5,0.1l0-0.4L12.5,14.5z M10.8,18.2c0,0,0.1,0,0.1-0.1
			c0,0,0-0.1,0-0.1l0-2.6c0,0,0-0.1,0-0.1c0,0-0.1,0-0.1,0l-0.2,0.1c-0.1,0-0.1,0-0.1,0.1c0,0,0,0.1,0,0.1l0,2.6c0,0,0,0.1,0,0.1
			c0,0,0.1,0,0.1,0L10.8,18.2z M10.9,14.8c0.1,0,0.2,0,0.2,0c0.1,0,0.1,0,0.2,0.1c0,0,0.1,0.1,0.1,0.2c0,0.1,0,0.1,0,0.2l0,2.6
			c0,0.1,0,0.2,0,0.2c0,0.1,0,0.1-0.1,0.2c0,0.1-0.1,0.1-0.2,0.2c-0.1,0-0.1,0.1-0.2,0.1l-0.2,0.1c-0.1,0-0.2,0-0.2,0
			c-0.1,0-0.1,0-0.2-0.1c0,0-0.1-0.1-0.1-0.2c0-0.1,0-0.1,0-0.2l0-2.6c0-0.1,0-0.2,0-0.2c0-0.1,0-0.1,0.1-0.2c0-0.1,0.1-0.1,0.2-0.2
			c0.1,0,0.1-0.1,0.2-0.1L10.9,14.8z M9.4,17.3l0.4-0.1l0,1.6l-1.2,0.3l0-1.7L9.4,16l0-0.2c0,0,0-0.1,0-0.1c0,0-0.1,0-0.1,0L9,15.6
			c-0.1,0-0.1,0-0.1,0.1c0,0,0,0.1,0,0.1l0,0.3l-0.4,0.1l0-0.3c0-0.1,0-0.2,0-0.2c0-0.1,0-0.1,0.1-0.2c0-0.1,0.1-0.1,0.2-0.2
			c0.1,0,0.1-0.1,0.2-0.1l0.2-0.1c0.1,0,0.2,0,0.2,0c0.1,0,0.1,0,0.2,0.1c0,0,0.1,0.1,0.1,0.2c0,0.1,0,0.1,0,0.2l0,0.4l-0.9,1.4
			l0,1.1l0.5-0.1L9.4,17.3z"/>
	</g>
	<g>
		<polygon class="st3" points="13.9,14.2 13.4,18 13.1,18.1 13.5,14.7 12.7,14.9 12.7,14.5 		"/>
	</g>
</g>
</svg>
