<?xml version="1.0" encoding="utf-8"?>
<!-- Generator: Adobe Illustrator 19.2.1, SVG Export Plug-In . SVG Version: 6.00 Build 0)  -->
<svg version="1.1" id="Слой_1" xmlns="http://www.w3.org/2000/svg" xmlns:xlink="http://www.w3.org/1999/xlink" x="0px" y="0px"
	 viewBox="0 0 162.5 48.4" style="enable-background:new 0 0 162.5 48.4;" xml:space="preserve">
<style type="text/css">
	.st0{fill:#182F5B;}
</style>
<path class="st0" d="M21.1,21.2c0.1-0.5-1.8,0.3-2,0.5s1,0.7,1.4,0.7s0.2-0.4,0.1-0.6C20.7,21.6,21.1,21.2,21.1,21.2 M18.6,3.5
	l19.1,19.1c1.5,1.5,1.5,4.1,0,5.6L18.6,47.3c-1.5,1.5-4.1,1.5-5.6,0c-5.8-5.8-9.2-8.4-2.4-14.8c4.1-3.9,11.8-2.9,15.1-4.3
	s3.3-4,3.3-4.5s-0.2-0.5-1.7-0.7c-1.6-0.2-2.6-0.2-2.7-0.9c-0.1-0.7-0.3-1.3-2.5-2.3c-2.3-1-3.6-1.1-3.6-2.1s-0.8-1.9-2.2-2.3
	c-1.5-0.3-2.5-0.1-3.1,1c-0.6,1.1-0.8,1.4-2.3,0.7c-1.5-0.8-3.8-1.5-6.3-1c-2.1,0.4-2.8-0.6-2.1-1.6c0-0.5,0.3-0.8,0.5-1.1l10-9.9
	C14.5,1.9,17.1,1.9,18.6,3.5z"/>
<path class="st0" d="M54.8,23.2c0-2.7-2.7-3.6-4.7-3.6h-1.3V18h5v-2.6h-9v11.4h5.6C52.5,26.8,54.8,25.6,54.8,23.2 M59.6,21.1
	c0-2.3,0.7-3.3,2.1-3.3c1.4,0,2.1,1.1,2.1,3.3c0,2.3-0.7,3.3-2.1,3.3C60.3,24.5,59.6,23.4,59.6,21.1z M55.6,21.1
	c0,3.4,2.1,5.9,6.1,5.9s6.1-2.5,6.1-5.9s-2.1-5.9-6.1-5.9C57.6,15.2,55.6,17.7,55.6,21.1z M77,26.8h4V15.4h-9.9
	c-0.3,7.1-0.5,8.5-3.2,9l0.9,2.8c4.2-0.3,5.6-1.8,5.9-8.5H77V26.8z M82.4,15.4v11.4h5.7c2.3,0,4.5-1.5,4.5-3.8
	c0-2.8-2.1-3.8-4.5-3.8h-1.7v-3.7h-4V15.4z M88.6,23c0,0.9-0.7,1.4-1.3,1.4h-0.8v-2.8h0.8C87.9,21.6,88.6,22.1,88.6,23z M93.8,15.4
	v11.4h16.9V15.4h-4v8.1h-2.4v-8.1h-4v8.1h-2.4v-8.1H93.8z M120.3,26.8h4l-3.9-11.4H116l-3.9,11.4h3.7l0.5-1.6h3.5L120.3,26.8z
	 M119,22.6h-1.9l1-3L119,22.6z M132.4,26.8h4V15.4h-6c-2,0-4.3,1.6-4.3,4.1c0,1.6,0.8,2.8,2.1,3.3l-2.7,4h4.4l2-3.4h0.6v3.4H132.4z
	 M130.1,19.6c0-0.9,0.7-1.4,1.3-1.4h1V21h-1C130.7,21,130.1,20.5,130.1,19.6z M69.6,33.9h-4v-1.7h4.2v-2.6h-8.2V41H70v-2.6h-4.4
	v-1.9h4V33.9z M76.2,38c1.2-1.4,1.3-3.3,1.4-5.5h1.8V38H76.2z M85.1,43.4V38h-1.6v-8.5h-9.2c-0.2,5.7-0.4,6.8-1.9,8.5h-1.1v5.4H74
	l0.6-2.4h7.1l0.6,2.4H85.1z M86.3,29.6V41h6c2.2,0,4.1-0.9,4.1-3.2c0-1.3-1.1-2.5-3-2.6c1.6-0.2,2.7-1.6,2.7-2.6
	c0-2.1-2-2.9-4.2-2.9h-5.6V29.6z M92.5,37.5c0,0.9-0.5,1.3-1.5,1.3h-0.7v-2.6H91C92,36.2,92.5,36.5,92.5,37.5z M92.1,32.8
	c0,0.8-0.4,1.1-1.1,1.1h-0.7v-2.2H91C91.7,31.8,92.1,32.1,92.1,32.8z M105.8,33.9h-4v-1.7h4.2v-2.6h-8.2V41h8.4v-2.6h-4.4v-1.9h4
	V33.9z M112.7,38c1.2-1.4,1.3-3.3,1.4-5.5h1.8V38H112.7z M121.5,43.4V38h-1.6v-8.5h-9.2c-0.2,5.7-0.4,6.8-1.9,8.5h-1.1v5.4h2.8
	l0.6-2.4h7.1l0.6,2.4H121.5z M134.5,41V29.6H130l-3.3,5.6v-5.6h-4V41h4.5l3.3-5.6V41H134.5z M146,41l0.6,2.9h2.8V38h-1.6v-8.5h-4
	v8.1h-3.4v-8.1h-4V41H146z M158.5,41h4l-3.9-11.4h-4.4l-4,11.4h3.7l0.5-1.6h3.5L158.5,41z M157.1,36.8h-1.9l1-3L157.1,36.8z
	 M59.4,29.6h-5.2l-1.7,6.2l-1.7-6.2h-5.3L44.9,41h3.5l0.3-6.7l1.9,6.7h3.2l2-6.8L56,41h4L59.4,29.6z M50.8,23.2
	c0,0.9-0.7,1.4-1.5,1.4h-0.5v-2.8h0.5C50.2,21.8,50.8,22.3,50.8,23.2z"/>
<g>
	<polygon class="st0" points="44.9,12.1 45.6,12.1 45.6,9.1 46.8,9.1 47,8.4 44.9,8.4 	"/>
	<polygon class="st0" points="56.2,12.1 57,12.1 57,9.1 58.4,9.1 58.4,12.1 59.2,12.1 59.2,8.4 56.2,8.4 	"/>
	<polygon class="st0" points="60.8,12.1 61.6,12.1 61.6,9.1 63.1,9.1 63.1,12.1 63.8,12.1 63.8,8.4 60.8,8.4 	"/>
	<path class="st0" d="M108.9,8.3c0.7,0,1.1-0.4,1.1-1h-0.6c0,0.2-0.1,0.5-0.4,0.5s-0.4-0.2-0.4-0.5H108
		C107.8,7.9,108.2,8.3,108.9,8.3z"/>
	<path class="st0" d="M53.4,10.3L53.4,10.3l-0.9-1.8h-0.8L53,11c-0.2,0.3-0.3,0.5-0.6,0.5c-0.1,0-0.2,0-0.2,0v0.6c0.1,0,0.2,0,0.3,0
		c0.5,0,0.9-0.2,1.2-1L55,8.4h-0.8L53.4,10.3z"/>
	<path class="st0" d="M50,8.6c-0.2-0.1-0.5-0.2-0.8-0.2h-1v3.7H49v-1.2h0.1c0.3,0,0.6,0,0.8-0.1c0.5-0.2,0.7-0.7,0.7-1.1
		C50.6,9.1,50.4,8.8,50,8.6z M49.5,10.2c-0.1,0-0.2,0.1-0.4,0.1H49V9h0.2c0.2,0,0.3,0,0.4,0.1c0.2,0.1,0.3,0.3,0.3,0.5
		C49.8,9.9,49.7,10.1,49.5,10.2z"/>
	<path class="st0" d="M94.2,8.4l-1.4,3.7h0.8l0.3-0.9h1.2l0.4,0.9h0.8l-1.5-3.7H94.2z M94.1,10.6l0.2-0.6c0.1-0.3,0.2-0.4,0.2-0.5
		l0,0c0,0.1,0.1,0.3,0.2,0.5l0.2,0.6H94.1z"/>
	<path class="st0" d="M66.4,8.4L65,12.1h0.8l0.3-0.9h1.2l0.4,0.9h0.8L67,8.4C67,8.4,66.4,8.4,66.4,8.4z M66.4,10.6l0.2-0.6
		c0.1-0.3,0.2-0.4,0.2-0.5l0,0c0,0.1,0.1,0.3,0.2,0.5l0.2,0.6H66.4z"/>
	<path class="st0" d="M103.4,10.3c-0.1,0.2-0.3,0.3-0.4,0.5l0,0c0-0.2,0-0.4,0-0.6V8.4h-0.8v3.7h0.7l1.5-2c0.1-0.2,0.3-0.3,0.4-0.5
		l0,0c0,0.1,0,0.4,0,0.5v2h0.8V8.4h-0.8L103.4,10.3z"/>
	<polygon class="st0" points="88.6,12.1 89.3,12.1 89.3,9.1 90.8,9.1 90.8,12.1 91.6,12.1 91.6,8.4 88.6,8.4 	"/>
	<path class="st0" d="M109.8,8.4l-1.5,1.9c-0.1,0.2-0.3,0.3-0.4,0.5l0,0c0-0.2,0-0.4,0-0.6V8.4h-0.8v3.7h0.7l1.5-2
		c0.1-0.2,0.3-0.3,0.4-0.5l0,0c0,0.1,0,0.4,0,0.5v2h0.8V8.4H109.8z"/>
	<polygon class="st0" points="99.9,9.9 98.3,9.9 98.3,8.4 97.5,8.4 97.5,12.1 98.3,12.1 98.3,10.5 99.9,10.5 99.9,12.1 100.7,12.1 
		100.7,8.4 99.9,8.4 	"/>
	<path class="st0" d="M75.7,10.2L75.7,10.2c0.3-0.2,0.4-0.7,0.6-1c0.1-0.1,0.1-0.1,0.3-0.1c0.1,0,0.1,0,0.2,0V8.4
		c-0.1,0-0.3-0.1-0.4-0.1c-0.3,0-0.5,0.1-0.7,0.4c-0.3,0.5-0.3,1.2-0.8,1.2h-0.3V8.4h-0.8v3.7h0.8v-1.5h0.5c0.1,0,0.2,0.1,0.3,0.4
		l0.5,1.2h0.9L76,10.7C76,10.4,75.9,10.3,75.7,10.2z"/>
	<path class="st0" d="M85.4,9.7c-0.1,0.2-0.2,0.3-0.3,0.5l0,0c-0.1-0.1-0.2-0.3-0.3-0.5l-0.9-1.3h-0.7v3.7H84v-2c0-0.1,0-0.3,0-0.4
		l0,0c0.1,0.1,0.2,0.3,0.2,0.4l0.7,1h0.3l0.7-1c0.1-0.1,0.2-0.3,0.2-0.4l0,0c0,0.1,0,0.3,0,0.4v2H87V8.4h-0.7L85.4,9.7z"/>
	<path class="st0" d="M79.9,8.4c-1.1,0-1.9,0.8-1.9,1.9s0.8,1.9,1.9,1.9s1.9-0.8,1.9-1.9S81,8.4,79.9,8.4z M79.9,11.5
		c-0.6,0-1.1-0.4-1.1-1.2s0.4-1.2,1.1-1.2c0.6,0,1.1,0.4,1.1,1.2S80.5,11.5,79.9,11.5z"/>
</g>
</svg>
