<?xml version="1.0" encoding="utf-8"?>
<!-- Generator: Adobe Illustrator 19.2.1, SVG Export Plug-In . SVG Version: 6.00 Build 0)  -->
<svg version="1.1" id="Слой_1" xmlns="http://www.w3.org/2000/svg" xmlns:xlink="http://www.w3.org/1999/xlink" x="0px" y="0px"
	 viewBox="0 0 50 50" style="enable-background:new 0 0 50 50;" xml:space="preserve">
<style type="text/css">
	.st0{clip-path:url(#SVGID_2_);fill:#FFFFFF;}
	.st1{clip-path:url(#SVGID_4_);}
	.st2{clip-path:url(#SVGID_9_);}
	.st3{clip-path:url(#SVGID_10_);}
	.st4{clip-path:url(#SVGID_17_);}
	.st5{clip-path:url(#SVGID_18_);fill:#FFFFFF;}
	.st6{clip-path:url(#SVGID_21_);}
	.st7{clip-path:url(#SVGID_22_);}
	.st8{clip-path:url(#SVGID_26_);}
	.st9{clip-path:url(#SVGID_31_);}
	.st10{clip-path:url(#SVGID_32_);}
	.st11{clip-path:url(#SVGID_33_);}
	.st12{clip-path:url(#SVGID_38_);}
	.st13{clip-path:url(#SVGID_39_);fill:#FFFFFF;}
	.st14{clip-path:url(#SVGID_42_);}
	.st15{clip-path:url(#SVGID_43_);}
	.st16{clip-path:url(#SVGID_46_);}
	.st17{clip-path:url(#SVGID_51_);}
	.st18{clip-path:url(#SVGID_52_);}
	.st19{clip-path:url(#SVGID_53_);}
	.st20{fill:#FFFFFF;}
	.st21{fill:#C12238;}
	.st22{clip-path:url(#SVGID_55_);}
	.st23{fill:#911D38;}
	.st24{clip-path:url(#SVGID_57_);}
	.st25{clip-path:url(#SVGID_59_);}
	.st26{fill:#6391A7;}
	.st27{clip-path:url(#SVGID_61_);}
	.st28{clip-path:url(#SVGID_63_);}
	.st29{fill:#E7D733;}
	.st30{clip-path:url(#SVGID_67_);}
	.st31{fill:#192C56;}
	.st32{clip-path:url(#SVGID_71_);}
	.st33{fill:#C4E7EF;}
	.st34{clip-path:url(#SVGID_73_);}
	.st35{fill:#A5D8E4;}
	.st36{clip-path:url(#SVGID_75_);}
	.st37{fill:#2C6E54;}
	.st38{clip-path:url(#SVGID_77_);}
	.st39{clip-path:url(#SVGID_79_);}
	.st40{fill:#317F62;}
	.st41{clip-path:url(#SVGID_81_);}
	.st42{clip-path:url(#SVGID_83_);}
	.st43{clip-path:url(#SVGID_85_);}
	.st44{clip-path:url(#SVGID_87_);}
	.st45{clip-path:url(#SVGID_89_);}
	.st46{clip-path:url(#SVGID_91_);}
	.st47{fill:#379271;}
	.st48{clip-path:url(#SVGID_93_);}
	.st49{clip-path:url(#SVGID_95_);}
	.st50{opacity:0.5;clip-path:url(#SVGID_97_);}
	.st51{fill:#7FAEB6;}
	.st52{opacity:0.36;}
	.st53{fill:#6A5C54;}
	.st54{fill:#C21846;}
	.st55{clip-path:url(#SVGID_99_);}
	.st56{clip-path:url(#SVGID_101_);}
	.st57{fill:#A4B0BA;}
	.st58{clip-path:url(#SVGID_103_);}
	.st59{fill:#EBEBEB;}
	.st60{fill:#213149;}
	.st61{clip-path:url(#SVGID_105_);}
	.st62{fill:#E78F8B;}
</style>
<g>
	<g>
		<g>
			<defs>
				
					<rect id="SVGID_1_" x="17.4" y="41.5" transform="matrix(0.9998 -2.221235e-02 2.221235e-02 0.9998 -0.9376 0.4929)" width="8.6" height="1.9"/>
			</defs>
			<clipPath id="SVGID_2_">
				<use xlink:href="#SVGID_1_"  style="overflow:visible;"/>
			</clipPath>
			
				<rect x="17.4" y="41.4" transform="matrix(0.9998 -2.221235e-02 2.221235e-02 0.9998 -0.9176 0.4923)" class="st0" width="8.6" height="0.3"/>
		</g>
		<g>
			<defs>
				
					<rect id="SVGID_3_" x="17.4" y="41.5" transform="matrix(0.9998 -2.219521e-02 2.219521e-02 0.9998 -0.9369 0.4916)" width="8.6" height="1.9"/>
			</defs>
			<clipPath id="SVGID_4_">
				<use xlink:href="#SVGID_3_"  style="overflow:visible;"/>
			</clipPath>
			
				<rect x="17.4" y="43.3" transform="matrix(0.9998 -2.219521e-02 2.219521e-02 0.9998 -0.9591 0.4924)" class="st1" width="8.6" height="0.3"/>
		</g>
		<g>
			<g>
				<defs>
					<rect id="SVGID_5_" x="17.4" y="41.5" width="8.6" height="1.9"/>
				</defs>
				<clipPath id="SVGID_6_">
					<use xlink:href="#SVGID_5_"  style="overflow:visible;"/>
				</clipPath>
			</g>
			<g>
				<defs>
					<rect id="SVGID_7_" x="17.4" y="41.5" width="8.6" height="1.9"/>
				</defs>
				<defs>
					
						<rect id="SVGID_8_" x="17.4" y="41.5" transform="matrix(0.9998 -2.220843e-02 2.220843e-02 0.9998 -0.9386 0.4924)" width="8.6" height="2"/>
				</defs>
				<clipPath id="SVGID_9_">
					<use xlink:href="#SVGID_7_"  style="overflow:visible;"/>
				</clipPath>
				<clipPath id="SVGID_10_" class="st2">
					<use xlink:href="#SVGID_8_"  style="overflow:visible;"/>
				</clipPath>
				<g class="st3">
					
						<image style="overflow:visible;enable-background:new    ;" width="256" height="1" xlink:href="EE9DBD04BAD58EC2.jpg"  transform="matrix(1.703262e-04 7.667042e-03 -8.6259 0.1916 26.0147 41.4376)">
					</image>
				</g>
			</g>
		</g>
	</g>
</g>
<g>
	<g>
		<g>
			<defs>
				<path id="SVGID_12_" d="M19.9,16.2c-0.1,0.3,0,0.8,0.3,1.2c0.3,0.5,0.7,0.8,1,0.8l-0.3,0.2c-0.3,0-0.7-0.3-1-0.8s-0.4-1-0.3-1.2
					L19.9,16.2z M20.1,16.1c0.2-0.1,0.7,0.2,1,0.7c0.4,0.5,0.5,1.1,0.2,1.3l0,0c0.2,0.5,0.1,0.9-0.1,1.1c-0.4,0.2-1.2-0.3-1.8-1.3
					C18.8,17,18.7,16,19,15.8S19.7,15.8,20.1,16.1L20.1,16.1z M13.6,19.2c-0.2,0.5,0,1.3,0.5,2.1c0.5,0.8,1.2,1.3,1.7,1.4l-0.6,0.4
					c-0.3,0-0.6-0.2-0.9-0.4l-0.1,0.1c-0.3,0-0.7-0.3-1-0.8s-0.4-1-0.3-1.3l0.1-0.1c-0.1-0.4-0.1-0.7,0-1L13.6,19.2z M18.7,16
					c-0.2,0.5,0,1.3,0.5,2.1c0.5,0.8,1.2,1.3,1.7,1.4l-0.6,0.4c-0.4,0-1-0.4-1.4-1L16,20.7c0.4,0.8,0.5,1.5,0.2,1.8
					c-0.4,0.2-1.2-0.3-1.8-1.3c-0.6-0.9-0.8-1.9-0.4-2.2c0.3-0.2,1,0.2,1.5,0.9l2.8-1.8c-0.3-0.7-0.5-1.3-0.3-1.7L18.7,16z"/>
			</defs>
			<clipPath id="SVGID_13_">
				<use xlink:href="#SVGID_12_"  style="overflow:visible;"/>
			</clipPath>
		</g>
		<g>
			<defs>
				<path id="SVGID_14_" d="M19.8,16.3c-0.1,0.3,0.1,0.8,0.4,1.2c0.3,0.5,0.8,0.7,1.1,0.7L21,18.4c-0.3,0-0.7-0.2-1.1-0.7
					c-0.3-0.5-0.5-1-0.4-1.2L19.8,16.3z M20,16.2c0.2-0.1,0.7,0.1,1.1,0.6c0.4,0.5,0.6,1,0.3,1.3l0,0c0.2,0.5,0.2,0.9,0,1.1
					C21,19.4,20.2,19,19.5,18c-0.7-0.8-0.9-1.8-0.6-2.1C19.2,15.7,19.6,15.9,20,16.2L20,16.2z M13.8,19.9c-0.2,0.5,0.1,1.3,0.7,2
					c0.6,0.7,1.3,1.2,1.8,1.2l-0.6,0.5c-0.3,0-0.6-0.1-0.9-0.3l-0.1,0.1c-0.3,0-0.7-0.2-1.1-0.7s-0.5-1-0.4-1.3l0.1-0.1
					c-0.1-0.4-0.2-0.7-0.1-1L13.8,19.9z M18.6,16.2c-0.2,0.5,0.1,1.3,0.7,2c0.6,0.7,1.3,1.2,1.8,1.2l-0.6,0.5c-0.4,0-1-0.3-1.5-0.9
					l-2.7,2.1c0.5,0.8,0.6,1.4,0.4,1.8c-0.4,0.2-1.2-0.2-1.9-1.1c-0.7-0.8-1-1.8-0.6-2.2c0.3-0.2,1,0.1,1.6,0.7l2.6-2.1
					c-0.4-0.7-0.6-1.2-0.5-1.7L18.6,16.2z"/>
			</defs>
			<defs>
				
					<rect id="SVGID_15_" x="15.7" y="14.4" transform="matrix(0.9952 -9.791555e-02 9.791555e-02 0.9952 -1.6392 1.87)" width="5" height="6.4"/>
			</defs>
			<clipPath id="SVGID_17_">
				<use xlink:href="#SVGID_14_"  style="overflow:visible;"/>
			</clipPath>
			<clipPath id="SVGID_18_" class="st4">
				<use xlink:href="#SVGID_15_"  style="overflow:visible;"/>
			</clipPath>
			
				<rect x="20.2" y="13.8" transform="matrix(0.9952 -9.791555e-02 9.791555e-02 0.9952 -1.5853 2.0999)" class="st5" width="0.8" height="6.8"/>
		</g>
		<g>
			<defs>
				<path id="SVGID_19_" d="M19.7,15.8c-0.1,0.3,0.1,0.8,0.4,1.2c0.3,0.5,0.8,0.7,1.1,0.7l-0.3,0.2c-0.3,0-0.7-0.2-1.1-0.7
					c-0.3-0.5-0.5-1-0.4-1.2L19.7,15.8z M19.9,15.7c0.2-0.1,0.7,0.1,1.1,0.6c0.4,0.5,0.6,1,0.3,1.3l0,0c0.2,0.5,0.2,0.9,0,1.1
					c-0.4,0.2-1.2-0.2-1.9-1.1c-0.7-0.8-0.9-1.8-0.6-2.1S19.5,15.4,19.9,15.7L19.9,15.7z M13.8,19.4c-0.2,0.5,0.1,1.3,0.7,2
					c0.6,0.7,1.3,1.2,1.8,1.2l-0.6,0.5c-0.3,0-0.6-0.1-0.9-0.3l-0.1,0.1c-0.3,0-0.7-0.2-1.1-0.7c-0.3-0.5-0.5-1-0.4-1.3l0.1-0.1
					c-0.1-0.4-0.2-0.7-0.1-1L13.8,19.4z M18.5,15.7c-0.2,0.5,0.1,1.3,0.7,2c0.6,0.7,1.3,1.2,1.8,1.2l-0.6,0.5c-0.4,0-1-0.3-1.5-0.9
					l-2.7,2.1c0.5,0.8,0.6,1.4,0.4,1.8c-0.4,0.2-1.2-0.2-1.9-1.1c-0.7-0.8-1-1.8-0.6-2.2c0.3-0.2,1,0.1,1.6,0.7l2.6-2.1
					c-0.4-0.7-0.6-1.2-0.5-1.7L18.5,15.7z"/>
			</defs>
			<defs>
				
					<rect id="SVGID_20_" x="15.7" y="14" transform="matrix(0.9952 -9.791555e-02 9.791555e-02 0.9952 -1.594 1.861)" width="5" height="6.4"/>
			</defs>
			<clipPath id="SVGID_21_">
				<use xlink:href="#SVGID_19_"  style="overflow:visible;"/>
			</clipPath>
			<clipPath id="SVGID_22_" class="st6">
				<use xlink:href="#SVGID_20_"  style="overflow:visible;"/>
			</clipPath>
			
				<rect x="15.5" y="14.3" transform="matrix(0.9952 -9.791555e-02 9.791555e-02 0.9952 -1.6561 1.6423)" class="st7" width="0.8" height="6.8"/>
		</g>
		<g>
			<g>
				<defs>
					<path id="SVGID_23_" d="M19.9,16.2c-0.1,0.3,0,0.8,0.3,1.2c0.3,0.5,0.7,0.8,1,0.8l-0.3,0.2c-0.3,0-0.7-0.3-1-0.8
						s-0.4-1-0.3-1.2L19.9,16.2z M20.1,16.1c0.2-0.1,0.7,0.2,1,0.7c0.4,0.5,0.5,1.1,0.2,1.3l0,0c0.2,0.5,0.1,0.9-0.1,1.1
						c-0.4,0.2-1.2-0.3-1.8-1.3C18.8,17,18.7,16,19,15.8S19.7,15.8,20.1,16.1L20.1,16.1z M13.6,19.2c-0.2,0.5,0,1.3,0.5,2.1
						c0.5,0.8,1.2,1.3,1.7,1.4l-0.6,0.4c-0.3,0-0.6-0.2-0.9-0.4l-0.1,0.1c-0.3,0-0.7-0.3-1-0.8s-0.4-1-0.3-1.3l0.1-0.1
						c-0.1-0.4-0.1-0.7,0-1L13.6,19.2z M18.7,16c-0.2,0.5,0,1.3,0.5,2.1c0.5,0.8,1.2,1.3,1.7,1.4l-0.6,0.4c-0.4,0-1-0.4-1.4-1
						L16,20.7c0.4,0.8,0.5,1.5,0.2,1.8c-0.4,0.2-1.2-0.3-1.8-1.3c-0.6-0.9-0.8-1.9-0.4-2.2c0.3-0.2,1,0.2,1.5,0.9l2.8-1.8
						c-0.3-0.7-0.5-1.3-0.3-1.7L18.7,16z"/>
				</defs>
				<defs>
					<rect id="SVGID_24_" x="15.7" y="14.2" width="5" height="6.4"/>
				</defs>
				<clipPath id="SVGID_26_">
					<use xlink:href="#SVGID_23_"  style="overflow:visible;"/>
				</clipPath>
				<clipPath id="SVGID_27_" class="st8">
					<use xlink:href="#SVGID_24_"  style="overflow:visible;"/>
				</clipPath>
			</g>
			<g>
				<defs>
					<path id="SVGID_28_" d="M19.9,16.2c-0.1,0.3,0,0.8,0.3,1.2c0.3,0.5,0.7,0.8,1,0.8l-0.3,0.2c-0.3,0-0.7-0.3-1-0.8
						s-0.4-1-0.3-1.2L19.9,16.2z M20.1,16.1c0.2-0.1,0.7,0.2,1,0.7c0.4,0.5,0.5,1.1,0.2,1.3l0,0c0.2,0.5,0.1,0.9-0.1,1.1
						c-0.4,0.2-1.2-0.3-1.8-1.3C18.8,17,18.7,16,19,15.8S19.7,15.8,20.1,16.1L20.1,16.1z M13.6,19.2c-0.2,0.5,0,1.3,0.5,2.1
						c0.5,0.8,1.2,1.3,1.7,1.4l-0.6,0.4c-0.3,0-0.6-0.2-0.9-0.4l-0.1,0.1c-0.3,0-0.7-0.3-1-0.8s-0.4-1-0.3-1.3l0.1-0.1
						c-0.1-0.4-0.1-0.7,0-1L13.6,19.2z M18.7,16c-0.2,0.5,0,1.3,0.5,2.1c0.5,0.8,1.2,1.3,1.7,1.4l-0.6,0.4c-0.4,0-1-0.4-1.4-1
						L16,20.7c0.4,0.8,0.5,1.5,0.2,1.8c-0.4,0.2-1.2-0.3-1.8-1.3c-0.6-0.9-0.8-1.9-0.4-2.2c0.3-0.2,1,0.2,1.5,0.9l2.8-1.8
						c-0.3-0.7-0.5-1.3-0.3-1.7L18.7,16z"/>
				</defs>
				<defs>
					<rect id="SVGID_29_" x="15.7" y="14.2" width="5" height="6.4"/>
				</defs>
				<defs>
					
						<rect id="SVGID_30_" x="15.7" y="14" transform="matrix(0.9952 -9.791595e-02 9.791595e-02 0.9952 -1.6166 1.8655)" width="5" height="6.8"/>
				</defs>
				<clipPath id="SVGID_31_">
					<use xlink:href="#SVGID_28_"  style="overflow:visible;"/>
				</clipPath>
				<clipPath id="SVGID_32_" class="st9">
					<use xlink:href="#SVGID_29_"  style="overflow:visible;"/>
				</clipPath>
				<clipPath id="SVGID_33_" class="st10">
					<use xlink:href="#SVGID_30_"  style="overflow:visible;"/>
				</clipPath>
				<g class="st11">
					
						<image style="overflow:visible;enable-background:new    ;" width="256" height="1" xlink:href="EE9DBD04BAD58EC1.jpg"  transform="matrix(-1.950242e-02 1.918833e-03 -0.6665 -6.7742 21.0579 20.5632)">
					</image>
				</g>
			</g>
		</g>
	</g>
</g>
<g>
	<g>
		<g>
			<defs>
				<path id="SVGID_34_" d="M19.9,16.2c-0.1,0.3,0,0.8,0.3,1.2c0.3,0.5,0.7,0.8,1,0.8l-0.3,0.2c-0.3,0-0.7-0.3-1-0.8s-0.4-1-0.3-1.2
					L19.9,16.2z M20.1,16.1c0.2-0.1,0.7,0.2,1,0.7c0.4,0.5,0.5,1.1,0.2,1.3l0,0c0.2,0.5,0.1,0.9-0.1,1.1c-0.4,0.2-1.2-0.3-1.8-1.3
					C18.8,17,18.7,16,19,15.8S19.7,15.8,20.1,16.1L20.1,16.1z M13.6,19.2c-0.2,0.5,0,1.3,0.5,2.1c0.5,0.8,1.2,1.3,1.7,1.4l-0.6,0.4
					c-0.3,0-0.6-0.2-0.9-0.4l-0.1,0.1c-0.3,0-0.7-0.3-1-0.8s-0.4-1-0.3-1.3l0.1-0.1c-0.1-0.4-0.1-0.7,0-1L13.6,19.2z M18.7,16
					c-0.2,0.5,0,1.3,0.5,2.1c0.5,0.8,1.2,1.3,1.7,1.4l-0.6,0.4c-0.4,0-1-0.4-1.4-1L16,20.7c0.4,0.8,0.5,1.5,0.2,1.8
					c-0.4,0.2-1.2-0.3-1.8-1.3c-0.6-0.9-0.8-1.9-0.4-2.2c0.3-0.2,1,0.2,1.5,0.9l2.8-1.8c-0.3-0.7-0.5-1.3-0.3-1.7L18.7,16z"/>
			</defs>
			<clipPath id="SVGID_35_">
				<use xlink:href="#SVGID_34_"  style="overflow:visible;"/>
			</clipPath>
		</g>
		<g>
			<defs>
				<path id="SVGID_36_" d="M17.8,14.6c0,0.3,0.3,0.7,0.8,1c0.5,0.3,1,0.4,1.2,0.3l-0.2,0.3c-0.3,0.1-0.8,0-1.2-0.3
					c-0.5-0.3-0.8-0.7-0.8-1L17.8,14.6z M18,14.5c0.1-0.2,0.7-0.1,1.2,0.2c0.6,0.3,0.9,0.8,0.7,1.1l0,0c0.4,0.4,0.5,0.8,0.4,1
					c-0.3,0.3-1.2,0.2-2.2-0.4c-0.9-0.6-1.4-1.4-1.2-1.8C17,14.3,17.5,14.4,18,14.5L18,14.5z M13.3,20c0,0.5,0.5,1.2,1.3,1.7
					c0.8,0.5,1.6,0.7,2.1,0.6l-0.4,0.6c-0.3,0.1-0.6,0.1-1,0L15.3,23c-0.3,0.1-0.8,0-1.2-0.3s-0.8-0.7-0.8-1.1l0.1-0.1
					c-0.3-0.3-0.4-0.6-0.4-0.9L13.3,20z M16.7,15c0,0.5,0.5,1.2,1.3,1.7c0.8,0.5,1.6,0.7,2.1,0.6l-0.4,0.6c-0.4,0.2-1.1,0-1.7-0.3
					l-1.9,2.8c0.7,0.6,1.1,1.2,0.9,1.6c-0.3,0.3-1.2,0.2-2.2-0.4c-0.9-0.6-1.5-1.4-1.3-1.8c0.2-0.3,1-0.2,1.7,0.2l1.8-2.8
					c-0.6-0.5-1-1-1-1.4L16.7,15z"/>
			</defs>
			<defs>
				
					<rect id="SVGID_37_" x="14.9" y="20.1" transform="matrix(0.9117 -0.4108 0.4108 0.9117 -7.1693 8.3846)" width="2" height="1.6"/>
			</defs>
			<clipPath id="SVGID_38_">
				<use xlink:href="#SVGID_36_"  style="overflow:visible;"/>
			</clipPath>
			<clipPath id="SVGID_39_" class="st12">
				<use xlink:href="#SVGID_37_"  style="overflow:visible;"/>
			</clipPath>
			<rect x="14" y="20" transform="matrix(0.9117 -0.4108 0.4108 0.9117 -6.9521 8.0419)" class="st13" width="2.5" height="0.4"/>
		</g>
		<g>
			<defs>
				<path id="SVGID_40_" d="M17.2,15.1c0,0.3,0.3,0.7,0.8,1c0.5,0.3,1,0.4,1.2,0.3L19,16.7c-0.3,0.1-0.8,0-1.2-0.3
					c-0.5-0.3-0.8-0.7-0.8-1L17.2,15.1z M17.3,14.9c0.1-0.2,0.7-0.1,1.2,0.2c0.6,0.3,0.9,0.8,0.7,1.1l0,0c0.4,0.4,0.5,0.8,0.4,1
					c-0.3,0.3-1.2,0.2-2.2-0.4c-0.9-0.6-1.4-1.4-1.2-1.8C16.4,14.8,16.9,14.8,17.3,14.9L17.3,14.9z M12.7,20.4
					c0,0.5,0.5,1.2,1.3,1.7c0.8,0.5,1.6,0.7,2.1,0.6l-0.4,0.6c-0.3,0.1-0.6,0.1-1,0l-0.1,0.1c-0.3,0.1-0.8,0-1.2-0.3
					s-0.8-0.7-0.8-1.1l0.1-0.1c-0.3-0.3-0.4-0.6-0.4-0.9L12.7,20.4z M16,15.4c0,0.5,0.5,1.2,1.3,1.7c0.8,0.5,1.6,0.7,2.1,0.6
					l-0.4,0.6c-0.4,0.2-1.1,0-1.7-0.3l-1.9,2.8c0.7,0.6,1.1,1.2,0.9,1.6c-0.3,0.3-1.2,0.2-2.2-0.4c-0.9-0.6-1.5-1.4-1.3-1.8
					c0.2-0.3,1-0.2,1.7,0.2l1.8-2.8c-0.6-0.5-1-1-1-1.4L16,15.4z"/>
			</defs>
			<defs>
				
					<rect id="SVGID_41_" x="14.3" y="20.5" transform="matrix(0.9117 -0.4108 0.4108 0.9117 -7.4155 8.1669)" width="2" height="1.6"/>
			</defs>
			<clipPath id="SVGID_42_">
				<use xlink:href="#SVGID_40_"  style="overflow:visible;"/>
			</clipPath>
			<clipPath id="SVGID_43_" class="st14">
				<use xlink:href="#SVGID_41_"  style="overflow:visible;"/>
			</clipPath>
			
				<rect x="14.8" y="21.7" transform="matrix(0.9117 -0.4108 0.4108 0.9117 -7.574 8.5185)" class="st15" width="2.5" height="0.4"/>
		</g>
		<g>
			<g>
				<defs>
					<path id="SVGID_44_" d="M19.9,16.2c-0.1,0.3,0,0.8,0.3,1.2c0.3,0.5,0.7,0.8,1,0.8l-0.3,0.2c-0.3,0-0.7-0.3-1-0.8
						s-0.4-1-0.3-1.2L19.9,16.2z M20.1,16.1c0.2-0.1,0.7,0.2,1,0.7c0.4,0.5,0.5,1.1,0.2,1.3l0,0c0.2,0.5,0.1,0.9-0.1,1.1
						c-0.4,0.2-1.2-0.3-1.8-1.3C18.8,17,18.7,16,19,15.8S19.7,15.8,20.1,16.1L20.1,16.1z M13.6,19.2c-0.2,0.5,0,1.3,0.5,2.1
						c0.5,0.8,1.2,1.3,1.7,1.4l-0.6,0.4c-0.3,0-0.6-0.2-0.9-0.4l-0.1,0.1c-0.3,0-0.7-0.3-1-0.8s-0.4-1-0.3-1.3l0.1-0.1
						c-0.1-0.4-0.1-0.7,0-1L13.6,19.2z M18.7,16c-0.2,0.5,0,1.3,0.5,2.1c0.5,0.8,1.2,1.3,1.7,1.4l-0.6,0.4c-0.4,0-1-0.4-1.4-1
						L16,20.7c0.4,0.8,0.5,1.5,0.2,1.8c-0.4,0.2-1.2-0.3-1.8-1.3c-0.6-0.9-0.8-1.9-0.4-2.2c0.3-0.2,1,0.2,1.5,0.9l2.8-1.8
						c-0.3-0.7-0.5-1.3-0.3-1.7L18.7,16z"/>
				</defs>
				<defs>
					<rect id="SVGID_45_" x="14.6" y="20.3" width="2" height="1.6"/>
				</defs>
				<clipPath id="SVGID_46_">
					<use xlink:href="#SVGID_44_"  style="overflow:visible;"/>
				</clipPath>
				<clipPath id="SVGID_47_" class="st16">
					<use xlink:href="#SVGID_45_"  style="overflow:visible;"/>
				</clipPath>
			</g>
			<g>
				<defs>
					<path id="SVGID_48_" d="M19.9,16.2c-0.1,0.3,0,0.8,0.3,1.2c0.3,0.5,0.7,0.8,1,0.8l-0.3,0.2c-0.3,0-0.7-0.3-1-0.8
						s-0.4-1-0.3-1.2L19.9,16.2z M20.1,16.1c0.2-0.1,0.7,0.2,1,0.7c0.4,0.5,0.5,1.1,0.2,1.3l0,0c0.2,0.5,0.1,0.9-0.1,1.1
						c-0.4,0.2-1.2-0.3-1.8-1.3C18.8,17,18.7,16,19,15.8S19.7,15.8,20.1,16.1L20.1,16.1z M13.6,19.2c-0.2,0.5,0,1.3,0.5,2.1
						c0.5,0.8,1.2,1.3,1.7,1.4l-0.6,0.4c-0.3,0-0.6-0.2-0.9-0.4l-0.1,0.1c-0.3,0-0.7-0.3-1-0.8s-0.4-1-0.3-1.3l0.1-0.1
						c-0.1-0.4-0.1-0.7,0-1L13.6,19.2z M18.7,16c-0.2,0.5,0,1.3,0.5,2.1c0.5,0.8,1.2,1.3,1.7,1.4l-0.6,0.4c-0.4,0-1-0.4-1.4-1
						L16,20.7c0.4,0.8,0.5,1.5,0.2,1.8c-0.4,0.2-1.2-0.3-1.8-1.3c-0.6-0.9-0.8-1.9-0.4-2.2c0.3-0.2,1,0.2,1.5,0.9l2.8-1.8
						c-0.3-0.7-0.5-1.3-0.3-1.7L18.7,16z"/>
				</defs>
				<defs>
					<rect id="SVGID_49_" x="14.6" y="20.3" width="2" height="1.6"/>
				</defs>
				<defs>
					
						<rect id="SVGID_50_" x="14.4" y="20.2" transform="matrix(0.9117 -0.4108 0.4108 0.9117 -7.2799 8.2927)" width="2.5" height="1.8"/>
				</defs>
				<clipPath id="SVGID_51_">
					<use xlink:href="#SVGID_48_"  style="overflow:visible;"/>
				</clipPath>
				<clipPath id="SVGID_52_" class="st17">
					<use xlink:href="#SVGID_49_"  style="overflow:visible;"/>
				</clipPath>
				<clipPath id="SVGID_53_" class="st18">
					<use xlink:href="#SVGID_50_"  style="overflow:visible;"/>
				</clipPath>
				<g class="st19">
					
						<image style="overflow:visible;enable-background:new    ;" width="256" height="1" xlink:href="EE9DBD04BAD58EC6.jpg"  transform="matrix(2.869586e-03 6.369014e-03 -2.257 1.0169 16.3812 19.7568)">
					</image>
				</g>
			</g>
		</g>
	</g>
</g>
<g>
	<path class="st20" d="M34.4,2.8h0.3c0.9,0,1.6,0.7,1.6,1.6V8c0,0.9-0.7,1.6-1.6,1.6h-20c-0.9,0-1.6-0.7-1.6-1.6V4.4
		c0-0.9,0.7-1.6,1.6-1.6H15V2.2c0-0.9,0.7-1.6,1.6-1.6h16.1c0.9,0,1.6,0.7,1.6,1.6v0.6H34.4z"/>
</g>
<g>
	<path class="st20" d="M7.8,7.7v22.9c0,19.6,34.2,19.6,34.2,0V7.7H7.8z"/>
</g>
<g>
	<path class="st20" d="M10.8,5l14.1-1.8L39,5c0.4,0,0.7,0.2,0.9,0.4c0.3,0.3,0.5,0.7,0.5,1.1v3.7c0,0.4-0.2,0.8-0.5,1.1
		s-0.7,0.5-1.1,0.5H11c-0.4,0-0.8-0.2-1.1-0.5s-0.5-0.7-0.5-1.1V6.6c0-0.4,0.2-0.8,0.5-1.1C10.2,5.2,10.5,5.1,10.8,5"/>
</g>
<g>
	<path class="st21" d="M9.3,9.2v21.2c0,3.3,1.1,6.4,3.4,8.8c3.1,3.2,7.8,4.6,12.2,4.6c8,0,15.6-4.6,15.6-13.3V9.2H9.3z"/>
</g>
<g>
	<g>
		<defs>
			<path id="SVGID_54_" d="M9.3,9.2v21.2c0,3.3,1.1,6.4,3.4,8.8c3.1,3.2,7.8,4.6,12.2,4.6c8,0,15.6-4.6,15.6-13.3V9.2H9.3z"/>
		</defs>
		<clipPath id="SVGID_55_">
			<use xlink:href="#SVGID_54_"  style="overflow:visible;"/>
		</clipPath>
		<g class="st22">
			<path class="st23" d="M40.8,9.2l-2.3,2.1c0,0,0,16.5,0,19.9c0,3.3-1.8,6.1-3.3,7.2c-1.5,1,3.8-0.7,4.5-6.1s0.6-10,0.6-13.7
				s-0.6-1.4-0.6,0.5s-0.5,2.2-0.5-1.3s-0.2-5.5,0.9-6.5C41.1,10.3,40.8,9.2,40.8,9.2"/>
		</g>
	</g>
	<g>
		<defs>
			<path id="SVGID_56_" d="M9.3,9.2v21.2c0,3.3,1.1,6.4,3.4,8.8c3.1,3.2,7.8,4.6,12.2,4.6c8,0,15.6-4.6,15.6-13.3V9.2H9.3z"/>
		</defs>
		<clipPath id="SVGID_57_">
			<use xlink:href="#SVGID_56_"  style="overflow:visible;"/>
		</clipPath>
		<g class="st24">
			<path class="st23" d="M9.1,9.2l2.3,2.1c0,0,0,16.5,0,19.9c0,3.3,1.8,6.1,3.3,7.2c1.5,1-3.8-0.7-4.5-6.1s-0.6-10-0.6-13.7
				s0.6-1.4,0.6,0.5s0.5,2.2,0.5-1.3s0.2-5.5-0.9-6.5C8.8,10.3,9.1,9.2,9.1,9.2"/>
		</g>
	</g>
	<g>
		<defs>
			<path id="SVGID_58_" d="M9.3,9.2v21.2c0,3.3,1.1,6.4,3.4,8.8c3.1,3.2,7.8,4.6,12.2,4.6c8,0,15.6-4.6,15.6-13.3V9.2H9.3z"/>
		</defs>
		<clipPath id="SVGID_59_">
			<use xlink:href="#SVGID_58_"  style="overflow:visible;"/>
		</clipPath>
		<g class="st25">
			<path class="st26" d="M8.9,9.2c-0.1,0-0.1-0.2,0-0.3c0.1-0.1,0.3-0.1,0.4,0l3.6,3.3c0.1,0.1,0.1,0.3,0,0.4
				c-0.1,0.1-0.3,0.1-0.4,0L8.9,9.2z"/>
		</g>
	</g>
	<g>
		<defs>
			<path id="SVGID_60_" d="M9.3,9.2v21.2c0,3.3,1.1,6.4,3.4,8.8c3.1,3.2,7.8,4.6,12.2,4.6c8,0,15.6-4.6,15.6-13.3V9.2H9.3z"/>
		</defs>
		<clipPath id="SVGID_61_">
			<use xlink:href="#SVGID_60_"  style="overflow:visible;"/>
		</clipPath>
		<g class="st27">
			<path class="st26" d="M40.5,8.9c0.1-0.1,0.3-0.1,0.4,0C41,9,41,9.2,40.9,9.2l-3.6,3.3c-0.1,0.1-0.3,0.1-0.4,0
				c-0.1-0.1-0.1-0.3,0-0.4L40.5,8.9z"/>
		</g>
	</g>
	<g>
		<defs>
			<path id="SVGID_62_" d="M9.3,9.2v21.2c0,3.3,1.1,6.4,3.4,8.8c3.1,3.2,7.8,4.6,12.2,4.6c8,0,15.6-4.6,15.6-13.3V9.2H9.3z"/>
		</defs>
		<clipPath id="SVGID_63_">
			<use xlink:href="#SVGID_62_"  style="overflow:visible;"/>
		</clipPath>
		<g class="st28">
			<path class="st26" d="M11.2,11.1v9.6v9.6c0,1.4,0.2,2.8,0.7,4s1.2,2.4,2.2,3.4c1.4,1.4,3.1,2.4,5,3.1c1.9,0.7,3.9,1,5.8,1
				c3.5,0,6.9-0.9,9.4-2.8c2.6-1.9,4.2-4.7,4.2-8.6v-9.6v-9.6H11.2V11.1z"/>
		</g>
	</g>
	<circle class="st29" cx="25" cy="26.1" r="11.1"/>
	<g>
		<defs>
			<path id="SVGID_64_" d="M9.3,9.2v21.2c0,3.3,1.1,6.4,3.4,8.8c3.1,3.2,7.8,4.6,12.2,4.6c8,0,15.6-4.6,15.6-13.3V9.2H9.3z"/>
		</defs>
		<clipPath id="SVGID_65_">
			<use xlink:href="#SVGID_64_"  style="overflow:visible;"/>
		</clipPath>
	</g>
	<g>
		<defs>
			<path id="SVGID_66_" d="M9.3,9.2v21.2c0,3.3,1.1,6.4,3.4,8.8c3.1,3.2,7.8,4.6,12.2,4.6c8,0,15.6-4.6,15.6-13.3V9.2H9.3z"/>
		</defs>
		<clipPath id="SVGID_67_">
			<use xlink:href="#SVGID_66_"  style="overflow:visible;"/>
		</clipPath>
		<g class="st30">
			<path class="st31" d="M3.8,23.4c14.3-3,28.6-6,42.9-8.9c0,5,0,8.6,0,13.6l-5.4,1.1l-3.1,0.6l-5.4,1.3l-1.3-2L27.2,33L25,31
				L9.2,35.9L3.8,37C3.8,31.9,3.8,28.4,3.8,23.4"/>
		</g>
	</g>
	<g>
		<defs>
			<path id="SVGID_68_" d="M9.3,9.2v21.2c0,3.3,1.1,6.4,3.4,8.8c3.1,3.2,7.8,4.6,12.2,4.6c8,0,15.6-4.6,15.6-13.3V9.2H9.3z"/>
		</defs>
		<clipPath id="SVGID_69_">
			<use xlink:href="#SVGID_68_"  style="overflow:visible;"/>
		</clipPath>
	</g>
	<g>
		<defs>
			<path id="SVGID_70_" d="M9.3,9.2v21.2c0,3.3,1.1,6.4,3.4,8.8c3.1,3.2,7.8,4.6,12.2,4.6c8,0,15.6-4.6,15.6-13.3V9.2H9.3z"/>
		</defs>
		<clipPath id="SVGID_71_">
			<use xlink:href="#SVGID_70_"  style="overflow:visible;"/>
		</clipPath>
		<g class="st32">
			<path class="st33" d="M12.1,35l9.4-2.3c0,0-0.4,0.3-0.2,0.2c0.1,0,1.9-0.4,1.9-0.4L24,33l0.3-0.2l0.8,0.3l0.2-0.8l2.8,1.5
				l-0.4-0.6l2.3-1.3l0.5,0.1l0.5-0.3l0.7-0.4l1.8,1.6L33.2,32l5.5-2.3L33,31.6L31.6,29l-4.5,3.8l-2.2-2L12.1,35z"/>
		</g>
	</g>
	<g>
		<defs>
			<path id="SVGID_72_" d="M9.3,9.2v21.2c0,3.3,1.1,6.4,3.4,8.8c3.1,3.2,7.8,4.6,12.2,4.6c8,0,15.6-4.6,15.6-13.3V9.2H9.3z"/>
		</defs>
		<clipPath id="SVGID_73_">
			<use xlink:href="#SVGID_72_"  style="overflow:visible;"/>
		</clipPath>
		<g class="st34">
			<path class="st35" d="M16.3,44.5C16.2,44.5,16.2,44.5,16.3,44.5l-1-0.1l-0.9,0.1c-0.2,0-0.4,0-0.5-0.2c-0.1-0.1-0.2-0.3-0.2-0.5
				v-1.7l-1.4,0.3c-0.3,0-0.5-0.1-0.7-0.3c-0.1-0.2-0.1-0.5,0-0.7l1.1-1.7c-0.2,0-0.5-0.1-0.6-0.3s-0.1-0.5,0-0.7l0.8-1.1
				c-0.2-0.1-0.3-0.2-0.4-0.3c-0.1-0.2-0.1-0.5,0-0.7l2.1-3.1c0.1-0.2,0.3-0.3,0.6-0.3s0.4,0.1,0.6,0.3l2.1,3.1
				c0.1,0.2,0.2,0.5,0,0.7c-0.1,0.1-0.2,0.3-0.4,0.3l0.8,1.1c0.2,0.2,0.2,0.5,0,0.7c-0.1,0.2-0.3,0.3-0.6,0.3l1.1,1.7
				c0.1,0.2,0.2,0.5,0,0.7c-0.1,0.2-0.4,0.3-0.7,0.3l-1.4-0.3v1.7c0,0.2-0.1,0.4-0.2,0.5C16.6,44.4,16.4,44.5,16.3,44.5z M15.3,43
				C15.3,43,15.3,43.1,15.3,43h0.3v-1.7c0-0.2,0.1-0.4,0.2-0.5c0.2-0.1,0.4-0.2,0.6-0.1l0.7,0.1L16,39.2c-0.1-0.2-0.2-0.5,0-0.7
				c0.1-0.2,0.3-0.3,0.5-0.3l-0.7-1c-0.2-0.2-0.2-0.5-0.1-0.7c0.1-0.2,0.3-0.3,0.4-0.3L15.3,35l-0.8,1.2c0.2,0,0.4,0.2,0.4,0.3
				c0.1,0.2,0.1,0.5-0.1,0.7l-0.7,1c0.2,0,0.4,0.1,0.5,0.3s0.1,0.5,0,0.7l-1.1,1.6l0.7-0.1c0.2,0,0.4,0,0.6,0.1
				c0.2,0.1,0.2,0.3,0.2,0.5V43H15.3C15.2,43.1,15.3,43,15.3,43z"/>
		</g>
	</g>
	<g>
		<defs>
			<path id="SVGID_74_" d="M9.3,9.2v21.2c0,3.3,1.1,6.4,3.4,8.8c3.1,3.2,7.8,4.6,12.2,4.6c8,0,15.6-4.6,15.6-13.3V9.2H9.3z"/>
		</defs>
		<clipPath id="SVGID_75_">
			<use xlink:href="#SVGID_74_"  style="overflow:visible;"/>
		</clipPath>
		<g class="st36">
			<polygon class="st37" points="15.3,33.7 13.2,36.8 14.3,36.8 12.7,39 14.1,38.8 12.1,41.8 14.3,41.4 14.3,43.8 15.3,43.7 
				16.3,43.8 16.3,41.4 18.5,41.8 16.5,38.8 17.9,39 16.2,36.8 17.4,36.8 			"/>
		</g>
	</g>
	<g>
		<defs>
			<path id="SVGID_76_" d="M9.3,9.2v21.2c0,3.3,1.1,6.4,3.4,8.8c3.1,3.2,7.8,4.6,12.2,4.6c8,0,15.6-4.6,15.6-13.3V9.2H9.3z"/>
		</defs>
		<clipPath id="SVGID_77_">
			<use xlink:href="#SVGID_76_"  style="overflow:visible;"/>
		</clipPath>
		<g class="st38">
			<path class="st35" d="M19,43.2L19,43.2l-0.8-0.1l-0.7,0.1c-0.1,0-0.3,0-0.4-0.1c0-0.1-0.1-0.3-0.1-0.4v-1.4l-1.3,0.2
				c-0.2,0-0.4,0-0.5-0.2s-0.1-0.4,0-0.5l1-1.5h-0.1c-0.2,0-0.4-0.1-0.4-0.2c-0.1-0.2-0.1-0.4,0-0.5l0.8-1c-0.2,0-0.3-0.1-0.4-0.2
				c-0.1-0.2-0.1-0.3,0-0.5l1.7-2.5c0.1-0.1,0.2-0.2,0.4-0.2c0.2,0,0.3,0.1,0.4,0.2l1.7,2.5c0.1,0.1,0.1,0.3,0,0.5
				c-0.1,0.1-0.2,0.2-0.4,0.2l0.8,1c0.1,0.1,0.1,0.3,0,0.5s-0.3,0.2-0.4,0.2h-0.1l1,1.5c0.1,0.2,0.1,0.4,0,0.5
				c-0.1,0.2-0.3,0.2-0.5,0.2l-1.3-0.2v1.4c0,0.1-0.1,0.3-0.2,0.3C19.3,43.1,19.2,43.2,19,43.2z M18.3,42.2L18.3,42.2h0.3v-1.5
				c0-0.1,0.1-0.3,0.2-0.4c0.1-0.1,0.2-0.1,0.4-0.1l0.7,0.1l-1-1.5c-0.1-0.1-0.1-0.3,0-0.5s0.3-0.2,0.4-0.2l0,0l-0.7-0.9
				c-0.1-0.1-0.1-0.3,0-0.5s0.2-0.3,0.4-0.2l0,0l-0.8-1.2l-0.8,1.2l0,0c0.2,0,0.3,0.1,0.4,0.2c0.1,0.2,0.1,0.3,0,0.5l-0.7,0.9l0,0
				c0.2,0,0.3,0.1,0.4,0.2c0.1,0.2,0.1,0.3,0,0.5l-1,1.5l0.7-0.1c0.1,0,0.3,0,0.4,0.1s0.2,0.2,0.2,0.4v1.5H18.3
				C18.2,42.2,18.2,42.2,18.3,42.2z"/>
		</g>
	</g>
	<g>
		<defs>
			<path id="SVGID_78_" d="M9.3,9.2v21.2c0,3.3,1.1,6.4,3.4,8.8c3.1,3.2,7.8,4.6,12.2,4.6c8,0,15.6-4.6,15.6-13.3V9.2H9.3z"/>
		</defs>
		<clipPath id="SVGID_79_">
			<use xlink:href="#SVGID_78_"  style="overflow:visible;"/>
		</clipPath>
		<g class="st39">
			<polygon class="st40" points="18.3,34.6 16.6,37 17.5,37 16.2,38.8 17.3,38.7 15.7,41 17.5,40.7 17.5,42.7 18.3,42.6 19,42.7 
				19,40.7 20.8,41 19.3,38.7 20.4,38.8 19,37 19.9,37 			"/>
		</g>
	</g>
	<g>
		<defs>
			<path id="SVGID_80_" d="M9.3,9.2v21.2c0,3.3,1.1,6.4,3.4,8.8c3.1,3.2,7.8,4.6,12.2,4.6c8,0,15.6-4.6,15.6-13.3V9.2H9.3z"/>
		</defs>
		<clipPath id="SVGID_81_">
			<use xlink:href="#SVGID_80_"  style="overflow:visible;"/>
		</clipPath>
		<g class="st41">
			<path class="st35" d="M33.5,44.5c-0.2,0-0.3-0.1-0.4-0.2c-0.1-0.1-0.2-0.3-0.2-0.5v-1.7l-1.4,0.3c-0.3,0-0.5-0.1-0.7-0.3
				c-0.1-0.2-0.1-0.5,0-0.7l1.1-1.7c-0.2,0-0.5-0.1-0.6-0.3s-0.1-0.5,0-0.7l0.8-1.1c-0.2-0.1-0.3-0.2-0.4-0.3
				c-0.1-0.2-0.1-0.5,0-0.7l2.1-3.1c0.1-0.2,0.3-0.3,0.6-0.3s0.4,0.1,0.6,0.3l2.1,3.1c0.1,0.2,0.2,0.5,0,0.7
				c-0.1,0.1-0.2,0.3-0.4,0.3l0.8,1.1c0.2,0.2,0.2,0.5,0,0.7c-0.1,0.2-0.3,0.3-0.6,0.3l1.1,1.7c0.1,0.2,0.2,0.5,0,0.7
				c-0.1,0.2-0.4,0.3-0.7,0.3l-1.4-0.3v1.7c0,0.2-0.1,0.4-0.2,0.5c-0.1,0.1-0.3,0.2-0.5,0.2l-0.9-0.1L33.5,44.5
				C33.6,44.5,33.5,44.5,33.5,44.5z M34.5,43C34.5,43,34.5,43.1,34.5,43h0.3v-1.7c0-0.2,0.1-0.4,0.2-0.5c0.2-0.1,0.4-0.2,0.6-0.1
				l0.7,0.1l-1.1-1.6c-0.1-0.2-0.2-0.5,0-0.7c0.1-0.2,0.3-0.3,0.5-0.3l-0.7-1c-0.2-0.2-0.2-0.5-0.1-0.7c0.1-0.2,0.3-0.3,0.4-0.3
				L34.5,35l-0.8,1.2c0.2,0,0.4,0.2,0.4,0.3c0.1,0.2,0.1,0.5-0.1,0.7l-0.7,1c0.2,0,0.4,0.1,0.5,0.3s0.1,0.5,0,0.7l-1.1,1.6l0.7-0.1
				c0.2,0,0.4,0,0.6,0.1c0.2,0.1,0.2,0.3,0.2,0.5V43H34.5C34.4,43.1,34.5,43,34.5,43z"/>
		</g>
	</g>
	<g>
		<defs>
			<path id="SVGID_82_" d="M9.3,9.2v21.2c0,3.3,1.1,6.4,3.4,8.8c3.1,3.2,7.8,4.6,12.2,4.6c8,0,15.6-4.6,15.6-13.3V9.2H9.3z"/>
		</defs>
		<clipPath id="SVGID_83_">
			<use xlink:href="#SVGID_82_"  style="overflow:visible;"/>
		</clipPath>
		<g class="st42">
			<polygon class="st37" points="34.5,33.7 36.5,36.8 35.4,36.8 37.1,39 35.7,38.8 37.7,41.8 35.4,41.4 35.4,43.8 34.5,43.7 
				33.5,43.8 33.5,41.4 31.3,41.8 33.2,38.8 31.9,39 33.5,36.8 32.4,36.8 			"/>
		</g>
	</g>
	<g>
		<defs>
			<path id="SVGID_84_" d="M9.3,9.2v21.2c0,3.3,1.1,6.4,3.4,8.8c3.1,3.2,7.8,4.6,12.2,4.6c8,0,15.6-4.6,15.6-13.3V9.2H9.3z"/>
		</defs>
		<clipPath id="SVGID_85_">
			<use xlink:href="#SVGID_84_"  style="overflow:visible;"/>
		</clipPath>
		<g class="st43">
			<path class="st35" d="M32.3,43.2L32.3,43.2l-0.8-0.1l-0.7,0.1c-0.1,0-0.3,0-0.4-0.1s-0.2-0.2-0.2-0.3v-1.4L29,41.5
				c-0.2,0-0.4,0-0.5-0.2s-0.1-0.4,0-0.5l1-1.5h-0.1c-0.2,0-0.4-0.1-0.4-0.2c-0.1-0.2-0.1-0.4,0-0.5l0.8-1c-0.2,0-0.3-0.1-0.4-0.2
				c-0.1-0.2-0.1-0.3,0-0.5l1.7-2.5c0.1-0.1,0.2-0.2,0.4-0.2c0.2,0,0.3,0.1,0.4,0.2l1.7,2.5c0.1,0.1,0.1,0.3,0,0.5
				c-0.1,0.1-0.2,0.2-0.4,0.2l0.8,1c0.1,0.1,0.1,0.3,0,0.5s-0.3,0.2-0.4,0.2h-0.1l1,1.5c0.1,0.2,0.1,0.4,0,0.5
				c-0.1,0.2-0.3,0.2-0.5,0.2l-1.3-0.2v1.4c0,0.1-0.1,0.3-0.2,0.3C32.5,43.1,32.4,43.2,32.3,43.2z M31.5,42.2L31.5,42.2h0.3v-1.5
				c0-0.1,0.1-0.3,0.2-0.4c0.1-0.1,0.2-0.1,0.4-0.1l0.7,0.1l-1-1.5c-0.1-0.1-0.1-0.3,0-0.5s0.3-0.2,0.4-0.2l0,0l-0.7-0.9
				c-0.1-0.1-0.1-0.3,0-0.5s0.2-0.3,0.4-0.2l0,0l-0.8-1.2l-0.8,1.2l0,0c0.2,0,0.3,0.1,0.4,0.2c0.1,0.2,0.1,0.3,0,0.5l-0.7,0.9l0,0
				c0.2,0,0.3,0.1,0.4,0.2c0.1,0.2,0.1,0.3,0,0.5l-1,1.5l0.7-0.1c0.1,0,0.3,0,0.4,0.1s0.2,0.2,0.2,0.4v1.5H31.5L31.5,42.2z"/>
		</g>
	</g>
	<g>
		<defs>
			<path id="SVGID_86_" d="M9.3,9.2v21.2c0,3.3,1.1,6.4,3.4,8.8c3.1,3.2,7.8,4.6,12.2,4.6c8,0,15.6-4.6,15.6-13.3V9.2H9.3z"/>
		</defs>
		<clipPath id="SVGID_87_">
			<use xlink:href="#SVGID_86_"  style="overflow:visible;"/>
		</clipPath>
		<g class="st44">
			<polygon class="st40" points="31.5,34.6 33.2,37 32.3,37 33.6,38.8 32.5,38.7 34.1,41 32.3,40.7 32.3,42.7 31.5,42.6 30.7,42.7 
				30.7,40.7 28.9,41 30.5,38.7 29.4,38.8 30.7,37 29.8,37 			"/>
		</g>
	</g>
	<g>
		<defs>
			<path id="SVGID_88_" d="M9.3,9.2v21.2c0,3.3,1.1,6.4,3.4,8.8c3.1,3.2,7.8,4.6,12.2,4.6c8,0,15.6-4.6,15.6-13.3V9.2H9.3z"/>
		</defs>
		<clipPath id="SVGID_89_">
			<use xlink:href="#SVGID_88_"  style="overflow:visible;"/>
		</clipPath>
		<g class="st45">
			<path class="st35" d="M20.6,45.2L20.6,45.2H20l-0.5,0.1c-0.1,0-0.2,0-0.3-0.1c-0.1-0.1-0.1-0.2-0.1-0.3v-1.1L18.2,44
				c-0.1,0-0.3,0-0.3-0.1c-0.1-0.1-0.1-0.3,0-0.4l0.8-1.1h-0.1c-0.1,0-0.3-0.1-0.3-0.2c-0.1-0.1-0.1-0.3,0-0.4l0.6-0.8
				c-0.1,0-0.2-0.1-0.3-0.2c-0.1-0.1-0.1-0.2,0-0.4l1.2-1.8c0.1-0.1,0.2-0.2,0.3-0.2c0.1,0,0.2,0.1,0.3,0.2l1.2,1.8
				c0.1,0.1,0.1,0.2,0,0.4c-0.1,0.1-0.2,0.2-0.3,0.2l0.6,0.8c0.1,0.1,0.1,0.3,0,0.4c-0.1,0.1-0.2,0.2-0.3,0.2h-0.1l0.8,1.1
				c0.1,0.1,0.1,0.3,0,0.4C22.1,44,22,44,21.8,44l-0.9-0.2v1.1c0,0.1,0,0.2-0.1,0.3C20.7,45.2,20.7,45.2,20.6,45.2z M20,44.5
				L20,44.5h0.2v-1.1c0-0.1,0-0.2,0.1-0.3s0.2-0.1,0.3-0.1l0.5,0.1L20.4,42c-0.1-0.1-0.1-0.3,0-0.4c0.1-0.1,0.2-0.2,0.3-0.2l0,0
				l-0.5-0.7c-0.1-0.1-0.1-0.2,0-0.4c0.1-0.1,0.2-0.2,0.3-0.2l0,0L20,39.5l-0.6,0.9l0,0c0.1,0,0.3,0.1,0.3,0.2c0.1,0.1,0,0.3,0,0.4
				l-0.5,0.7l0,0c0.1,0,0.3,0,0.3,0.2c0.1,0.1,0.1,0.3,0,0.4l-0.7,1.1l0.5-0.1c0.1,0,0.2,0,0.3,0.1c0.1,0.1,0.1,0.2,0.1,0.3v1.1
				L20,44.5L20,44.5z"/>
		</g>
	</g>
	<g>
		<defs>
			<path id="SVGID_90_" d="M9.3,9.2v21.2c0,3.3,1.1,6.4,3.4,8.8c3.1,3.2,7.8,4.6,12.2,4.6c8,0,15.6-4.6,15.6-13.3V9.2H9.3z"/>
		</defs>
		<clipPath id="SVGID_91_">
			<use xlink:href="#SVGID_90_"  style="overflow:visible;"/>
		</clipPath>
		<g class="st46">
			<polygon class="st47" points="20,38.9 18.8,40.7 19.4,40.7 18.5,42 19.3,41.9 18.1,43.7 19.4,43.4 19.4,44.9 20,44.8 20.6,44.9 
				20.6,43.4 21.9,43.7 20.7,41.9 21.6,42 20.6,40.7 21.2,40.7 			"/>
		</g>
	</g>
	<g>
		<defs>
			<path id="SVGID_92_" d="M9.3,9.2v21.2c0,3.3,1.1,6.4,3.4,8.8c3.1,3.2,7.8,4.6,12.2,4.6c8,0,15.6-4.6,15.6-13.3V9.2H9.3z"/>
		</defs>
		<clipPath id="SVGID_93_">
			<use xlink:href="#SVGID_92_"  style="overflow:visible;"/>
		</clipPath>
		<g class="st48">
			<path class="st35" d="M30.3,45.2L30.3,45.2l-0.6-0.1l-0.5,0.1c-0.1,0-0.2,0-0.3-0.1c-0.1-0.1-0.1-0.2-0.1-0.3v-1.1L27.9,44
				c-0.1,0-0.3,0-0.3-0.1c-0.1-0.1-0.1-0.3,0-0.4l0.8-1.1h-0.1c-0.1,0-0.3-0.1-0.3-0.2c-0.1-0.1-0.1-0.3,0-0.4l0.6-0.8
				c-0.1,0-0.2-0.1-0.3-0.2c-0.1-0.1-0.1-0.2,0-0.4l1.2-1.8c0.1-0.1,0.2-0.2,0.3-0.2c0.1,0,0.2,0.1,0.3,0.2l1.2,1.8
				c0.1,0.1,0.1,0.2,0,0.4C31.2,40.9,31.1,41,31,41l0.6,0.8c0.1,0.1,0.1,0.3,0,0.4c-0.1,0.1-0.2,0.2-0.3,0.2h-0.1l0.8,1.1
				c0.1,0.1,0.1,0.3,0,0.4C31.9,44,31.8,44,31.6,44l-0.9-0.2v1.1c0,0.1,0,0.2-0.1,0.3C30.5,45.2,30.4,45.2,30.3,45.2z M29.8,44.5
				L29.8,44.5H30v-1.1c0-0.1,0-0.2,0.1-0.3s0.2-0.1,0.3-0.1l0.5,0.1L30.2,42c-0.1-0.1-0.1-0.3,0-0.4c0.1-0.1,0.2-0.2,0.3-0.2l0,0
				L30,40.7c-0.1-0.1-0.1-0.2,0-0.4c0.1-0.1,0.2-0.2,0.3-0.2l0,0l-0.6-0.9l-0.6,0.9l0,0c0.1,0,0.3,0.1,0.3,0.2c0.1,0.1,0,0.3,0,0.4
				L29,41.6l0,0c0.1,0,0.3,0,0.3,0.2c0.1,0.1,0.1,0.3,0,0.4l-0.7,1.1l0.5-0.1c0.1,0,0.2,0,0.3,0.1c0.1,0.1,0.1,0.2,0.1,0.3v1.1
				L29.8,44.5L29.8,44.5z"/>
		</g>
	</g>
	<g>
		<defs>
			<path id="SVGID_94_" d="M9.3,9.2v21.2c0,3.3,1.1,6.4,3.4,8.8c3.1,3.2,7.8,4.6,12.2,4.6c8,0,15.6-4.6,15.6-13.3V9.2H9.3z"/>
		</defs>
		<clipPath id="SVGID_95_">
			<use xlink:href="#SVGID_94_"  style="overflow:visible;"/>
		</clipPath>
		<g class="st49">
			<polygon class="st47" points="29.8,38.9 31,40.7 30.3,40.7 31.3,42 30.5,41.9 31.7,43.7 30.3,43.4 30.3,44.9 29.8,44.8 
				29.2,44.9 29.2,43.4 27.9,43.7 29,41.9 28.2,42 29.2,40.7 28.5,40.7 			"/>
		</g>
	</g>
	<g>
		<defs>
			<path id="SVGID_96_" d="M9.3,9.2v21.2c0,3.3,1.1,6.4,3.4,8.8c3.1,3.2,7.8,4.6,12.2,4.6c8,0,15.6-4.6,15.6-13.3V9.2H9.3z"/>
		</defs>
		<clipPath id="SVGID_97_">
			<use xlink:href="#SVGID_96_"  style="overflow:visible;"/>
		</clipPath>
		<g class="st50">
			<path class="st51" d="M6.5,23.7c0.1,0,0.1-0.1,0-0.1l0,0l-0.3,0.1c-0.1,0-0.1,0.1,0,0.1l0,0L6.5,23.7z M7.1,23.5
				c0.1,0,0.1-0.1,0-0.1l0,0l-0.3,0.1c-0.1,0-0.1,0.1,0,0.1l0,0L7.1,23.5z M7.8,23.4c0.1,0,0.1-0.1,0-0.1l0,0l-0.3,0.1
				c-0.1,0-0.1,0.1,0,0.1l0,0L7.8,23.4z M8.5,23.3c0.1,0,0.1-0.1,0-0.1l0,0l-0.3,0.1c-0.1,0-0.1,0.1,0,0.1l0,0L8.5,23.3z M9.2,23.1
				c0.1,0,0.1-0.1,0-0.1l0,0H8.9c-0.1,0-0.1,0.1,0,0.1l0,0H9.2z M9.8,23c0.1,0,0.1-0.1,0-0.1l0,0L9.5,23c-0.1,0-0.1,0.1,0,0.1l0,0
				L9.8,23z M10.5,22.8c0.1,0,0.1-0.1,0-0.1l0,0l-0.3,0.1c-0.1,0-0.1,0.1,0,0.1l0,0L10.5,22.8z M11.2,22.7c0.1,0,0.1-0.1,0-0.1l0,0
				l-0.3,0.1c-0.1,0-0.1,0.1,0,0.1l0,0L11.2,22.7z M11.9,22.6c0.1,0,0.1-0.1,0-0.1l0,0l-0.3,0.1c-0.1,0-0.1,0.1,0,0.1l0,0L11.9,22.6
				z M12.5,22.4c0.1,0,0.1-0.1,0-0.1l0,0l-0.3,0.1c-0.1,0-0.1,0.1,0,0.1l0,0L12.5,22.4z M13.2,22.3c0.1,0,0.1-0.1,0-0.1l0,0
				l-0.3,0.1c-0.1,0-0.1,0.1,0,0.1l0,0L13.2,22.3z M13.9,22.1c0.1,0,0.1-0.1,0-0.1l0,0l-0.3,0.1c-0.1,0-0.1,0.1,0,0.1l0,0L13.9,22.1
				z M14.5,22c0.1,0,0.1-0.1,0-0.1l0,0L14.2,22c-0.1,0-0.1,0.1,0,0.1l0,0L14.5,22z M15.2,21.8c0.1,0,0.1-0.1,0-0.1l0,0l-0.3,0.1
				c-0.1,0-0.1,0.1,0,0.1l0,0L15.2,21.8z M15.9,21.7c0.1,0,0.1-0.1,0-0.1l0,0l-0.3,0.1c-0.1,0-0.1,0.1,0,0.1l0,0L15.9,21.7z
				 M16.6,21.6c0.1,0,0.1-0.1,0-0.1l0,0l-0.3,0.1c-0.1,0-0.1,0.1,0,0.1l0,0L16.6,21.6z M17.2,21.4c0.1,0,0.1-0.1,0-0.1l0,0l-0.3,0.1
				c-0.1,0-0.1,0.1,0,0.1l0,0L17.2,21.4z M17.9,21.3c0.1,0,0.1-0.1,0-0.1l0,0l-0.3,0.1c-0.1,0-0.1,0.1,0,0.1l0,0L17.9,21.3z
				 M18.6,21.1c0.1,0,0.1-0.1,0-0.1l0,0l-0.3,0.1c-0.1,0-0.1,0.1,0,0.1l0,0L18.6,21.1z M19.3,21c0.1,0,0.1-0.1,0-0.1l0,0H19
				c-0.1,0-0.1,0.1,0,0.1l0,0H19.3z M19.9,20.9c0.1,0,0.1-0.1,0-0.1l0,0l-0.3,0.1c-0.1,0-0.1,0.1,0,0.1l0,0L19.9,20.9z M20.6,20.7
				c0.1,0,0.1-0.1,0-0.1l0,0l-0.3,0.1c-0.1,0-0.1,0.1,0,0.1l0,0L20.6,20.7z M21.3,20.6c0.1,0,0.1-0.1,0-0.1l0,0H21
				c-0.1,0-0.1,0.1,0,0.1l0,0H21.3z M21.9,20.4c0.1,0,0.1-0.1,0-0.1l0,0l-0.3,0.1c-0.1,0-0.1,0.1,0,0.1l0,0L21.9,20.4z M22.6,20.3
				c0.1,0,0.1-0.1,0-0.1l0,0l-0.3,0.1c-0.1,0-0.1,0.1,0,0.1l0,0L22.6,20.3z M23.3,20.2c0.1,0,0.1-0.1,0-0.1l0,0H23
				c-0.1,0-0.1,0.1,0,0.1l0,0H23.3z M24,20c0.1,0,0.1-0.1,0-0.1l0,0L23.7,20c-0.1,0-0.1,0.1,0,0.1l0,0L24,20z M24.6,19.9
				c0.1,0,0.1-0.1,0-0.1l0,0l-0.3,0.1c-0.1,0-0.1,0.1,0,0.1l0,0L24.6,19.9z M25.3,19.7c0.1,0,0.1-0.1,0-0.1l0,0L25,19.7
				c-0.1,0-0.1,0.1,0,0.1l0,0L25.3,19.7z M26,19.6c0.1,0,0.1-0.1,0-0.1l0,0l-0.3,0.1c-0.1,0-0.1,0.1,0,0.1l0,0L26,19.6z M26.7,19.5
				c0.1,0,0.1-0.1,0-0.1l0,0l-0.3,0.1c-0.1,0-0.1,0.1,0,0.1l0,0L26.7,19.5z M27.3,19.3c0.1,0,0.1-0.1,0-0.1l0,0l-0.3,0
				c-0.1,0-0.1,0.1,0,0.1l0,0L27.3,19.3z M28,19.2c0.1,0,0.1-0.1,0-0.1l0,0l-0.3,0.1c-0.1,0-0.1,0.1,0,0.1l0,0L28,19.2z M28.7,19
				c0.1,0,0.1-0.1,0-0.1l0,0L28.4,19c-0.1,0-0.1,0.1,0,0.1l0,0L28.7,19z M29.4,18.9c0.1,0,0.1-0.1,0-0.1l0,0l-0.3,0.1
				c-0.1,0-0.1,0.1,0,0.1l0,0L29.4,18.9z M30,18.8c0.1,0,0.1-0.1,0-0.1l0,0l-0.3,0.1c-0.1,0-0.1,0.1,0,0.1l0,0L30,18.8z M30.7,18.6
				c0.1,0,0.1-0.1,0-0.1l0,0l-0.3,0.1c-0.1,0-0.1,0.1,0,0.1l0,0L30.7,18.6z M31.4,18.5c0.1,0,0.1-0.1,0-0.1l0,0l-0.3,0.1
				c-0.1,0-0.1,0.1,0,0.1l0,0L31.4,18.5z M32,18.3c0.1,0,0.1-0.1,0-0.1l0,0l-0.3,0.1c-0.1,0-0.1,0.1,0,0.1l0,0L32,18.3z M32.7,18.2
				c0.1,0,0.1-0.1,0-0.1l0,0l-0.3,0.1c-0.1,0-0.1,0.1,0,0.1l0,0L32.7,18.2z M33.4,18c0.1,0,0.1-0.1,0-0.1l0,0L33.1,18
				c-0.1,0-0.1,0.1,0,0.1l0,0L33.4,18z M34.1,17.9c0.1,0,0.1-0.1,0-0.1l0,0l-0.3,0.1c-0.1,0-0.1,0.1,0,0.1l0,0L34.1,17.9z
				 M34.7,17.8c0.1,0,0.1-0.1,0-0.1l0,0l-0.3,0.1c-0.1,0-0.1,0.1,0,0.1l0,0L34.7,17.8z M35.4,17.6c0.1,0,0.1-0.1,0-0.1l0,0l-0.3,0.1
				c-0.1,0-0.1,0.1,0,0.1l0,0L35.4,17.6z M36.1,17.5c0.1,0,0.1-0.1,0-0.1l0,0l-0.3,0.1c-0.1,0-0.1,0.1,0,0.1l0,0L36.1,17.5z
				 M36.8,17.3c0.1,0,0.1-0.1,0-0.1l0,0l-0.3,0.1c-0.1,0-0.1,0.1,0,0.1l0,0L36.8,17.3z M37.4,17.2c0.1,0,0.1-0.1,0-0.1l0,0l-0.3,0.1
				c-0.1,0-0.1,0.1,0,0.1l0,0L37.4,17.2z M38.1,17.1c0.1,0,0.1-0.1,0-0.1l0,0h-0.3c-0.1,0-0.1,0.1,0,0.1l0,0H38.1z M38.8,16.9
				c0.1,0,0.1-0.1,0-0.1l0,0l-0.3,0.1c-0.1,0-0.1,0.1,0,0.1l0,0L38.8,16.9z M39.5,16.8c0.1,0,0.1-0.1,0-0.1l0,0l-0.3,0.1
				c-0.1,0-0.1,0.1,0,0.1l0,0L39.5,16.8z M40.1,16.6c0.1,0,0.1-0.1,0-0.1l0,0l-0.3,0.1c-0.1,0-0.1,0.1,0,0.1l0,0L40.1,16.6z
				 M40.8,16.5c0.1,0,0.1-0.1,0-0.1l0,0l-0.3,0.1c-0.1,0-0.1,0.1,0,0.1l0,0L40.8,16.5z M41.5,16.4c0.1,0,0.1-0.1,0-0.1l0,0l-0.3,0.1
				c-0.1,0-0.1,0.1,0,0.1l0,0L41.5,16.4z M42.1,16.2c0.1,0,0.1-0.1,0-0.1l0,0l-0.3,0.1c-0.1,0-0.1,0.1,0,0.1l0,0L42.1,16.2z
				 M42.8,16.1c0.1,0,0.1-0.1,0-0.1l0,0h-0.3c-0.1,0-0.1,0.1,0,0.1l0,0H42.8z M43.5,15.9c0.1,0,0.1-0.1,0-0.1l0,0l-0.3,0.1
				c-0.1,0-0.1,0.1,0,0.1l0,0L43.5,15.9z M44,15.8C44,15.9,44.1,15.9,44,15.8L44,15.8l0.1-0.1l0,0c0,0,0-0.1-0.1-0.1l0,0h-0.2
				c-0.1,0-0.1,0.1,0,0.1l0,0L44,15.8z M44.2,16.5C44.2,16.6,44.3,16.6,44.2,16.5L44.2,16.5l0.1-0.3c0-0.1-0.1-0.1-0.1,0l0,0V16.5z
				 M44.3,17.2C44.3,17.3,44.4,17.3,44.3,17.2L44.3,17.2l0.1-0.3c0-0.1-0.1-0.1-0.1,0l0,0V17.2z M44.4,17.8
				C44.4,17.9,44.5,17.9,44.4,17.8L44.4,17.8l0.1-0.3c0-0.1-0.1-0.1-0.1,0l0,0V17.8z M44.5,18.5C44.5,18.6,44.6,18.6,44.5,18.5
				L44.5,18.5l0.1-0.3c0-0.1-0.1-0.1-0.1,0l0,0V18.5z M44.7,19.2C44.7,19.3,44.8,19.3,44.7,19.2L44.7,19.2l0.1-0.3
				c0-0.1-0.1-0.1-0.1,0l0,0V19.2z M44.8,19.9C44.8,20,44.9,20,44.8,19.9L44.8,19.9l0.1-0.3c0-0.1-0.1-0.1-0.1,0l0,0V19.9z
				 M44.9,20.6C44.9,20.7,45,20.7,44.9,20.6L44.9,20.6l0.1-0.3c0-0.1-0.1-0.1-0.1,0l0,0V20.6z M45,21.2C45,21.3,45.1,21.3,45,21.2
				L45,21.2l0.1-0.3c0-0.1-0.1-0.1-0.1,0l0,0V21.2z M45.1,21.9C45.1,22,45.2,22,45.1,21.9L45.1,21.9l0.1-0.3c0-0.1-0.1-0.1-0.1,0
				l0,0V21.9z M45.3,22.6C45.3,22.7,45.4,22.7,45.3,22.6L45.3,22.6l0.1-0.3c0-0.1-0.1-0.1-0.1,0l0,0V22.6z M45.4,23.3
				C45.4,23.4,45.5,23.4,45.4,23.3L45.4,23.3l0.1-0.3c0-0.1-0.1-0.1-0.1,0l0,0V23.3z M45.3,23.6C45.2,23.6,45.2,23.7,45.3,23.6
				c-0.1,0.1,0,0.1,0,0.1l0,0l0,0l0,0l0,0l0,0l0,0l0,0l0,0l0,0l0,0l0,0l0,0l0,0l0,0l0,0l0,0l0,0l0,0l0,0l0,0l0,0l0,0l0,0l0,0l0,0
				l0,0l0,0V23.6L45.3,23.6C45.4,23.5,45.3,23.5,45.3,23.6L45.3,23.6L45.3,23.6L45.3,23.6L45.3,23.6L45.3,23.6L45.3,23.6L45.3,23.6
				L45.3,23.6L45.3,23.6L45.3,23.6L45.3,23.6L45.3,23.6L45.3,23.6L45.3,23.6L45.3,23.6L45.3,23.6L45.3,23.6L45.3,23.6z M44.6,23.7
				c-0.1,0-0.1,0.1,0,0.1l0,0l0,0l0,0l0,0l0,0l0,0l0,0l0,0l0,0l0,0l0,0C44.7,23.8,44.7,23.7,44.6,23.7L44.6,23.7L44.6,23.7
				L44.6,23.7L44.6,23.7L44.6,23.7L44.6,23.7L44.6,23.7L44.6,23.7L44.6,23.7L44.6,23.7L44.6,23.7z M43.9,23.8c-0.1,0-0.1,0.1,0,0.1
				l0,0l0,0l0,0l0,0l0,0l0,0l0,0l0,0l0,0C44,23.9,44,23.8,43.9,23.8L43.9,23.8L43.9,23.8L43.9,23.8L43.9,23.8L43.9,23.8L43.9,23.8
				L43.9,23.8L43.9,23.8L43.9,23.8z M43.2,23.9c-0.1,0-0.1,0.1,0,0.1l0,0l0,0l0,0l0,0l0,0l0,0l0,0l0,0C43.3,24,43.3,23.9,43.2,23.9
				L43.2,23.9L43.2,23.9L43.2,23.9L43.2,23.9L43.2,23.9L43.2,23.9L43.2,23.9L43.2,23.9z M42.5,24L42.5,24c-0.1,0.1,0,0.1,0,0.1l0,0
				h0.1h0.1h0.1h0.1l0,0c0.1,0,0.1-0.1,0-0.1l0,0l0,0h-0.1h-0.1H42.5L42.5,24L42.5,24z M41.9,24.1c-0.1,0-0.1,0.1,0,0.1l0,0l0,0H42
				h0.1h0.1h0.1l0,0c0.1,0,0.1-0.1,0-0.1l0,0l0,0h-0.1h-0.1H41.9L41.9,24.1L41.9,24.1z M41.2,24.2c-0.1,0-0.1,0.1,0,0.1l0,0l0,0h0.1
				h0.1h0.1h0.1l0,0c0.1,0,0.1-0.1,0-0.1c0,0,0,0-0.1,0l0,0h-0.1H41.2L41.2,24.2L41.2,24.2L41.2,24.2z M40.5,24.3
				c-0.1,0-0.1,0.1,0,0.1l0,0l0,0h0.1h0.1h0.1l0,0c0.1,0,0.1-0.1,0-0.1l0,0l0,0h-0.1H40.5L40.5,24.3L40.5,24.3z M39.8,24.4
				L39.8,24.4c-0.1,0.1,0,0.1,0,0.1l0,0h0.1H40h0.1h0.1l0,0c0.1,0,0.1-0.1,0-0.1l0,0l0,0h-0.1H40H39.8L39.8,24.4L39.8,24.4z
				 M39.1,24.5L39.1,24.5c-0.1,0.1,0,0.1,0,0.1l0,0h0.1h0.1h0.1h0.1l0,0c0.1,0,0.1-0.1,0-0.1l0,0l0,0h-0.1h-0.1H39.1L39.1,24.5
				L39.1,24.5z M38.5,24.6c-0.1,0-0.1,0.1,0,0.1l0,0l0,0h0.1h0.1h0.1h0.1c0.1,0,0.1-0.1,0-0.1l0,0h-0.1h-0.1H38.5L38.5,24.6
				L38.5,24.6z M37.8,24.7C37.7,24.7,37.7,24.7,37.8,24.7c-0.1,0.1,0,0.1,0,0.1h0.1H38h0.1h0.1l0,0c0,0,0.1,0,0.1-0.1
				c0,0,0-0.1-0.1-0.1l0,0h-0.1H38L37.8,24.7L37.8,24.7z M37.1,24.8C37.1,24.8,37,24.8,37.1,24.8c-0.1,0.1,0,0.1,0,0.1l0,0h0.1h0.1
				h0.1h0.1l0,0c0.1,0,0.1-0.1,0-0.1l0,0l0,0h-0.1h-0.1H37.1L37.1,24.8L37.1,24.8z M36.4,24.9c-0.1,0-0.1,0.1,0,0.1l0,0h0.1h0.1h0.1
				h0.1l0,0c0.1,0,0.1-0.1,0-0.1l0,0h-0.1h-0.1H36.4L36.4,24.9L36.4,24.9z M35.7,25c-0.1,0-0.1,0.1,0,0.1l0,0l0,0h0.1h0.1H36h0.1
				l0,0c0.1,0,0.1-0.1,0-0.1l0,0H36h-0.1H35.7L35.7,25L35.7,25z M35.1,25.1c-0.1,0-0.1,0.1,0,0.1c0,0,0,0,0.1,0l0,0l0,0l0,0l0,0l0,0
				l0,0C35.3,25.2,35.3,25.1,35.1,25.1L35.1,25.1L35.1,25.1L35.1,25.1L35.1,25.1L35.1,25.1L35.1,25.1L35.1,25.1z M34.4,25.2
				c-0.1,0-0.1,0.1,0,0.1l0,0l0,0l0,0l0,0l0,0l0,0l0,0l0,0l0,0C34.5,25.3,34.5,25.2,34.4,25.2L34.4,25.2L34.4,25.2L34.4,25.2
				L34.4,25.2L34.4,25.2L34.4,25.2L34.4,25.2L34.4,25.2L34.4,25.2z M33.7,25.4c-0.1,0-0.1,0.1,0,0.1l0,0l0,0l0,0l0,0l0,0l0,0l0,0
				l0,0l0,0l0,0C33.8,25.5,33.8,25.4,33.7,25.4L33.7,25.4L33.7,25.4L33.7,25.4L33.7,25.4L33.7,25.4L33.7,25.4L33.7,25.4L33.7,25.4
				L33.7,25.4L33.7,25.4z M33,25.5c-0.1,0-0.1,0.1,0,0.1l0,0l0,0l0,0l0,0l0,0l0,0l0,0l0,0l0,0l0,0C33.1,25.6,33.1,25.5,33,25.5
				L33,25.5L33,25.5L33,25.5L33,25.5L33,25.5L33,25.5L33,25.5L33,25.5L33,25.5L33,25.5z M32.4,25.7C32.3,25.7,32.3,25.7,32.4,25.7
				c-0.1,0.1,0,0.2,0,0.1l0,0l0,0l0,0l0,0l0,0l0,0l0,0l0,0l0,0l0,0C32.4,25.8,32.5,25.8,32.4,25.7c0,0,0-0.1-0.1-0.1l0,0l0,0l0,0
				l0,0l0,0L32.4,25.7L32.4,25.7L32.4,25.7L32.4,25.7L32.4,25.7z M31.7,26c-0.1,0,0,0.2,0,0.1l0,0l0,0l0,0l0,0l0,0l0,0l0,0l0,0l0,0
				l0,0l0,0l0,0C31.7,26.1,31.7,26.1,31.7,26c0,0-0.1-0.1-0.1,0l0,0l0,0l0,0l0,0l0,0l0,0H31.7L31.7,26L31.7,26L31.7,26L31.7,26z
				 M31.1,26.2c-0.1,0,0,0.2,0.1,0.1l0,0l0,0l0,0l0,0l0,0l0,0l0,0l0,0l0,0l0,0l0,0l0,0l0,0c0.1,0,0-0.1,0-0.1l0,0l0,0l0,0l0,0l0,0
				l0,0l0,0l0,0H31.1L31.1,26.2L31.1,26.2L31.1,26.2L31.1,26.2L31.1,26.2z M30.5,26.6c-0.1,0,0,0.2,0.1,0.1l0,0l0,0l0,0l0,0l0,0l0,0
				l0,0l0,0l0,0l0,0l0,0l0,0l0,0l0,0l0,0C30.7,26.7,30.6,26.5,30.5,26.6L30.5,26.6L30.5,26.6L30.5,26.6L30.5,26.6L30.5,26.6
				L30.5,26.6L30.5,26.6L30.5,26.6L30.5,26.6L30.5,26.6L30.5,26.6L30.5,26.6L30.5,26.6L30.5,26.6z M30,27.1c-0.1,0.1,0,0.2,0.1,0.1
				C30,27.2,30,27.2,30,27.1l0.1,0.1l0,0l0,0l0,0l0,0l0,0l0,0l0,0l0,0l0,0l0,0l0,0l0,0l0,0l0,0c0,0,0,0,0-0.1S30,27,30,27.1L30,27.1
				L30,27.1L30,27.1L30,27.1L30,27.1L30,27.1L30,27.1L30,27.1L30,27.1L30,27.1L30,27.1L30,27.1L30,27.1L30,27.1L30,27.1z M29.5,27.6
				c0,0.1,0,0.1,0.1,0.1l0,0l0,0l0,0l0,0l0,0l0,0l0,0l0,0l0,0l0,0l0,0l0,0l0,0l0,0l0,0l0,0l0,0l0,0C29.7,27.6,29.6,27.5,29.5,27.6
				L29.5,27.6L29.5,27.6L29.5,27.6L29.5,27.6L29.5,27.6L29.5,27.6L29.5,27.6L29.5,27.6L29.5,27.6L29.5,27.6L29.5,27.6L29.5,27.6
				L29.5,27.6L29.5,27.6L29.5,27.6L29.5,27.6L29.5,27.6L29.5,27.6z M29.2,28.2c0,0.1,0.1,0.1,0.1,0.1l0,0l0,0l0,0l0,0l0,0l0,0l0,0
				l0,0l0,0l0,0l0,0l0,0l0,0l0,0l0,0l0,0l0,0l0,0l0,0l0,0c0,0,0,0,0-0.1H29.2L29.2,28.2L29.2,28.2L29.2,28.2L29.2,28.2L29.2,28.2
				L29.2,28.2L29.2,28.2L29.2,28.2L29.2,28.2L29.2,28.2L29.2,28.2L29.2,28.2L29.2,28.2L29.2,28.2L29.2,28.2L29.2,28.2L29.2,28.2
				L29.2,28.2L29.2,28.2z M28.9,28.8c0,0.1,0.1,0.1,0.1,0l0,0l0,0l0,0l0,0l0,0l0,0l0,0l0,0l0,0l0,0l0,0l0,0l0,0l0,0l0,0l0,0l0,0l0,0
				l0,0l0,0l0,0l0,0l0,0c0-0.1-0.1-0.1-0.1-0.1l0,0l0,0l0,0l0,0l0,0l0,0l0,0l0,0l0,0l0,0l0,0l0,0l0,0l0,0V28.8L28.9,28.8L28.9,28.8
				L28.9,28.8L28.9,28.8L28.9,28.8L28.9,28.8L28.9,28.8L28.9,28.8z M28.7,29.5c0,0.1,0.1,0.1,0.1,0l0,0l0,0l0,0l0,0l0,0l0,0l0,0l0,0
				l0,0l0,0l0,0l0,0l0,0l0,0l0,0l0,0l0,0l0,0l0,0l0,0l0,0l0,0l0,0l0,0l0,0l0,0l0,0l0,0l0,0c0-0.1-0.1-0.1-0.1-0.1l0,0l0,0l0,0l0,0
				l0,0l0,0l0,0l0,0l0,0l0,0l0,0l0,0l0,0l0,0l0,0l0,0l0,0V29.5L28.7,29.5L28.7,29.5L28.7,29.5L28.7,29.5L28.7,29.5L28.7,29.5
				L28.7,29.5L28.7,29.5L28.7,29.5L28.7,29.5L28.7,29.5z M28.5,30.2L28.5,30.2c0.1,0.1,0.1,0.1,0.1,0s0-0.2,0.1-0.3
				c0-0.1-0.1-0.1-0.1,0l0,0C28.6,30,28.6,30.1,28.5,30.2z M28.1,30.6L28.1,30.6c0,0.1,0,0.1,0.1,0.1l0.2-0.2l0,0
				c0-0.1-0.1-0.1-0.1-0.1L28.1,30.6z M27.5,31L27.5,31c0,0.1,0,0.1,0.1,0.1l0.2-0.2l0,0c0-0.1-0.1-0.1-0.1-0.1L27.5,31z M27.1,31.3
				C27,31.3,26.9,31.3,27.1,31.3L27.1,31.3v0.2l0,0l0,0h0.1l0.1-0.1l0,0c0-0.1-0.1-0.1-0.1-0.1H27.1L27.1,31.3z M26.6,30.8
				C26.5,30.8,26.4,30.9,26.6,30.8L26.6,30.8l0.1,0.3c0.1,0.1,0.2,0,0.1-0.1l0,0L26.6,30.8z M26.1,30.4C26,30.3,25.9,30.4,26.1,30.4
				L26.1,30.4l0.1,0.3c0.1,0.1,0.2,0,0.1-0.1l0,0L26.1,30.4z M25.6,29.9C25.5,29.8,25.4,29.9,25.6,29.9L25.6,29.9l0.1,0.3
				c0.1,0.1,0.2,0,0.1-0.1l0,0L25.6,29.9z M24.9,29.8c-0.1,0-0.1,0.1,0,0.1l0,0l0,0l0,0l0,0l0,0l0,0l0,0l0,0l0,0l0,0
				C25,29.9,25,29.8,24.9,29.8L24.9,29.8L24.9,29.8L24.9,29.8L24.9,29.8L24.9,29.8L24.9,29.8L24.9,29.8L24.9,29.8L24.9,29.8
				L24.9,29.8z M24.3,30c-0.1,0-0.1,0.1,0,0.1l0,0l0,0h0.1h0.1h0.1h0.1l0,0c0,0,0.1,0,0-0.1c0,0,0-0.1-0.1-0.1l0,0h-0.1h-0.1h-0.1
				V30L24.3,30z M23.6,30.2c-0.1,0-0.1,0.1,0,0.1l0,0l0,0h0.1h0.1h0.1l0,0c0.1,0,0.1-0.1,0-0.1l0,0l0,0h-0.1H23.6L23.6,30.2
				L23.6,30.2z M22.9,30.4c-0.1,0,0,0.2,0,0.1l0,0H23h0.1h0.1l0,0c0.1,0,0-0.2,0-0.1l0,0l0,0h-0.1H22.9L22.9,30.4z M22.3,30.6
				c-0.1,0,0,0.2,0,0.1l0,0h0.1h0.1h0.1l0,0c0.1,0,0-0.2,0-0.1l0,0l0,0h-0.1H22.3L22.3,30.6z M21.6,30.8c-0.1,0-0.1,0.1,0,0.1
				c0,0,0,0,0.1,0h0.1h0.1H22c0.1,0,0-0.2,0-0.1l0,0h-0.1H21.6L21.6,30.8z M21,31c-0.1,0-0.1,0.2,0,0.1l0,0h0.1h0.1h0.1
				c0.1,0,0.1-0.2,0-0.1l0,0h-0.1H21L21,31z M20.3,31.2c-0.1,0-0.1,0.2,0,0.1l0,0l0,0h0.1h0.1l0,0c0.1,0,0.1-0.2,0-0.1l0,0l0,0h-0.1
				H20.3L20.3,31.2z M19.7,31.4c-0.1,0-0.1,0.2,0,0.1l0,0l0,0h0.1h0.1l0,0c0.1,0,0.1-0.2,0-0.1l0,0l0,0h-0.1H19.7L19.7,31.4z
				 M19,31.6c-0.1,0-0.1,0.1,0,0.1c0,0,0,0,0.1,0l0,0h0.1h0.1c0.1,0,0.1-0.1,0-0.1c0,0,0,0-0.1,0h-0.1H19L19,31.6z M18.3,31.8
				c-0.1,0-0.1,0.1,0,0.1c0,0,0,0,0.1,0l0,0h0.1h0.1l0,0c0.1,0,0.1-0.1,0-0.1c0,0,0,0-0.1,0l0,0h-0.1H18.3L18.3,31.8z M17.7,32.1
				C17.6,32.1,17.6,32.3,17.7,32.1L17.7,32.1L17.7,32.1l0.1,0.1h0.1l0,0c0.1,0,0.1-0.2,0-0.1l0,0l0,0h-0.1H17.7L17.7,32.1z M17,32.3
				C16.9,32.3,16.9,32.5,17,32.3L17,32.3l0.1,0.1h0.1h0.1c0.1,0,0.1-0.2,0-0.1l0,0h-0.1H17L17,32.3z M16.4,32.5
				C16.3,32.5,16.3,32.7,16.4,32.5L16.4,32.5L16.4,32.5l0.1,0.1h0.1c0.1,0,0.1-0.1,0-0.1l0,0h-0.1H16.4L16.4,32.5z M15.7,32.7
				C15.6,32.7,15.6,32.8,15.7,32.7L15.7,32.7l0.1,0.1h0.1l0,0c0.1,0,0.1-0.1,0-0.1l0,0l0,0H15.7L15.7,32.7z M15.1,32.9
				C15,32.9,15,33,15.1,32.9L15.1,32.9L15.1,32.9l0.1,0.1h0.1c0.1,0,0.1-0.1,0-0.1l0,0h-0.1H15.1L15.1,32.9z M14.4,33.1
				C14.3,33.1,14.3,33.2,14.4,33.1L14.4,33.1l0.1,0.1h0.1l0,0c0.1,0,0.1-0.1,0-0.1l0,0l0,0h-0.1H14.4z M13.7,33.3
				C13.6,33.3,13.6,33.4,13.7,33.3L13.7,33.3l0.1,0.1h0.1H14c0.1,0,0.1-0.1,0-0.1l0,0h-0.1H13.7L13.7,33.3z M13.1,33.5
				C13,33.5,13,33.6,13.1,33.5L13.1,33.5L13.1,33.5l0.1,0.1h0.1l0,0c0.1,0,0.1-0.1,0-0.1l0,0l0,0h-0.1H13.1L13.1,33.5z M12.4,33.7
				C12.3,33.7,12.3,33.8,12.4,33.7L12.4,33.7l0.1,0.1h0.1h0.1c0.1,0,0.1-0.1,0-0.1l0,0h-0.1H12.4L12.4,33.7z M11.8,33.9
				C11.7,33.9,11.7,34,11.8,33.9L11.8,33.9l0.1,0.1H12h0.1c0.1,0,0.1-0.1,0-0.1l0,0H12H11.8L11.8,33.9z M11.1,34.1
				C11,34.1,11,34.2,11.1,34.1L11.1,34.1L11.1,34.1l0.1,0.1h0.1c0.1,0,0.1-0.1,0-0.1l0,0h-0.1H11.1L11.1,34.1z M10.5,34.3
				C10.4,34.3,10.4,34.4,10.5,34.3L10.5,34.3L10.5,34.3l0.1,0.1h0.1c0.1,0,0.1-0.1,0-0.1l0,0h-0.1H10.5L10.5,34.3z M9.8,34.5
				C9.7,34.5,9.8,34.7,9.8,34.5L9.8,34.5l0.1,0.1H10h0.1c0.1,0,0.1-0.1,0-0.1l0,0H10H9.8L9.8,34.5z M9.2,34.7
				C9.1,34.7,9.2,34.9,9.2,34.7L9.2,34.7L9.2,34.7l0.1,0.1h0.1l0,0c0.1,0,0-0.2,0-0.1l0,0l0,0H9.3H9.2L9.2,34.7z M8.5,34.9
				C8.4,34.9,8.5,35.1,8.5,34.9L8.5,34.9L8.5,34.9L8.6,35h0.1h0.1c0.1,0,0-0.2,0-0.1l0,0H8.7H8.6H8.5L8.5,34.9z M7.8,35.1
				C7.7,35.1,7.8,35.3,7.8,35.1L7.8,35.1L7.8,35.1L7.8,35.1L8,35.2l0,0c0.1,0,0-0.2,0-0.1l0,0l0,0H7.8L7.8,35.1L7.8,35.1z M7.2,35.3
				C7.1,35.3,7.2,35.5,7.2,35.3L7.2,35.3L7.2,35.3L7.2,35.3l0.2,0.1h0.1c0.1,0,0-0.2,0-0.1l0,0H7.4H7.2L7.2,35.3L7.2,35.3z
				 M6.5,35.5C6.4,35.5,6.5,35.7,6.5,35.5L6.5,35.5L6.5,35.5l0.2,0.1h0.1h0.1l0,0c0.1,0,0-0.2,0-0.1l0,0l0,0H6.8H6.7H6.5L6.5,35.5z
				 M5.9,35.7C5.8,35.7,5.8,35.8,5.9,35.7L5.9,35.7L5.9,35.7L5.9,35.7l0.2,0.1h0.1h0.1c0.1,0,0-0.2,0-0.1l0,0H6.2H6.1H5.9L5.9,35.7
				L5.9,35.7z M5.2,35.9C5.1,35.9,5.2,36.1,5.2,35.9L5.2,35.9L5.2,35.9L5.2,35.9L5.2,35.9L5.2,35.9L5.2,35.9L5.2,35.9L5.2,35.9
				L5.2,35.9L5.2,35.9C5.3,36,5.2,35.8,5.2,35.9L5.2,35.9L5.2,35.9L5.2,35.9L5.2,35.9L5.2,35.9L5.2,35.9L5.2,35.9L5.2,35.9L5.2,35.9
				L5.2,35.9z M5.5,23.7c-0.1,0-0.1,0.1,0,0.1l0,0l0.3-0.1c0.1,0,0.1-0.1,0-0.1l0,0L5.5,23.7z"/>
		</g>
	</g>
</g>
<g class="st52">
	<path class="st53" d="M34.7,27.8c2.5,0,4.6,2.1,4.6,4.6S37.2,37,34.7,37s-4.6-2.1-4.6-4.6S32.1,27.8,34.7,27.8"/>
</g>
<g>
	<path class="st54" d="M26.2,38.1l4.3,4.3c0.7,0.7,0.7,1.8,0,2.5l-4.3,4.3c-0.7,0.7-1.8,0.7-2.5,0l-4.3-4.3c-0.7-0.7-0.7-1.8,0-2.5
		l4.3-4.3C24.4,37.4,25.5,37.4,26.2,38.1"/>
</g>
<g>
	<g>
		<defs>
			<path id="SVGID_98_" d="M26.2,38.1l4.3,4.3c0.7,0.7,0.7,1.8,0,2.5l-4.3,4.3c-0.7,0.7-1.8,0.7-2.5,0l-4.3-4.3
				c-0.7-0.7-0.7-1.8,0-2.5l4.3-4.3C24.4,37.4,25.5,37.4,26.2,38.1"/>
		</defs>
		<clipPath id="SVGID_99_">
			<use xlink:href="#SVGID_98_"  style="overflow:visible;"/>
		</clipPath>
		<g class="st55">
			<path class="st23" d="M22.9,50.4c-1.2-1.1-3.2-4.1-4-5.5c-0.8-1.3,0-1.9,2.2-2c2.2,0,3.2,0.2,3.5,0.2s0.9,0.3,1.5,0.2
				s1-0.2,1.3-0.2s0.8,0.2,1,0.3c0.2,0,0.5,0.1,0.7,0.1s0.9-0.1,1.1-0.4c0.2-0.3-0.2-0.9-0.6-1.5c-0.4-0.5,1.9,0.1,2.4,0.8
				c0.5,0.6,0.8,4-0.3,5.5c-1.1,1.5-0.7,0.9-1.7,0.3c-1-0.5-1.9-1.1-1.3-1.7c0.6-0.5,0-0.7-1.3,0.6s-1.5,1.9-1,1.6
				c0.5-0.3,1.3,0.3,0.5,1c-0.8,0.8-2,0.5-2.3,0.3s-1.9-1.8-1.5-1.7c0.4,0.2,0.6,0.1,0-0.6c-0.7-0.7-2.2-2.6-2.8-3.2
				c-0.6-0.6-0.4-0.8-0.2-0.9c0.2-0.2-0.4-0.4-0.6,0.3s1.5,3,2.4,4C22.8,49.2,22.9,50.4,22.9,50.4"/>
		</g>
	</g>
</g>
<g>
	<path class="st20" d="M26.1,42.7c0-0.1-0.4,0.1-0.4,0.1s0.2,0.1,0.3,0.1c0.1,0,0-0.1,0-0.1C26,42.7,26.1,42.7,26.1,42.7 M25.5,38.9
		l4.1,4.1c0.3,0.3,0.3,0.9,0,1.2l-4.1,4.1c-0.3,0.3-0.9,0.3-1.2,0c-1.3-1.3-2-1.8-0.5-3.2c0.9-0.8,2.5-0.6,3.2-0.9s0.7-0.9,0.7-1
		s0-0.1-0.4-0.2c-0.3,0-0.6-0.1-0.6-0.2c0-0.1-0.1-0.3-0.5-0.5c-0.5-0.2-0.8-0.2-0.8-0.5c0-0.2-0.2-0.4-0.5-0.5s-0.5,0-0.7,0.2
		c-0.1,0.2-0.2,0.3-0.5,0.1s-0.8-0.3-1.3-0.2c-0.4,0.1-0.6-0.1-0.5-0.4c0-0.1,0.1-0.1,0.1-0.2l2.1-2.1
		C24.7,38.5,25.2,38.5,25.5,38.9z"/>
</g>
<g>
	<path class="st20" d="M34,26.4c2.5,0,4.6,2.1,4.6,4.6s-2.1,4.6-4.6,4.6s-4.6-2.1-4.6-4.6S31.5,26.4,34,26.4"/>
</g>
<g>
	<polygon class="st20" points="35.1,28.2 41.5,27.3 41.1,28.1 34.7,29.1 	"/>
</g>
<g>
	<polygon class="st20" points="32.5,28 39,27.1 38.6,27.9 32.1,28.9 	"/>
</g>
<g>
	<path class="st54" d="M35.1,27.6c0,0-0.6,1.5-0.7,1.8c-0.1,0.3-0.2,0.4-0.6,0.4c-0.4,0-1.4,0.2-2.1,0.5c-0.7,0.2-1.1,0.5-1.2,0.5
		s-0.2-0.1-0.3-0.5c-0.1-0.4,0.2-1.3,1-2C32.1,27.6,33.3,27,35.1,27.6"/>
</g>
<g>
	<path class="st54" d="M35.5,27.8c0,0-0.8,1.9-0.8,2.1c0.1,0.2,0.5,0.8,1,1.8c0.5,1,0.5,1.5,0.5,1.6c0,0.1,0.6,0,0.9-0.6
		c0.3-0.6,0.6-1.6,0.2-2.7C37,28.8,36.4,28.2,35.5,27.8"/>
</g>
<g>
	<path class="st54" d="M34,30.1c-0.3,0-2.1,0.4-2.8,0.7c-0.7,0.4-0.6,0.4-0.6,1s0.2,1.7,1.3,2.4c1.1,0.6,2.4,0.6,3.2,0.1
		s1-0.8,0.8-1.2C35.7,32.3,34.8,30.1,34,30.1"/>
</g>
<g>
	<path class="st54" d="M30,30.6c0,0.1,0,0.3,0.1,0.4c0.1,0.3,0.2,0.3,0.2,0.5s0,0.8,0.2,1.2c0.1,0.2,0.2,0.4,0.2,0.5
		c0.1,0.2,0.2,0.3,0,0s-0.6-0.9-0.7-1.6C29.8,31,29.9,30.7,30,30.6C30,30.2,30,30.4,30,30.6"/>
</g>
<g>
	<path class="st54" d="M36.1,33.7c0,0-0.2,0.4-0.8,0.7c-0.5,0.3-0.9,0.4-1.2,0.4c-0.2,0-0.2,0-0.2,0c0,0.1,0.2,0.1,0.5,0
		c0.4-0.1,1.2-0.3,1.6-0.6c0.7-0.5,0.8-0.8,0.6-0.7C36.6,33.6,36.3,33.7,36.1,33.7"/>
</g>
<g>
	<polygon class="st20" points="34.6,27.1 33.4,26.5 41.1,25.3 40.9,25.7 37.6,26.2 37.1,26.8 	"/>
</g>
<g>
	<path class="st20" d="M19.9,16.2c-0.1,0.3,0,0.8,0.3,1.2c0.3,0.5,0.7,0.8,1,0.8l-0.3,0.2c-0.3,0-0.7-0.3-1-0.8s-0.4-1-0.3-1.2
		L19.9,16.2z M20.1,16.1c0.2-0.1,0.7,0.2,1,0.7c0.4,0.5,0.5,1.1,0.2,1.3l0,0c0.2,0.5,0.1,0.9-0.1,1.1c-0.4,0.2-1.2-0.3-1.8-1.3
		C18.8,17,18.7,16,19,15.8S19.7,15.8,20.1,16.1L20.1,16.1z M13.6,19.2c-0.2,0.5,0,1.3,0.5,2.1c0.5,0.8,1.2,1.3,1.7,1.4l-0.6,0.4
		c-0.3,0-0.6-0.2-0.9-0.4l-0.1,0.1c-0.3,0-0.7-0.3-1-0.8s-0.4-1-0.3-1.3l0.1-0.1c-0.1-0.4-0.1-0.7,0-1L13.6,19.2z M18.7,16
		c-0.2,0.5,0,1.3,0.5,2.1c0.5,0.8,1.2,1.3,1.7,1.4l-0.6,0.4c-0.4,0-1-0.4-1.4-1L16,20.7c0.4,0.8,0.5,1.5,0.2,1.8
		c-0.4,0.2-1.2-0.3-1.8-1.3c-0.6-0.9-0.8-1.9-0.4-2.2c0.3-0.2,1,0.2,1.5,0.9l2.8-1.8c-0.3-0.7-0.5-1.3-0.3-1.7L18.7,16z"/>
</g>
<g>
	<g>
		<defs>
			<path id="SVGID_100_" d="M19.9,16.2c-0.1,0.3,0,0.8,0.3,1.2c0.3,0.5,0.7,0.8,1,0.8l-0.3,0.2c-0.3,0-0.7-0.3-1-0.8s-0.4-1-0.3-1.2
				L19.9,16.2z M20.1,16.1c0.2-0.1,0.7,0.2,1,0.7c0.4,0.5,0.5,1.1,0.2,1.3l0,0c0.2,0.5,0.1,0.9-0.1,1.1c-0.4,0.2-1.2-0.3-1.8-1.3
				C18.8,17,18.7,16,19,15.8S19.7,15.8,20.1,16.1L20.1,16.1z M13.6,19.2c-0.2,0.5,0,1.3,0.5,2.1c0.5,0.8,1.2,1.3,1.7,1.4l-0.6,0.4
				c-0.3,0-0.6-0.2-0.9-0.4l-0.1,0.1c-0.3,0-0.7-0.3-1-0.8s-0.4-1-0.3-1.3l0.1-0.1c-0.1-0.4-0.1-0.7,0-1L13.6,19.2z M18.7,16
				c-0.2,0.5,0,1.3,0.5,2.1c0.5,0.8,1.2,1.3,1.7,1.4l-0.6,0.4c-0.4,0-1-0.4-1.4-1L16,20.7c0.4,0.8,0.5,1.5,0.2,1.8
				c-0.4,0.2-1.2-0.3-1.8-1.3c-0.6-0.9-0.8-1.9-0.4-2.2c0.3-0.2,1,0.2,1.5,0.9l2.8-1.8c-0.3-0.7-0.5-1.3-0.3-1.7L18.7,16z"/>
		</defs>
		<clipPath id="SVGID_101_">
			<use xlink:href="#SVGID_100_"  style="overflow:visible;"/>
		</clipPath>
		<g class="st56">
			<polygon class="st57" points="16.1,20.6 15.3,21.1 16.6,21.6 			"/>
		</g>
	</g>
	<g>
		<defs>
			<path id="SVGID_102_" d="M19.9,16.2c-0.1,0.3,0,0.8,0.3,1.2c0.3,0.5,0.7,0.8,1,0.8l-0.3,0.2c-0.3,0-0.7-0.3-1-0.8s-0.4-1-0.3-1.2
				L19.9,16.2z M20.1,16.1c0.2-0.1,0.7,0.2,1,0.7c0.4,0.5,0.5,1.1,0.2,1.3l0,0c0.2,0.5,0.1,0.9-0.1,1.1c-0.4,0.2-1.2-0.3-1.8-1.3
				C18.8,17,18.7,16,19,15.8S19.7,15.8,20.1,16.1L20.1,16.1z M13.6,19.2c-0.2,0.5,0,1.3,0.5,2.1c0.5,0.8,1.2,1.3,1.7,1.4l-0.6,0.4
				c-0.3,0-0.6-0.2-0.9-0.4l-0.1,0.1c-0.3,0-0.7-0.3-1-0.8s-0.4-1-0.3-1.3l0.1-0.1c-0.1-0.4-0.1-0.7,0-1L13.6,19.2z M18.7,16
				c-0.2,0.5,0,1.3,0.5,2.1c0.5,0.8,1.2,1.3,1.7,1.4l-0.6,0.4c-0.4,0-1-0.4-1.4-1L16,20.7c0.4,0.8,0.5,1.5,0.2,1.8
				c-0.4,0.2-1.2-0.3-1.8-1.3c-0.6-0.9-0.8-1.9-0.4-2.2c0.3-0.2,1,0.2,1.5,0.9l2.8-1.8c-0.3-0.7-0.5-1.3-0.3-1.7L18.7,16z"/>
		</defs>
		<clipPath id="SVGID_103_">
			<use xlink:href="#SVGID_102_"  style="overflow:visible;"/>
		</clipPath>
		<g class="st58">
			<path class="st59" d="M18.3,18c0.2,0.5,0.4,0.8,0.7,1c0.2,0.3,0.5,0.9,0.4,0.9c-0.1,0.1-3.6,1.1-2.9,0.5c0.8-0.6,0.7-1.4,0.4-1.3
				C16.6,19.1,18.3,18,18.3,18"/>
		</g>
	</g>
</g>
<g>
	<path class="st21" d="M11.4,6.2l13.5-1.5l13.5,1.5c0.1,0,0.2,0,0.3,0.1s0.1,0.1,0.1,0.2v2.2v1c0,0.1,0,0.2-0.1,0.2
		C38.6,10,38.5,10,38.4,10H24.9H11.4c-0.1,0-0.2,0-0.3-0.1S11,9.8,11,9.7v-1V6.5c0-0.1,0-0.2,0.1-0.2S11.3,6.3,11.4,6.2"/>
</g>
<g>
	<path class="st20" d="M28.1,25.3c0.2-0.2,0.3-0.3,0.3-0.5c-0.1,0.1-1.5,0.9-1.3,1l0,0h0.1C27.5,25.8,27.7,25.7,28.1,25.3
		 M22.1,25.8C22.1,25.9,22,25.9,22.1,25.8c-0.1,0.2-0.2,0.3-0.2,0.4l0,0c0,0,0,0,0,0.1s0.1,0.2,0.1,0.2c0.1,0.1,0.2,0.1,0.4,0.1
		c0,0,0.1,0,0.2,0c0.2-0.1,0.5-0.2,0.6-0.4c0.1-0.2,0.2-0.3,0.3-0.5l0,0c0,0,0,0,0-0.1s-0.1-0.2-0.1-0.2c-0.1-0.1-0.2-0.1-0.4-0.1
		c0,0-0.1,0-0.2,0C22.5,25.4,22.3,25.6,22.1,25.8L22.1,25.8z M15.9,25.6c-0.1,0.2-0.3,0.4-0.5,0.4s-0.3-0.3-0.3-0.5
		c0,0,0.2-0.9-0.6-0.6c-1.2,0.3-2.1,1.5-2.5,2.6c-0.1,0.4-0.2,0.7-0.2,1c0,0.2,0,0.5,0.1,0.6c0.2,0.2,0.5,0.2,1,0.1
		c0.4-0.2,0.9-0.4,1.4-0.7c0.6-0.4,1.2-0.9,1.5-1.2C16.4,26.4,17,26,17,26c0.2-0.2,0.4-0.1,0.6,0.1c0.1,0.1,0.1,0.3,0,0.4l-0.1,0.4
		c0.3-0.3,0.6-0.6,0.8-0.8c0.8-0.6,1.2-0.6,1.4-0.3c0.2,0.3-0.1,1.1-0.2,1.5c0.6-0.5,1.8-1.6,2-1.8c0-0.1,0.1-0.1,0.2-0.2
		c0.3-0.3,0.7-0.6,1.1-0.7c0.1,0,0.2,0,0.3,0c0.3,0,0.6,0.1,0.8,0.2c0.2,0.2,0.4,0.4,0.4,0.7c0.5-0.4,1-0.8,1.2-1v-0.2l0,0
		c0.1-0.2,0.3-0.4,0.5-0.4c0.1,0,0.2,0.1,0.3,0.2c0.3-0.2,0.6-0.4,1-0.5c0.6-0.2,1.1-0.2,1.4,0c0.1,0,0.2,0.1,0.2,0.2
		c1.1-0.7,2.2-1.2,2.2-1.2c0.2-0.1,0.4,0,0.5,0.2c0,0.1,0,0.2,0,0.3l-0.1,0.2c0.2-0.2,0.4-0.4,0.7-0.6c0.8-0.6,1.2-0.6,1.4-0.3
		c0.1,0.1,0.1,0.2,0.1,0.4c0.2-0.2,0.4-0.4,0.7-0.6c0.8-0.6,1.2-0.6,1.4-0.3c0.1,0.2,0.1,0.5,0,0.8l0,0l0,0c0,0.1-0.1,0.3-0.1,0.5
		c0,0.1,0,0.2-0.1,0.3c0.1,0,0.1-0.1,0.2-0.1c0.8-0.5,2-1.5,2.4-1.9c0.2-0.2,0.4-0.2,0.6,0c0.1,0.2,0.1,0.5-0.1,0.6
		c-0.4,0.4-1.6,1.4-2.5,2c-0.3,0.2-0.5,0.3-0.7,0.3c-0.4,0.1-0.6,0-0.7-0.3c0-0.1,0-0.3,0-0.4c0-0.2,0.1-0.4,0.1-0.6
		c0-0.1,0.1-0.3,0.1-0.5c0,0.1-0.1,0.1-0.1,0.2c-0.8,0.6-1.4,1.9-1.4,1.9s0,0.1-0.1,0.1c-0.1,0.2-0.3,0.3-0.5,0.3s-0.4-0.2-0.3-0.5
		c0.1-0.3,0.1-0.5,0.2-0.8c0-0.1,0.1-0.4,0.2-0.7c0,0.1-0.1,0.1-0.1,0.2c-0.8,0.6-1.4,1.9-1.4,1.9c-0.1,0.2-0.2,0.3-0.4,0.3
		c-0.1,0-0.2,0.1-0.2,0c-0.2,0-0.3-0.3-0.3-0.5l0.3-1.3c-0.4,0.2-0.9,0.5-1.4,0.7c0,0.1,0,0.3,0,0.4c-0.1,0.4-0.3,0.8-0.7,1.2
		c-0.5,0.5-1,0.7-1.3,0.8c-0.2,0-0.3,0-0.5,0c-0.1,0-0.3-0.1-0.4-0.3c-0.1-0.2-0.2-0.4-0.2-0.6c0-0.5,1.4-1.4,1.7-1.6
		c-0.2,0-0.3,0-0.6,0.1c-0.9,0.3-1.3,1-1.5,1.5l-0.8,3.2c-0.1,0.2-0.3,0.4-0.5,0.4s-0.3-0.3-0.3-0.5c0.3-1.1,0.5-2.3,0.8-3.2
		c-0.5,0.4-1,0.8-1.4,1.1l0,0c-0.3,0.3-0.7,0.5-1.1,0.6c-0.1,0-0.2,0-0.3,0c-0.3,0-0.6-0.1-0.8-0.2c-0.2-0.1-0.3-0.3-0.4-0.5
		c-0.7,0.6-1.5,1.4-1.8,1.5c-0.4,0.2-0.6,0-0.7-0.3s0-0.7,0.1-1.1l0,0c0-0.1,0.1-0.2,0.1-0.3c0,0.1-0.1,0.1-0.1,0.2
		c-0.9,0.6-1.8,2.3-1.8,2.3l0,0c-0.1,0.2-0.3,0.3-0.5,0.2c-0.2,0-0.3-0.3-0.3-0.5l0.3-1.2l-0.1,0.1c-0.3,0.3-1,0.9-1.7,1.3
		c-0.5,0.3-1.1,0.7-1.6,0.8c-0.9,0.3-1.5,0.2-1.8-0.3c-0.2-0.3-0.3-0.7-0.3-1.1s0.1-0.9,0.3-1.3c0.5-1.4,1.7-2.9,3.2-3.2
		C16.5,23.4,15.9,25.5,15.9,25.6z M30.4,22.2c-0.2,0.2-0.4,0.1-0.6,0c-0.1-0.2-0.1-0.5,0.1-0.6c1.3-1.1,4.6-1.8,6.1-1.7
		c0.2,0,0.4,0.2,0.3,0.5c0,0.2-0.2,0.4-0.5,0.4C34.6,20.6,31.6,21.3,30.4,22.2z"/>
</g>
<g>
	<polygon class="st60" points="16.6,2.2 32.8,2.2 32.8,4.4 34.7,4.4 34.7,8 14.7,8 14.7,4.4 16.6,4.4 	"/>
</g>
<g>
	<path class="st31" d="M16.6,1.9h16.1c0.2,0,0.3,0.2,0.3,0.3v1.9h1.6c0.2,0,0.3,0.2,0.3,0.3V8c0,0.2-0.2,0.3-0.3,0.3h-20
		c-0.2,0-0.3-0.2-0.3-0.3V4.4c0-0.2,0.2-0.3,0.3-0.3h1.6V2.2C16.3,2,16.4,1.9,16.6,1.9"/>
</g>
<g>
	<path class="st20" d="M18.7,4.1c0,0.1-0.1,0.2-0.2,0.2h-0.1V3.9h0.1C18.6,3.9,18.7,4,18.7,4.1 M30.8,3.6c0-0.1,0.1-0.2,0.2-0.2h0.2
		v0.4H31C30.9,3.8,30.8,3.7,30.8,3.6z M31.1,4.7h0.6V2.9h-0.9c-0.3,0-0.7,0.2-0.7,0.6c0,0.3,0.1,0.4,0.3,0.5L30,4.6h0.7L31,4.1h0.1
		V4.7z M29.1,4h-0.3l0.1-0.5L29.1,4z M29.3,4.7h0.6L29.3,3h-0.7L28,4.7h0.6l0.1-0.2h0.5L29.3,4.7z M25.3,2.9v1.7h2.6V2.9h-0.6v1.2
		h-0.4V2.9h-0.6v1.2h-0.4V2.9H25.3z M24.5,4.1c0,0.1-0.1,0.2-0.2,0.2h-0.1V3.9h0.1C24.4,3.9,24.5,3.9,24.5,4.1z M23.5,2.9v1.7h0.9
		c0.4,0,0.7-0.2,0.7-0.6s-0.3-0.6-0.7-0.6h-0.3V2.9H23.5z M22.7,4.7h0.6V2.9h-1.5c0,1.1-0.1,1.3-0.5,1.4l0.1,0.4
		c0.6-0.1,0.9-0.3,0.9-1.3h0.3v1.3H22.7z M19.4,3.8c0,0.5,0.3,0.9,0.9,0.9s0.9-0.4,0.9-0.9S21,2.9,20.4,2.9
		C19.7,2.9,19.4,3.3,19.4,3.8z M20,3.8c0-0.3,0.1-0.5,0.3-0.5c0.2,0,0.3,0.2,0.3,0.5s-0.1,0.5-0.3,0.5C20.2,4.3,20,4.1,20,3.8z
		 M19.3,4.1c0-0.4-0.4-0.5-0.7-0.5h-0.2V3.3h0.8V2.9h-1.4v1.7h0.9C19,4.7,19.3,4.5,19.3,4.1z"/>
</g>
<g>
	<path class="st20" d="M18,5.2h-0.8L17,6.1l-0.3-0.9h-0.8l-0.1,1.7h0.5v-1l0.3,1h0.5l0.3-1v1H18L18,5.2z M32.9,6.3h-0.3l0.1-0.5
		L32.9,6.3z M33.1,6.9h0.6l-0.6-1.7h-0.7l-0.6,1.7h0.6l0.1-0.2H33L33.1,6.9z M31.2,6.9l0.1,0.4h0.4V6.5h-0.2V5.2h-0.6v1.2h-0.5V5.2
		h-0.6v1.7C29.8,6.9,31.2,6.9,31.2,6.9z M29.5,6.9V5.2h-0.7L28.3,6V5.2h-0.6v1.7h0.7L28.9,6v0.9C28.9,6.9,29.5,6.9,29.5,6.9z
		 M27.5,7.3V6.5h-0.2V5.2h-1.4c0,0.9-0.1,1-0.3,1.3h-0.2v0.8h0.4l0.1-0.4H27l0.1,0.4H27.5z M26.1,6.5c0.2-0.2,0.2-0.5,0.2-0.8h0.3
		v0.8H26.1z M25.1,5.8h-0.6V5.6h0.6V5.2h-1.3v1.7h1.3V6.5h-0.7V6.2H25V5.8H25.1z M23,5.7c0,0.1-0.1,0.2-0.2,0.2h-0.1V5.5h0.1
		C22.9,5.5,23,5.6,23,5.7z M23.1,6.4c0,0.1-0.1,0.2-0.2,0.2h-0.1V6.2h0.1C23,6.2,23.1,6.2,23.1,6.4z M22.1,5.2v1.7H23
		c0.3,0,0.6-0.1,0.6-0.5c0-0.2-0.2-0.4-0.5-0.4c0.2,0,0.4-0.2,0.4-0.4c0-0.3-0.3-0.4-0.6-0.4C22.9,5.2,22.1,5.2,22.1,5.2z M21.9,7.3
		V6.5h-0.2V5.2h-1.4c0,0.9-0.1,1-0.3,1.3h-0.2v0.8h0.4l0.1-0.4h1.1l0.1,0.4H21.9z M20.6,6.5c0.2-0.2,0.2-0.5,0.2-0.8h0.3v0.8H20.6z
		 M19.6,5.8H19V5.6h0.6V5.2h-1.3v1.7h1.3V6.5H19V6.2h0.6V5.8z"/>
</g>
<g>
	<path class="st20" d="M36.6,14.6c0.2-0.6,0.1-1.2-0.2-1.7s-0.9-0.8-1.5-0.8c-0.6-0.1-1.3,0.1-2,0.6c-0.6,0.4-1.1,1-1.2,1.6
		c-0.2,0.6-0.1,1.2,0.2,1.7c0.3,0.5,0.9,0.8,1.5,0.8c0.6,0.1,1.3-0.1,2-0.6C36,15.8,36.5,15.2,36.6,14.6 M31.3,15.5
		c-0.1,0.2-0.2,0.4-0.3,0.7c-0.2,0.3-0.4,0.6-0.6,0.8c0.3-0.1,0.6-0.2,1-0.2c0.3,0,0.5-0.1,0.8-0.1c-0.2-0.1-0.4-0.3-0.5-0.5
		C31.5,15.9,31.4,15.7,31.3,15.5z M29.5,17l0.1,0.2c0.1-0.1,0.2-0.2,0.3-0.3c0.2-0.3,0.5-0.6,0.7-0.9c0.4-0.7,0.6-1.4,0.6-1.4l0,0
		c0-0.1,0-0.3,0.1-0.4c0.2-0.7,0.7-1.4,1.4-1.8c0.7-0.5,1.5-0.7,2.2-0.6c0.7,0.1,1.4,0.4,1.8,1c0.4,0.6,0.5,1.3,0.3,2
		s-0.7,1.4-1.4,1.8c-0.7,0.5-1.5,0.7-2.2,0.6c-0.1,0-0.3,0-0.4-0.1l0,0c0,0-0.7-0.1-1.5,0c-0.4,0.1-0.8,0.2-1.1,0.3
		c-0.1,0.1-0.3,0.1-0.4,0.2l0.1,0.2c0,0.1,0,0.1,0,0.2l-0.4,0.3c-0.5,0.2-1,0.5-1.4,0.8c-0.5,0.3-0.9,0.7-1.3,1l-0.5,0.4
		c-0.1,0-0.1,0-0.2,0l-0.5-0.7c0-0.1,0-0.1,0-0.2l0.5-0.4c0.5-0.2,1-0.5,1.4-0.8c0.5-0.3,0.9-0.7,1.3-1l0.4-0.3
		C29.4,17,29.5,17,29.5,17z"/>
</g>
<g>
	<path class="st20" d="M27.2,16.6c0.1-0.2,0.2-0.5,0.3-0.8c0.2-1,0.1-2.1-0.4-2.5c-0.4-0.3-0.9-0.3-1.2-0.2
		c-0.2,0.1-0.4,0.3-0.5,0.6s-0.1,0.6-0.1,0.9C25.5,15.3,26,16.1,27.2,16.6 M30.8,17.7c1.6,0.4,2.7,0.5,3.8,0
		c1.4-0.6,2.5-0.4,2.9-0.3s0.3,0.4-0.1,0.3C37,17.6,36,17.4,34.7,18c-1.2,0.6-2.4,0.5-4.3,0C30.2,17.8,30.6,17.6,30.8,17.7z
		 M26.8,16.7c-1.1-0.5-1.6-1.3-1.7-2c-0.1-0.4,0-0.8,0.1-1.1s0.3-0.6,0.6-0.7c0.4-0.2,1-0.2,1.5,0.2c0.6,0.5,0.8,1.7,0.6,2.8
		c-0.1,0.3-0.2,0.5-0.3,0.8h0.1c0.4,0.1,0.6,0.2,0.9,0.3l0,0c0.3,0.1-0.2,0.3-0.4,0.2c-0.2-0.1-0.2-0.1-0.4-0.1
		C27.4,17,27.1,16.9,26.8,16.7z M14.9,14.2c3.3-2,4.9-0.5,6.8,1.2c0.4,0.4,0.8,0.8,1.3,1.1c1.4,1.2,2.5,1.4,3.3,1
		c0.2-0.1,0.4-0.2,0.6-0.4c0.2-0.1,0.4,0.1,0.3,0.2l0,0c-0.2,0.2-0.5,0.4-0.8,0.5c-0.9,0.4-2.1,0.2-3.6-1.1
		c-0.5-0.4-0.9-0.8-1.3-1.1c-1.8-1.7-3.3-3.1-6.4-1.2C14.8,14.6,14.6,14.3,14.9,14.2z"/>
</g>
<g>
	<path class="st20" d="M12.1,15.6c0,0-0.2-0.3,0.1-0.5s1.6-0.6,1.7-0.6c0.1-0.1,0.1-0.1,0.2-0.2c0.2-0.3,0.6,0.7,0.3,0.7
		c-0.2,0-0.1,0-0.3,0c-0.1,0.1-1.3,0.8-1.6,0.9C12.2,16,12.1,15.6,12.1,15.6"/>
</g>
<g>
	<path class="st20" d="M39.6,20.1c0,0-0.2,0.3-0.5,0c-0.3-0.2-1-1.4-1.1-1.5s-0.1-0.1-0.2-0.1c-0.3-0.1,0.6-0.8,0.6-0.5
		c0,0.2,0,0.1,0.1,0.3c0.1,0.1,1.1,1,1.3,1.3C39.9,19.9,39.6,20.1,39.6,20.1"/>
</g>
<g>
	<g>
		<defs>
			<path id="SVGID_104_" d="M36.6,12.7c0.7,1.1,0.2,2.7-1.2,3.6s-3.1,0.8-3.8-0.3s-0.2-2.7,1.2-3.6S35.9,11.6,36.6,12.7"/>
		</defs>
		<clipPath id="SVGID_105_">
			<use xlink:href="#SVGID_104_"  style="overflow:visible;"/>
		</clipPath>
		<g class="st61">
			<path class="st20" d="M33.8,18.5L33.8,18.5L33.4,18l-0.6,0.4l0,0l0,0l0.6-0.4l-0.2-0.3L32.6,18l0,0l0,0l0.6-0.4L33,17.3l-0.6,0.4
				l0,0l0,0l0.6-0.4L32.8,17l-0.6,0.4l0,0l0,0l0.6-0.4l-0.2-0.3L32,17.1l0,0l0,0l0.6-0.4L32.1,16l-0.6,0.4l0,0l0,0l0.6-0.4l-0.2-0.3
				L31.3,16l0,0l0,0l0.6-0.4l-0.2-0.3L31,15.6l0,0l0,0l0.6-0.4l-0.2-0.3l-0.6,0.4l0,0l0,0l0.6-0.4l-0.2-0.3L30.6,15l0,0l0,0l0.6-0.4
				L31,14.3l-0.6,0.4l0,0l0,0l0.6-0.4L30.8,14L30,14.1l0,0l0,0l0.6-0.4l-0.4-0.6l0,0l0,0l0.4,0.6l0.3-0.2l-0.4-0.6l0,0l0,0l0.4,0.6
				l0.3-0.2l-0.4-0.6l0,0l0,0l0.4,0.6l0.3-0.2l-0.4-0.6l0,0l0,0l0.4,0.6l0.3-0.2L31.7,12l0,0l0,0l0.4,0.6l0.3-0.2L32,11.8l0,0l0,0
				l0.4,0.6l0.3-0.2l-0.4-0.6l0,0l0,0l0.4,0.6L33,12l-0.4-0.6l0,0l0,0L33,12l0.3-0.2V11l0,0l0,0l0.4,0.6l0.3-0.2l-0.4-0.6l0,0l0,0
				l0.4,0.6l0.3-0.2L34,10.5l0,0l0,0l0.4,0.6l0.3-0.2l-0.4-0.6l0,0l0,0l0.4,0.6l0.6-0.4l0,0l0,0l-0.6,0.4l0.2,0.3l0.6-0.4l0,0l0,0
				l-0.6,0.4l0.2,0.3l0.6-0.4l0,0l0,0l-0.6,0.4l0.2,0.3l0.6-0.4l0,0l0,0L35.7,12l0.2,0.3l0.6-0.4l0,0l0,0l-0.6,0.4l0.2,0.3l0.6-0.4
				l0,0l0,0l-0.6,0.4l0.2,0.3l0.6-0.4l0,0l0,0l-0.6,0.4l0.2,0.3l0.6-0.4l0,0l0,0l-0.6,0.4l0.2,0.3l0.6-0.4l0,0l0,0L37,13.9l0.2,0.3
				l0.6-0.4l0,0l0,0l-0.6,0.4l0.2,0.3l0.6-0.4l0,0l0,0l-0.6,0.4l0.2,0.3l0.6-0.4l0,0l0,0l-0.6,0.4l0.4,0.6l0,0l0,0l-0.4-0.6L37.3,15
				l0.4,0.6l0,0l0,0L37.3,15L37,15.6l0.4,0.6l0,0l0,0L37,15.6l-0.3,0.2l0.4,0.6l0,0l0,0l-0.4-0.6L36.4,16l0.4,0.6l0,0l0,0L36.4,16
				l-0.3,0.2l0.4,0.6l0,0l0,0l-0.4-0.6l-0.3,0.2l0.4,0.6l0,0l0,0l-0.4-0.6L35,16.9l0.4,0.6l0,0l0,0L35,16.9l-0.3,0.2l0.4,0.6l0,0
				l0,0l-0.4-0.6l-0.3,0.2l0.4,0.6l0,0l0,0l-0.4-0.6l-0.3,0.2l0.4,0.6l0,0l0,0l-0.4-0.6l-0.3,0.2L33.8,18.5
				C33.9,18.5,33.9,18.5,33.8,18.5L33.8,18.5z M33.2,17.5l0.2,0.3l0.3-0.2l-0.2-0.3L33.2,17.5z M33.6,17.3l0.2,0.3l0.3-0.2l-0.2-0.3
				L33.6,17.3z M33,17.2l0.2,0.3l0.3-0.2L33.3,17L33,17.2z M34,17l0.2,0.3l0.3-0.2l-0.2-0.3L34,17z M33.3,16.9l0.2,0.3l0.3-0.2
				l-0.2-0.3L33.3,16.9z M34.4,16.8l0.2,0.3l0.3-0.2l-0.2-0.3L34.4,16.8z M32.7,16.8l0.2,0.3l0.3-0.2L33,16.5L32.7,16.8z M33.7,16.6
				L34,17l0.3-0.2l-0.2-0.3L33.7,16.6z M34.8,16.5l0.2,0.3l0.3-0.2l-0.2-0.3L34.8,16.5z M33.1,16.5l0.2,0.3l0.3-0.2l-0.2-0.3
				L33.1,16.5z M34.1,16.4l0.2,0.3l0.3-0.2l-0.2-0.3L34.1,16.4z M32.4,16.4l0.2,0.3l0.3-0.2l-0.2-0.3L32.4,16.4z M35.2,16.2l0.2,0.3
				l0.3-0.2L35.5,16L35.2,16.2z M33.5,16.2l0.2,0.3l0.3-0.2L33.8,16L33.5,16.2z M34.5,16.1l0.2,0.3l0.3-0.2l-0.2-0.3L34.5,16.1z
				 M32.8,16.1l0.2,0.3l0.3-0.2l-0.2-0.3L32.8,16.1z M35.5,16l0.2,0.3l0.3-0.2l-0.2-0.3L35.5,16z M33.9,16l0.2,0.3l0.3-0.2l-0.2-0.3
				L33.9,16z M32.2,16l0.2,0.3l0.3-0.2l-0.2-0.3L32.2,16z M34.9,15.9l0.2,0.3l0.3-0.2l-0.2-0.3L34.9,15.9z M33.2,15.9l0.2,0.3
				l0.3-0.2l-0.2-0.3L33.2,15.9z M35.9,15.7l0.2,0.3l0.3-0.2l-0.2-0.3L35.9,15.7z M34.2,15.7l0.2,0.3l0.3-0.2l-0.2-0.3L34.2,15.7z
				 M32.6,15.7l0.2,0.3l0.3-0.2l-0.2-0.3L32.6,15.7z M35.3,15.6l0.2,0.3l0.3-0.2l-0.2-0.3L35.3,15.6z M33.6,15.6l0.2,0.3l0.3-0.2
				l-0.2-0.3L33.6,15.6z M31.9,15.6l0.2,0.3l0.3-0.2l-0.2-0.3L31.9,15.6z M36.3,15.5l0.2,0.3l0.3-0.2l-0.2-0.3L36.3,15.5z
				 M34.6,15.5l0.2,0.3l0.3-0.2L35,15.2L34.6,15.5z M33,15.5l0.2,0.3l0.3-0.2l-0.2-0.3L33,15.5z M35.7,15.3l0.2,0.3l0.3-0.2L36,15.1
				L35.7,15.3z M34,15.3l0.2,0.3l0.3-0.2l-0.2-0.3L34,15.3z M32.3,15.3l0.2,0.3l0.3-0.2l-0.2-0.3L32.3,15.3z M36.7,15.2l0.2,0.3
				l0.3-0.2L37,15L36.7,15.2z M35,15.2l0.2,0.3l0.3-0.2L35.4,15L35,15.2z M33.3,15.2l0.2,0.3l0.3-0.2L33.7,15L33.3,15.2z M31.7,15.2
				l0.2,0.3l0.3-0.2L32,15L31.7,15.2z M36.1,15.1l0.2,0.3l0.3-0.2l-0.2-0.3L36.1,15.1z M34.4,15.1l0.2,0.3l0.3-0.2l-0.2-0.3
				L34.4,15.1z M32.7,15.1l0.2,0.3l0.3-0.2L33,14.9L32.7,15.1z M37.1,15l0.2,0.3l0.3-0.2l-0.2-0.3L37.1,15z M35.4,15l0.2,0.3
				l0.3-0.2l-0.2-0.3L35.4,15z M33.7,15l0.2,0.3l0.3-0.2L34,14.8L33.7,15z M32,15l0.2,0.3l0.3-0.2l-0.2-0.3L32,15z M36.4,14.8
				l0.2,0.3l0.3-0.2l-0.2-0.3L36.4,14.8z M34.8,14.8l0.2,0.3l0.3-0.2l-0.2-0.3L34.8,14.8z M33.1,14.8l0.2,0.3l0.3-0.2l-0.2-0.3
				L33.1,14.8z M31.4,14.8l0.2,0.3l0.3-0.2l-0.2-0.3L31.4,14.8z M35.8,14.7L36,15l0.3-0.2l-0.2-0.3L35.8,14.7z M34.1,14.7l0.2,0.3
				l0.3-0.2l-0.2-0.3L34.1,14.7z M32.4,14.7l0.2,0.3l0.3-0.2l-0.2-0.3L32.4,14.7z M36.8,14.6l0.2,0.3l0.3-0.2l-0.2-0.3L36.8,14.6z
				 M35.2,14.6l0.2,0.3l0.3-0.2l-0.2-0.3L35.2,14.6z M33.5,14.6l0.2,0.3l0.3-0.2l-0.2-0.3L33.5,14.6z M31.8,14.6l0.2,0.3l0.3-0.2
				l-0.2-0.3L31.8,14.6z M36.2,14.4l0.2,0.3l0.3-0.2l-0.2-0.3L36.2,14.4z M34.5,14.4l0.2,0.3l0.3-0.2l-0.2-0.3L34.5,14.4z
				 M32.8,14.4l0.2,0.3l0.3-0.2l-0.2-0.3L32.8,14.4z M31.1,14.4l0.2,0.3l0.3-0.2l-0.2-0.3L31.1,14.4z M35.5,14.3l0.2,0.3l0.3-0.2
				l-0.2-0.3L35.5,14.3z M33.9,14.3l0.2,0.3l0.3-0.2l-0.2-0.3L33.9,14.3z M32.2,14.3l0.2,0.3l0.3-0.2l-0.2-0.3L32.2,14.3z
				 M36.6,14.2l0.2,0.3l0.3-0.2L36.9,14L36.6,14.2z M34.9,14.2l0.2,0.3l0.3-0.2L35.2,14L34.9,14.2z M33.2,14.2l0.2,0.3l0.3-0.2
				L33.5,14L33.2,14.2z M31.5,14.2l0.2,0.3l0.3-0.2L31.9,14L31.5,14.2z M35.9,14l0.2,0.3l0.3-0.2l-0.2-0.3L35.9,14z M34.2,14
				l0.2,0.3l0.3-0.2l-0.2-0.3L34.2,14z M32.6,14l0.2,0.3l0.3-0.2l-0.2-0.3L32.6,14z M30.9,14l0.2,0.3l0.3-0.2l-0.2-0.3L30.9,14z
				 M35.3,13.9l0.2,0.3l0.3-0.2l-0.2-0.3L35.3,13.9z M33.6,13.9l0.2,0.3l0.3-0.2l-0.2-0.3L33.6,13.9z M31.9,13.9l0.2,0.3l0.3-0.2
				l-0.2-0.3L31.9,13.9z M36.3,13.8l0.2,0.3l0.3-0.2l-0.2-0.3L36.3,13.8z M34.6,13.8l0.2,0.3l0.3-0.2L35,13.6L34.6,13.8z M33,13.8
				l0.2,0.3l0.3-0.2l-0.2-0.3L33,13.8z M31.3,13.8l0.2,0.3l0.3-0.2l-0.2-0.3L31.3,13.8z M35.7,13.7l0.2,0.3l0.3-0.2L36,13.4
				L35.7,13.7z M34,13.7l0.2,0.3l0.3-0.2l-0.2-0.3L34,13.7z M32.3,13.7l0.2,0.3l0.3-0.2l-0.2-0.3L32.3,13.7z M30.6,13.7l0.2,0.3
				l0.3-0.2L31,13.4L30.6,13.7z M35,13.5l0.2,0.3l0.3-0.2l-0.2-0.3L35,13.5z M33.3,13.5l0.2,0.3l0.3-0.2l-0.2-0.3L33.3,13.5z
				 M31.7,13.5l0.2,0.3l0.3-0.2L32,13.3L31.7,13.5z M36.1,13.4l0.2,0.3l0.3-0.2l-0.2-0.3L36.1,13.4z M34.4,13.4l0.2,0.3l0.3-0.2
				l-0.2-0.3L34.4,13.4z M32.7,13.4l0.2,0.3l0.3-0.2L33,13.2L32.7,13.4z M31,13.4l0.2,0.3l0.3-0.2l-0.2-0.3L31,13.4z M35.4,13.3
				l0.2,0.3l0.3-0.2L35.7,13L35.4,13.3z M33.7,13.3l0.2,0.3l0.3-0.2L34.1,13L33.7,13.3z M32,13.3l0.2,0.3l0.3-0.2L32.4,13L32,13.3z
				 M34.8,13.1l0.2,0.3l0.3-0.2l-0.2-0.3L34.8,13.1z M33.1,13.1l0.2,0.3l0.3-0.2l-0.2-0.3L33.1,13.1z M31.4,13.1l0.2,0.3l0.3-0.2
				l-0.2-0.3L31.4,13.1z M35.8,13l0.2,0.3l0.3-0.2l-0.2-0.3L35.8,13z M34.1,13l0.2,0.3l0.3-0.2l-0.2-0.3L34.1,13z M32.4,13l0.2,0.3
				l0.3-0.2l-0.2-0.3L32.4,13z M35.2,12.9l0.2,0.3l0.3-0.2l-0.2-0.3L35.2,12.9z M33.5,12.9l0.2,0.3L34,13l-0.2-0.3L33.5,12.9z
				 M31.8,12.9l0.2,0.3l0.3-0.2l-0.2-0.3L31.8,12.9z M34.5,12.8l0.2,0.3l0.3-0.2l-0.2-0.3L34.5,12.8z M32.8,12.8l0.2,0.3l0.3-0.2
				l-0.2-0.3L32.8,12.8z M35.5,12.6l0.2,0.3l0.3-0.2l-0.2-0.3L35.5,12.6z M33.9,12.6l0.2,0.3l0.3-0.2l-0.2-0.3L33.9,12.6z
				 M32.2,12.6l0.2,0.3l0.3-0.2l-0.2-0.3L32.2,12.6z M34.9,12.5l0.2,0.3l0.3-0.2l-0.2-0.3L34.9,12.5z M33.2,12.5l0.2,0.3l0.3-0.2
				l-0.2-0.3L33.2,12.5z M34.2,12.4l0.2,0.3l0.3-0.2l-0.2-0.3L34.2,12.4z M32.6,12.4l0.2,0.3l0.3-0.2l-0.2-0.3L32.6,12.4z
				 M35.3,12.2l0.2,0.3l0.3-0.2L35.6,12L35.3,12.2z M33.6,12.2l0.2,0.3l0.3-0.2L33.9,12L33.6,12.2z M34.6,12.1l0.2,0.3l0.3-0.2
				L35,11.9L34.6,12.1z M33,12.1l0.2,0.3l0.3-0.2l-0.2-0.3L33,12.1z M34,12l0.2,0.3l0.3-0.2l-0.2-0.3L34,12z M35,11.8l0.2,0.3
				l0.3-0.2l-0.2-0.3L35,11.8z M33.3,11.8l0.2,0.3l0.3-0.2l-0.2-0.3L33.3,11.8z M34.4,11.7l0.2,0.3l0.3-0.2l-0.2-0.3L34.4,11.7z
				 M33.7,11.6l0.2,0.3l0.3-0.2L34,11.4L33.7,11.6z M34.8,11.5l0.2,0.3l0.3-0.2l-0.2-0.3L34.8,11.5z M34.1,11.3l0.2,0.3l0.3-0.2
				l-0.2-0.3L34.1,11.3z M34.5,11.1l0.2,0.3l0.3-0.2l-0.2-0.3L34.5,11.1z"/>
		</g>
	</g>
</g>
<g>
	<path class="st26" d="M31.1,12.4c0.7-0.1,1.4,0.3,1.5,1s-0.3,1.4-1,1.5s-1.4-0.3-1.5-1C29.9,13.2,30.4,12.5,31.1,12.4"/>
</g>
<g>
	<path class="st20" d="M30.9,12.7c0.5-0.1,1,0.3,1.1,0.8c0.1,0.5-0.3,1-0.8,1.1s-1-0.3-1.1-0.8S30.4,12.8,30.9,12.7"/>
</g>
<g>
	<path class="st62" d="M19.3,43.2c0.2-0.1,1.7-0.5,3.6-0.2c2,0.3,2.7,0.4,3,0.4s-0.6-0.5-2.7-0.9S19.8,42.4,19.3,43.2"/>
</g>
</svg>
