<?xml version="1.0" encoding="utf-8"?>
<!-- Generator: Adobe Illustrator 19.2.1, SVG Export Plug-In . SVG Version: 6.00 Build 0)  -->
<svg version="1.1" id="Слой_1" xmlns="http://www.w3.org/2000/svg" xmlns:xlink="http://www.w3.org/1999/xlink" x="0px" y="0px"
	 viewBox="0 0 155.7 199.5" style="enable-background:new 0 0 155.7 199.5;" xml:space="preserve">
<style type="text/css">
	.st0{fill:#242C49;}
	.st1{fill:#28304F;}
	.st2{fill:#FFFFFF;}
	.st3{clip-path:url(#SVGID_2_);fill:#912920;}
	.st4{clip-path:url(#SVGID_4_);fill:#FFFFFF;}
	.st5{clip-path:url(#SVGID_6_);fill:#FFFFFF;}
	.st6{clip-path:url(#SVGID_8_);fill:#28304F;}
	.st7{clip-path:url(#SVGID_10_);}
	.st8{clip-path:url(#SVGID_12_);fill:#FFFFFF;}
	.st9{fill:#DEAC45;}
	.st10{fill:#797A7B;}
	.st11{fill:#912920;}
	.st12{fill:#A5A6A5;}
	.st13{fill:#D8D8D8;}
	.st14{fill:#B63623;}
	.st15{fill:#27314F;}
	.st16{fill:#314C70;}
	.st17{fill:#314D72;}
	.st18{fill:#7F8B9B;}
	.st19{enable-background:new    ;}
</style>
<g>
	<polyline class="st0" points="79.1,188.1 33.3,164.7 28.1,143.2 15.9,51.5 34.4,31 47.4,31 74.1,22.3 79.1,10.7 83.7,22.7 
		110.4,31 124.2,31 142.4,51.7 130.9,143.4 125.7,163.9 79.1,188.1 	"/>
	<polygon class="st1" points="79.1,188.1 15.8,134.3 15.8,51.7 34.6,31.4 78.9,53.9 124.2,31 143.8,52.3 142.4,134.5 	"/>
	<polygon class="st2" points="79.1,188.1 15.8,134.3 15.8,51.7 34,31.4 78.9,53.9 124.2,31 145.8,51.9 142.4,134.5 	"/>
	<g>
		<g>
			<defs>
				<polygon id="SVGID_1_" points="79.1,188.1 15.8,134.5 15.8,33.7 34.6,13.4 79.1,35.9 126.5,13.4 146.9,37.8 142.4,134.5 				"/>
			</defs>
			<clipPath id="SVGID_2_">
				<use xlink:href="#SVGID_1_"  style="overflow:visible;"/>
			</clipPath>
			<path class="st3" d="M152.4,111.2c0,35.6-32.2,64.5-71.9,64.5S8.7,146.8,8.7,111.2s30.7-70.1,70.5-70.1S152.4,75.6,152.4,111.2z"
				/>
		</g>
		<g>
			<defs>
				<polygon id="SVGID_3_" points="79.1,188.1 15.8,134.5 15.8,33.7 34.6,13.4 79.1,35.9 126.5,13.4 146.9,37.8 142.4,134.5 				"/>
			</defs>
			<clipPath id="SVGID_4_">
				<use xlink:href="#SVGID_3_"  style="overflow:visible;"/>
			</clipPath>
			<path class="st4" d="M144.9,112.4c0,35.6-28.9,64.5-64.5,64.5S15.9,148,15.9,112.4s27.6-70.1,63.3-70.1S144.9,76.9,144.9,112.4z"
				/>
		</g>
		<g>
			<defs>
				<polygon id="SVGID_5_" points="79.1,188.1 15.8,134.5 15.8,33.7 34.6,13.4 79.1,35.9 126.5,13.4 146.9,37.8 142.4,134.5 				"/>
			</defs>
			<clipPath id="SVGID_6_">
				<use xlink:href="#SVGID_5_"  style="overflow:visible;"/>
			</clipPath>
			<path class="st5" d="M146.6,114.9c0,36.7-29.7,66.5-66.5,66.5s-66.5-29.7-66.5-66.5s28.4-72.2,65.2-72.2S146.6,78.2,146.6,114.9z
				"/>
		</g>
		<g>
			<defs>
				<polygon id="SVGID_7_" points="79.1,188.1 15.8,134.5 15.8,33.7 34.6,13.4 79.1,35.9 126.5,13.4 146.9,37.8 142.4,134.5 				"/>
			</defs>
			<clipPath id="SVGID_8_">
				<use xlink:href="#SVGID_7_"  style="overflow:visible;"/>
			</clipPath>
			<path class="st6" d="M145.3,121.5c0,39.4-29.4,71.1-65.6,70.7S14,159.5,14,120S42.8,51.6,79.1,52
				C115.4,52.4,145.3,82,145.3,121.5z"/>
		</g>
		<g>
			<defs>
				<polygon id="SVGID_9_" points="79.1,188.1 15.8,134.5 15.8,33.7 34.6,13.4 79.1,35.9 126.5,13.4 146.9,37.8 142.4,134.5 				"/>
			</defs>
			<clipPath id="SVGID_10_">
				<use xlink:href="#SVGID_9_"  style="overflow:visible;"/>
			</clipPath>
			<g class="st7">
				<g>
					<defs>
						<path id="SVGID_11_" d="M145.3,128.3c0,39.4-29.4,71.1-65.6,70.7C43.4,198.7,14,166.4,14,126.9s28.8-68.4,65.1-68.1
							S145.3,88.8,145.3,128.3z"/>
					</defs>
					<clipPath id="SVGID_12_">
						<use xlink:href="#SVGID_11_"  style="overflow:visible;"/>
					</clipPath>
					<path class="st8" d="M79.1,32.9h-3.7H3.9l13.3,39.9c-0.1,39.1,7.6,59.6,46,99.4l16,16.6l16-16.6c38.4-39.9,46-49,46-99.4
						l13.3-39.9C154.4,32.9,79.1,32.9,79.1,32.9z"/>
				</g>
			</g>
			<g class="st7">
				<polygon class="st9" points="108.3,54.6 101.5,60 81.7,60 78.9,51 75.4,60 55.5,60 48.8,54.6 71.1,54.6 78.9,33.5 85.7,54.6 
									"/>
				<polygon class="st10" points="87.2,60 89.9,59.4 108.3,54.6 101.4,60 				"/>
				<polygon class="st11" points="78.9,33.5 78.9,51 88.7,60 86.2,54.6 				"/>
				<polygon class="st12" points="93.9,58.6 86.2,54.6 88.6,59.7 				"/>
				<polygon class="st13" points="108.3,54.6 93.9,58.6 86.2,54.6 				"/>
				<polygon class="st10" points="70,60 67.2,59.4 48.8,54.6 55.7,60 				"/>
				<polygon class="st12" points="63.2,58.6 71.4,54.6 70,60 				"/>
				<polygon class="st13" points="48.8,54.6 63.2,58.6 71.4,54.6 				"/>
				<polygon class="st14" points="88.7,60 81.7,60 78.9,51 				"/>
				<polygon class="st14" points="60.3,89.3 67.3,84.7 64.9,74.3 				"/>
				<polygon class="st12" points="67.3,84.7 71,74.7 78.9,69.2 68,84.3 				"/>
				<polygon class="st13" points="67.9,84.3 78.9,76.9 78.9,69.2 				"/>
				<polygon class="st11" points="73.7,66.4 64.9,74.2 67.3,84.7 71,74.7 				"/>
				<polygon class="st14" points="97.5,89.3 90.4,84.7 92.8,74.3 				"/>
				<polygon class="st12" points="90.4,84.7 86.8,74.7 78.9,69.2 89.8,84.3 				"/>
				<polygon class="st10" points="89.9,84.3 78.9,76.9 78.9,69.2 				"/>
				<polygon class="st11" points="84.1,66.4 92.9,74.2 90.4,84.7 86.8,74.7 				"/>
				<polygon class="st14" points="69.1,60 78.9,51 78.9,33.5 				"/>
				<polygon class="st11" points="69.1,60 75.5,60 78.9,51 				"/>
				<polygon class="st10" points="82.6,61.5 91.3,67.5 100.8,61.5 				"/>
				<polygon class="st10" points="57.1,61.5 66.4,67.5 75.3,61.5 				"/>
				<polygon class="st11" points="68.6,61.5 66.4,67.5 75.3,61.5 				"/>
				<polygon class="st11" points="89.1,61.5 91.3,67.5 82.5,61.5 				"/>
			</g>
		</g>
		<g id="RW2KUp_5_">
			<g>
				<path class="st15" d="M94.7,156c-3.5,0-7,0-10.4,0c-0.5,0-0.9-0.1-1.2-0.4c-1.1-0.8-2-1.7-3-2.7c-0.3-0.3-0.6-0.4-1-0.4
					c-2.5,0-5,0-7.6,0c-1.5,0-2.9,0.4-3.7,1.9c-0.2,0.2-0.4,0.4-0.7,0.4c-2.3,0-4.5,0-6.8,0c-0.3,0-0.5-0.1-0.7-0.3
					c-1.6-1.7-3.3-3.4-4.9-5c-0.7-0.7-1.1-1.7-1.2-2.7c-0.2-0.9-0.4-1.9-0.2-2.8c0.1-0.4-0.1-0.5-0.4-0.5c-0.1,0-0.1,0-0.2,0
					c-1.3,0-1.4-0.1-1-1.4c0.2-0.7,0.6-1.2,1.1-1.7c1-1,1.9-2,2.8-3.1c0.3-0.4,0.6-0.5,1.1-0.5c4.3,0,8.6,0,12.9,0
					c0.5,0,0.8-0.2,1.1-0.6c0.4-0.7,0.8-1.4,1.3-2c0.3-0.4,0.2-0.6-0.2-0.9c-4.7-2.5-9.4-5.1-14.2-7.6c-1.7-0.9-3.5-1.9-5.2-2.8
					c-1.1-0.6-1.4-1.7-0.9-2.7s1.6-1.2,2.7-0.6c6.4,3.6,12.7,7.3,19.1,10.9c0.6,0.4,1,0.3,1.2-0.3c0.2-0.5,0.6-0.6,1.1-0.6
					c4.2,0,8.3,0,12.4,0c1.6,0,2.9,0.4,4.1,1.4c2.7,2,5.4,4,8.1,6c0.5,0.4,0.6,0.9,0.6,1.4c0.1,0.7,0.4,1.1,1.2,1.3
					c1.2,0.4,2.4,0.8,3.6,1.2c0.3,0.1,0.6,0.2,0.7,0.6c0.6,1.1,1.2,2.3,1.7,3.5c0.2,0.7,0.1,0.9-0.6,0.8c-0.6-0.1-0.7,0.1-0.6,0.7
					c0.3,2.5,0.1,4.9-0.1,7.4c0,0.2-0.1,0.4-0.1,0.7c-0.3,1.5-0.6,1.7-2,1.7C101.3,156,98,156,94.7,156z M85.7,140.2
					c0.3-0.1,0.6-0.3,0.9-0.4c-0.1-0.1-0.2-0.1-0.2-0.1c-1.9,0-3.9,0.1-5.8,0.1c-0.3,0-0.5,0.1-0.6,0.5c-0.3,0.4-0.6,0.9-0.9,1.4
					c-0.4,0.5-0.1,0.6,0.3,0.6c1.5,0,3,0,4.5,0c0.4,0,0.6-0.1,0.8-0.4C85,141.1,85.4,140.7,85.7,140.2z M82.2,134.8
					c0.4-0.4,0.5-0.9,0.6-1.5c0.4-1.6-0.1-2.2-1.7-2.2c-1.4-0.1-2.7-0.1-4.1,0.1c-0.3,0.1-0.7,0.2-1,0.4c-0.4,0.2-0.4,0.3-0.1,0.6
					c0.6,0.4,1.1,0.5,1.8,0.4c1-0.2,1.6,0.2,1.7,1.1c0.1,0.6,0,1.2-0.4,1.7c-0.1,0.2-0.3,0.3-0.4,0.5c-0.4,0.4-0.4,1-0.2,1.4
					c0.2,0.4,0.7,0.1,1,0C80.6,136.8,81.6,136,82.2,134.8z M92.7,138.7c-1.1,0-2,0.3-3.1,0.5c-0.2,0.1-0.5,0.2-0.4,0.5
					c0,0.3,0.2,0.3,0.5,0.4c0.1,0,0.3,0.1,0.4,0.1c3.9,0.7,7.6,1.7,11.4,2.7c1.5,0.4,3,1,4.5,1.2l0.1,0.1l-0.1-0.1
					c-0.1-0.3-0.1-0.6-0.4-0.9c-0.4-0.5-0.5-1.2-1.2-1.5c-3.3-1.1-6.6-2.1-9.9-3.2C93.9,138.3,93.2,138.3,92.7,138.7z M56,138.8
					c-0.8,0.8-1.7,1.6-2.4,2.5c-0.1,0.2-0.3,0.4-0.2,0.6s0.4,0.2,0.6,0.2c1.5,0,2.9,0,4.4,0c0.2,0,0.6-0.1,0.7,0.2
					c0.2,0.5,0.5,0.2,0.7,0.1c1.4-0.9,2.8-1.8,4.2-2.7c0.4-0.3,0.9-0.4,1.2-0.9c0.2-0.2,0.4-0.3,0.5-0.6c-0.5,0-1,0-1.5,0
					c-2.4,0-4.8,0.1-7.3,0.1C56.5,138.3,56.2,138.4,56,138.8z M84.1,131.5c0.9,2.2-0.2,3.8-1.6,5.5c0.3,0,0.6,0.1,0.8,0.1
					c1.9,0,3.8,0,5.7,0c1.7,0,2.5-0.7,2.7-2.4c0.1-0.8-0.2-1.4-0.7-1.9c-0.6-0.6-1.4-1.1-2.3-1.3c-1.4-0.4-2.9-0.5-4.4-0.4
					c-0.2,0-0.4-0.1-0.5,0.1C83.7,131.2,83.9,131.4,84.1,131.5z M78.5,139.7c0.2-0.1,0.4-0.2,0.5-0.5c-0.1-0.1-0.1-0.1-0.1-0.1
					c-4-0.1-7.9-0.1-11.9-0.1c-0.4,0-0.5,0.2-0.6,0.4c-1.6,1.3-3.1,2.6-4.7,3.9c4.4,0.1,8.7,0.1,13,0.1c0.2,0,0.4,0,0.6-0.2
					C76.4,142.1,77.5,141,78.5,139.7z M92.4,152.4c0.1,0.3,0.1,0.6,0.1,0.7c0.2,1.5,0.2,1.4,1.8,1.5c0.9,0,1.4-0.4,1.7-1.1
					c0.1-0.2,0.2-0.5,0.3-0.8c0.3,0.4,0.2,0.9,0.2,1.2c0,0.3,0.1,0.6,0.4,0.6c0.9,0.3,2-0.2,2.5-1.1c0.1-0.2,0.1-0.4,0.3-0.6
					c0.4,0.4-0.3,1.4,0.6,1.6c0.9,0.1,1.8,0.2,2.1-1.1c0.2,0.4,0,0.8,0.4,1c0.7,0.4,1.8-0.1,2-0.9c0.4-1.2,0.3-2.4,0.1-3.6
					c-0.2-1.1-0.5-1.3-1.6-1.3c-0.6,0-1.1,0-1.4-0.6c-0.2-0.2-0.5-0.2-0.7-0.2c-0.9-0.1-1.9,0.2-2.6-0.5c-0.1-0.1-0.5-0.1-0.7-0.1
					c-0.6,0-1.3,0-1.9,0c-0.2,0-0.6,0-0.8-0.2c-0.4-0.4-1-0.4-1.6-0.4c-0.9,0-1.9,0.4-2.6-0.6c-0.1-0.2-0.4-0.2-0.7-0.2
					c-0.9,0-1.8,0-2.7,0c-0.5,0-0.7,0.1-0.6,0.7c0.2,0.7,0.4,1.5,0.5,2.2c0.1,0.3,0.2,0.6,0.1,1.1c-1.6-3-1.9-6-0.4-9.1
					c-0.6-0.2-0.9,0-1.1,0.4c-1.1,2-1,4.1-0.4,6.1c0.8,2.6,2.4,4.8,4.4,6.6c0.4,0.3,0.6,0.4,1.1,0.1C91.9,154,92.1,153.2,92.4,152.4
					z M94.6,143.6c1.2,0.2,2.5,0.5,3.7,0.7c1.1,0.2,1.1,0.2,0.4,1.1c-0.2,0.2-0.3,0.4,0.1,0.6c0.7,0.3,2.2,0,2.6-0.7
					c0.2-0.3,0.4-0.3,0.7-0.2c1,0.2,2,0.4,2.9,0.5c0.2,0,0.4,0.2,0.5-0.1c0.1-0.2-0.2-0.2-0.4-0.2c-4-0.9-8.1-1.9-12.2-2.8
					c-1.2-0.2-2.4-0.5-3.7-0.8c-0.6-0.1-0.8,0.1-0.9,0.6c-0.1,0.6,0.4,0.5,0.7,0.6c0.7,0.2,1.5,0.2,2.2,0.4c0.4,0.1,0.5,0.2,0.2,0.5
					c-0.4,0.3-0.7,0.6-1.1,1c-0.3,0.2-0.3,0.4,0.2,0.5c0.6,0.1,1.1,0.1,1.7,0.2c1,0.1,1.4-0.1,1.7-1
					C94.1,143.8,94.1,143.6,94.6,143.6z M63.9,149.5c0.9,1,1.6,1.7,2.9,1.7c2.5-0.1,5-0.1,7.5-0.1c1.2,0,2.5,0,3.7,0
					c0.2,0,0.5,0.1,0.4-0.3c-0.1-0.5-1.1-1.3-1.6-1.3c-1.4,0-2.8-0.1-4.2,0c-1.6,0.1-3.3-0.1-4.9,0
					C66.5,149.5,65.3,149.7,63.9,149.5z M54.6,120.9c-0.2,0-0.2,0.1-0.2,0.2c-0.2,0.5,0.1,0.6,0.4,0.7c6.2,3.5,12.5,6.9,18.7,10.4
					c1.2,0.6,2.3,1.3,3.5,1.9c0.2,0.1,0.4,0.3,0.5,0.1c0.2-0.3-0.1-0.4-0.3-0.5c-0.7-0.4-1.4-0.8-2-1.2c-6.6-3.8-13.2-7.5-19.9-11.3
					C55,121.1,54.8,121,54.6,120.9z M61.9,147.4c0.5,0.7,0.9,1.1,1.9,1.1c1-0.1,2-0.1,3-0.1c3.2,0.1,6.3,0,9.4,0
					c0.4,0,0.5-0.2,0.4-0.6c-0.1-0.4-0.2-0.6-0.7-0.6c-0.6,0-1.1,0-1.6,0c-3,0-6-0.1-8.9,0C64.3,147.3,63.2,147.1,61.9,147.4z
					 M66.5,153.7c-0.2-0.2-0.4-0.4-0.6-0.6c-1.6-1.6-3.2-3.2-4.8-4.8c-0.8-0.8-1.4-1.7-1.2-2.9c0.1-0.2,0.2-0.5-0.1-0.6
					c-0.3-0.1-0.4,0.1-0.6,0.4c-0.1,0.3-0.2,0.6-0.1,0.9c0.2,0.9,0.6,1.7,1.2,2.4c1.6,1.6,3.1,3.2,4.7,4.7
					C65.4,153.7,65.9,153.9,66.5,153.7z M81.1,143.6L81.1,143.6c-0.7,0-1.5,0-2.2,0c-0.3,0-0.7-0.1-0.7,0.4c0,0.6,0.4,0.6,0.7,0.6
					c1.5,0.1,3,0.2,4.5,0.4c0.5,0.1,0.7-0.1,0.7-0.6c0-0.4,0.1-0.9-0.6-0.9C82.7,143.6,81.9,143.6,81.1,143.6z M83.7,147.2
					c0.1-0.1,0.6,0.2,0.6-0.3c0-0.4-0.2-0.5-0.6-0.6c-1.6-0.2-3.2-0.3-4.7-0.5c-0.2,0-0.5-0.1-0.6,0.2c-0.1,0.3-0.1,0.6,0.2,0.7
					c0.1,0.1,0.3,0.1,0.5,0.1C80.6,147,82.1,147.1,83.7,147.2z M83.1,149c0.4,0,0.9,0,1.4,0c0.2,0,0.4,0.1,0.4-0.1
					c0-0.1-0.1-0.3-0.2-0.5c-0.1-0.2-0.3-0.2-0.4-0.2c-1.7-0.1-3.3-0.3-5-0.4c-0.4-0.1-0.6,0.1-0.4,0.6c0.2,0.3,0.4,0.5,0.7,0.5
					C80.8,148.8,81.9,149.1,83.1,149z M56.7,143.5L56.7,143.5c-0.4,0-0.9,0-1.2,0c-0.5,0-0.6,0.4-0.6,0.7c-0.1,0.4,0.3,0.4,0.6,0.4
					c0.7,0.1,1.6,0.2,2.3,0.4c0.6,0.1,0.9-0.2,0.9-0.7c0.1-0.5-0.1-0.9-0.8-0.9C57.3,143.5,57,143.5,56.7,143.5z M80,149.9
					c0.4,0.4,0.7,0.8,1.2,0.8c1.4,0,2.7,0,4.1,0c0.2,0,0.4,0.1,0.4-0.1c0-0.1-0.1-0.3-0.2-0.4c-0.2-0.2-0.4-0.1-0.6-0.2
					c-0.7,0-1.5-0.1-2.2-0.1C81.8,149.9,80.9,149.6,80,149.9z M86.8,152.1c-0.3-0.6-0.7-0.8-1.3-0.7c-0.6,0.1-1.3,0-1.9,0
					c-0.7,0-1.5-0.1-2.3,0.1c0.3,0.4,0.5,0.7,0.9,0.7C83.8,152.1,85.3,152.1,86.8,152.1z M88.1,153.7c0-0.1,0.1-0.2,0.1-0.4
					c-1.7-0.9-3.5-0.1-5.3-0.2C84.5,154.1,86.3,153.4,88.1,153.7z M73.2,135.6c0,0.4,0.1,0.7,0.4,0.9c0.6,0.7,1.2,0.6,1.6-0.2
					c0.2-0.4-0.2-0.6-0.3-0.9c-0.1-0.6-0.7-0.9-1.2-0.8C73.2,134.6,73.3,135.3,73.2,135.6z M55.3,145.7c-0.6-0.1-0.5,0.2-0.4,0.6
					c0.1,0.4,0.5,0.4,0.8,0.5c0.6,0.1,1.2,0.2,1.7,0.2c0.2,0,0.6,0.2,0.7-0.2c0.1-0.4-0.1-0.7-0.5-0.7
					C56.9,146,56.1,145.8,55.3,145.7z M59.5,148.8c-0.3-0.5-0.6-0.8-1.1-0.9c-0.8-0.1-1.6-0.2-2.4-0.3c-0.1,0-0.3-0.1-0.4,0.1
					c-0.1,0.1,0,0.3,0.1,0.4c0.2,0.2,0.3,0.5,0.6,0.5C57.3,148.7,58.3,148.9,59.5,148.8z M94.9,134.5c-0.1,0.6,0.1,0.9,0.5,1.1
					c1.2,0.7,2.5,1.4,3.8,2.1c0.1,0.1,0.2,0.3,0.5,0C98.1,136.7,96.5,135.6,94.9,134.5z M58.6,151.2c0.3,0.6,0.7,0.8,1.2,0.8
					c0.7,0,1.4,0,2.1,0c0.2,0,0.4,0.1,0.5-0.2c0-0.2-0.2-0.3-0.4-0.4c-0.1-0.1-0.3-0.1-0.4-0.1C60.7,151,59.7,151.2,58.6,151.2z
					 M57,149.7c0.2,0.4,0.4,0.7,0.9,0.7c1,0,2-0.1,3-0.1c0-0.1,0-0.2,0-0.2C59.7,149.2,58.3,149.8,57,149.7z M60.2,152.8
					c1.1,0.7,2.4,0.3,3.5,0.3C62.6,152.3,61.4,152.7,60.2,152.8z"/>
				<path class="st16" d="M92.4,152.4c-0.4,0.7-0.6,1.6-1.2,2c-0.4,0.2-0.7,0.2-1.1-0.1c-2-1.9-3.6-4-4.4-6.6
					c-0.6-2-0.6-4.1,0.4-6.1c0.2-0.5,0.6-0.7,1.1-0.4c-1.5,3-1.2,6,0.4,9.1c0.2-0.5,0-0.8-0.1-1.1c-0.1-0.7-0.3-1.5-0.5-2.2
					c-0.1-0.5,0.1-0.7,0.6-0.7c0.9,0,1.8,0,2.7,0c0.2,0,0.6,0,0.7,0.2c0.7,1,1.7,0.6,2.6,0.6c0.6,0,1.1-0.1,1.6,0.4
					c0.2,0.2,0.5,0.2,0.8,0.2c0.6,0,1.3,0,1.9,0c0.2,0,0.6,0,0.7,0.1c0.8,0.7,1.7,0.4,2.6,0.5c0.2,0,0.6-0.1,0.7,0.2
					c0.4,0.6,0.9,0.6,1.4,0.6c1.1,0,1.4,0.2,1.6,1.3c0.2,1.2,0.2,2.4-0.1,3.6c-0.2,0.8-1.3,1.2-2,0.9c-0.4-0.2-0.2-0.6-0.4-1
					c-0.3,1.2-1.2,1.2-2.1,1.1c-0.9-0.2-0.2-1.1-0.6-1.6c-0.2,0.1-0.2,0.4-0.3,0.6c-0.4,0.9-1.5,1.4-2.5,1.1
					c-0.4-0.1-0.4-0.4-0.4-0.6c0-0.4,0.1-0.8-0.2-1.2c-0.1,0.3-0.2,0.6-0.3,0.8c-0.3,0.7-0.9,1.1-1.7,1.1c-1.6,0-1.6,0-1.8-1.5
					C92.6,153,92.5,152.8,92.4,152.4z M89.1,150.3c0.4-0.4,0.7-0.9,1.4-1.1c0.4-0.1,0.2-0.6,0.2-0.9c-0.1-0.4-0.3-0.8-0.7-0.9
					c-0.3-0.1-0.6,0.2-0.6,0.6C89,148.7,88.8,149.4,89.1,150.3z M93.2,150.6c0.4-0.2,0.6-0.6,0.9-0.8c0.7-0.3,0.8-0.7,0.4-1.3
					c-0.3-0.5-0.8-0.5-1.1,0C93.2,149.2,93,149.8,93.2,150.6z M97.3,150.9c0.4-0.4,0.7-0.8,1.2-0.9c0.3-0.1,0.2-0.4,0.1-0.6
					c-0.1-0.3-0.2-0.7-0.6-0.8c-0.2-0.1-0.4,0.1-0.5,0.3C97.2,149.6,97,150.1,97.3,150.9z M100.5,151.2c0.4-0.2,0.6-0.7,1.1-0.7
					c0.3-0.1,0.2-0.4,0.2-0.6c-0.1-0.3-0.2-0.6-0.6-0.7c-0.3-0.1-0.4,0.2-0.5,0.4C100.4,150,100.4,150.6,100.5,151.2z M103.2,151.8
					c0.3-0.4,0.5-0.7,0.9-0.8c0.3-0.1,0.2-0.4,0.2-0.6c-0.1-0.2-0.2-0.6-0.5-0.6c-0.3-0.1-0.4,0.2-0.5,0.4
					C103.1,150.6,103.1,151.1,103.2,151.8z M90.6,151c-0.2,0.5-0.4,1-0.8,1.4c-0.1,0.2-0.4,0.4-0.1,0.6c0.2,0.2,0.5,0,0.6-0.2
					C90.6,152.1,90.8,151.6,90.6,151z M94.7,151.1c-0.3,0.6-0.5,0.9-0.7,1.4c-0.1,0.2-0.2,0.5,0,0.6c0.3,0.1,0.4-0.2,0.4-0.4
					C94.7,152.3,94.8,151.8,94.7,151.1z M98.6,151.6c-0.2,0.4-0.4,0.8-0.7,1.1c-0.1,0.1-0.1,0.4,0.1,0.4c0.2,0.1,0.3-0.1,0.4-0.2
					C98.5,152.6,98.6,152.1,98.6,151.6z M101.7,151.8c-0.1,0.4-0.3,0.7-0.5,1c-0.1,0.2-0.2,0.4,0,0.5c0.2,0.1,0.2-0.1,0.3-0.3
					C101.7,152.6,101.8,152.3,101.7,151.8z M104.3,152c-0.2,0.4-0.4,0.7-0.6,1.1c-0.1,0.1-0.1,0.2,0.1,0.3c0.1,0.1,0.2,0,0.3-0.1
					C104.2,152.9,104.4,152.5,104.3,152z"/>
				<path class="st17" d="M78.5,139.7c-0.9,1.3-2,2.4-3.1,3.6c-0.2,0.2-0.4,0.2-0.6,0.2c-4.3,0-8.6,0-13-0.1
					c1.6-1.3,3.1-2.6,4.7-3.9c2,0.1,4.2,0.1,6.2,0.1C74.5,139.6,76.5,139.6,78.5,139.7z"/>
				<path class="st17" d="M91.8,134.6c-0.2,1.7-1.1,2.4-2.7,2.4c-1.9,0-3.8,0-5.7,0c-0.2,0-0.5,0-0.8-0.1c1.3-1.7,2.4-3.3,1.6-5.5
					c0.9,0,1.7-0.1,2.5,0C88.8,131.7,90.8,132.3,91.8,134.6z"/>
				<path class="st17" d="M65.2,138.8c-0.3,0.5-0.8,0.6-1.2,0.9c-1.4,0.9-2.8,1.8-4.2,2.7c-0.2,0.2-0.6,0.4-0.7-0.1
					c-0.1-0.2-0.4-0.2-0.7-0.2c-1.5,0-2.9,0-4.4,0c-0.2,0-0.5,0.1-0.6-0.2s0.1-0.4,0.2-0.6c0.7-0.9,1.6-1.7,2.4-2.5
					c0.4,0,0.9,0.1,1.4,0.1C60,138.8,62.6,138.8,65.2,138.8z"/>
				<path class="st17" d="M105.6,143.2c0.2,0.2,0.3,0.6,0.4,0.9l0,0c-1.6-0.2-3-0.8-4.5-1.2c-3.8-1-7.5-2-11.4-2.7
					c-0.1,0-0.3-0.1-0.4-0.1c-0.2-0.1-0.5-0.1-0.5-0.4c0-0.3,0.2-0.4,0.4-0.5c1-0.2,2-0.5,3.1-0.5c1.2,0.4,2.4,0.6,3.5,1.1
					C99.3,141,102.7,141.2,105.6,143.2z"/>
				<path class="st16" d="M94.6,143.6c-0.4-0.1-0.6,0.2-0.6,0.6c-0.3,1-0.6,1.2-1.7,1c-0.6-0.1-1.1-0.1-1.7-0.2
					c-0.4-0.1-0.4-0.2-0.2-0.5c0.4-0.3,0.7-0.6,1.1-1c0.3-0.3,0.2-0.4-0.2-0.5c-0.7-0.1-1.5-0.2-2.2-0.4c-0.3-0.1-0.8,0-0.7-0.6
					c0.1-0.5,0.4-0.7,0.9-0.6c1.2,0.3,2.4,0.6,3.7,0.8c4,0.9,8.1,1.9,12.2,2.8c0.2,0.1,0.4,0,0.4,0.2c-0.1,0.3-0.3,0.1-0.5,0.1
					c-1-0.2-2-0.3-2.9-0.5c-0.2-0.1-0.5-0.1-0.7,0.2c-0.4,0.7-1.9,1.1-2.6,0.7c-0.4-0.2-0.2-0.4-0.1-0.6c0.7-0.9,0.7-0.9-0.4-1.1
					C97.1,144.1,95.9,143.9,94.6,143.6z"/>
				<path class="st16" d="M63.9,149.5c1.4,0.2,2.6,0.1,3.9,0c1.6-0.1,3.3,0.1,4.9,0c1.4-0.1,2.8,0,4.2,0c0.5,0,1.5,0.8,1.6,1.3
					c0.1,0.4-0.2,0.3-0.4,0.3c-1.2,0-2.5,0-3.7,0c-2.5,0-5-0.1-7.5,0.1C65.4,151.1,64.7,150.5,63.9,149.5z"/>
				<path class="st17" d="M82.2,134.8c-0.6,1.2-1.6,2-2.9,2.4c-0.3,0.1-0.8,0.4-1,0c-0.2-0.4-0.2-1,0.2-1.4c0.1-0.2,0.3-0.3,0.4-0.5
					c0.4-0.5,0.5-1.1,0.4-1.7c-0.1-0.9-0.7-1.4-1.7-1.1c-0.7,0.2-1.2,0-1.8-0.4c-0.4-0.2-0.3-0.4,0.1-0.6c0.3-0.1,0.6-0.2,1-0.4
					c0.3,0.3,0.7,0.2,1.1,0.2c1.1,0.1,2.1,0.1,3.2,0.3c0.7,0.1,1.1,0.6,1,1.3C82.3,133.6,82.3,134.2,82.2,134.8z"/>
				<path class="st18" d="M54.6,120.9c0.2,0.1,0.4,0.2,0.6,0.4c6.6,3.8,13.2,7.5,19.9,11.3c0.7,0.4,1.4,0.8,2,1.2
					c0.2,0.1,0.5,0.1,0.3,0.5c-0.2,0.2-0.4,0.1-0.5-0.1c-1.2-0.6-2.3-1.2-3.5-1.9c-6.2-3.5-12.5-6.9-18.7-10.4
					c-0.3-0.2-0.7-0.3-0.4-0.7C54.4,121,54.4,120.9,54.6,120.9z"/>
				<path class="st16" d="M61.9,147.4c1.2-0.2,2.4-0.1,3.5-0.1c3-0.1,6,0,8.9,0c0.6,0,1.1,0.1,1.6,0c0.4,0,0.6,0.2,0.7,0.6
					s0.1,0.6-0.4,0.6c-3.2,0-6.3,0.1-9.4,0c-1,0-2-0.1-3,0.1C62.9,148.5,62.5,148,61.9,147.4z"/>
				<path class="st16" d="M85.7,140.2c-0.3,0.5-0.7,0.9-0.9,1.5c-0.1,0.4-0.4,0.4-0.8,0.4c-1.5,0-3,0-4.5,0c-0.5,0-0.7-0.1-0.3-0.6
					c0.3-0.4,0.6-0.9,0.9-1.4C81.9,140.2,83.8,140.2,85.7,140.2z"/>
				<path class="st16" d="M66.5,153.7c-0.7,0.3-1.1,0-1.5-0.4c-1.6-1.6-3.1-3.2-4.7-4.7c-0.7-0.7-1.1-1.5-1.2-2.4
					c-0.1-0.3,0.1-0.6,0.1-0.9s0.2-0.4,0.6-0.4c0.4,0.1,0.1,0.4,0.1,0.6c-0.2,1.2,0.4,2.1,1.2,2.9c1.6,1.6,3.2,3.2,4.8,4.8
					C66.1,153.3,66.3,153.4,66.5,153.7z"/>
				<path class="st18" d="M105.6,143.2c-2.9-2-6.3-2.2-9.4-3.4c-1.1-0.4-2.3-0.7-3.5-1.1c0.6-0.3,1.2-0.3,1.9-0.1
					c3.3,1.1,6.6,2.1,9.9,3.2C105.2,141.9,105.2,142.6,105.6,143.2z"/>
				<path class="st17" d="M81.1,143.6c0.8,0,1.6,0,2.4,0c0.7,0,0.6,0.4,0.6,0.9c0,0.5-0.2,0.6-0.7,0.6c-1.5-0.2-3-0.2-4.5-0.4
					c-0.4,0-0.7-0.1-0.7-0.6c0-0.6,0.4-0.4,0.7-0.4C79.6,143.6,80.4,143.6,81.1,143.6L81.1,143.6z"/>
				<path class="st18" d="M78.5,139.7c-2-0.1-3.9-0.1-5.9-0.1c-2-0.1-4.2-0.1-6.2-0.1c0.1-0.2,0.2-0.4,0.6-0.4
					c4,0.1,7.9,0.1,11.9,0.1c0,0,0.1,0,0.1,0.1C78.9,139.4,78.7,139.5,78.5,139.7z"/>
				<path class="st18" d="M65.2,138.8c-2.6,0-5.3,0.1-7.9,0.1c-0.4,0-0.9-0.1-1.4-0.1c0.2-0.4,0.6-0.6,1-0.6c2.4,0,4.8-0.1,7.3-0.1
					c0.5,0,1,0,1.5,0C65.7,138.5,65.4,138.7,65.2,138.8z"/>
				<path class="st16" d="M83.7,147.2c-1.6-0.1-3.1-0.2-4.6-0.3c-0.2,0-0.4-0.1-0.5-0.1c-0.3-0.2-0.4-0.5-0.2-0.7
					c0.1-0.3,0.4-0.2,0.6-0.2c1.6,0.2,3.2,0.4,4.7,0.5c0.4,0.1,0.6,0.2,0.6,0.6C84.2,147.4,83.8,147.1,83.7,147.2z"/>
				<path class="st16" d="M83.1,149c-1.2,0.1-2.3-0.2-3.4-0.2c-0.4,0-0.6-0.2-0.7-0.5c-0.2-0.4-0.1-0.6,0.4-0.6
					c1.7,0.1,3.3,0.3,5,0.4c0.2,0,0.4,0.1,0.4,0.2c0.1,0.1,0.2,0.3,0.2,0.5c-0.1,0.2-0.3,0.1-0.4,0.1C84,149,83.6,149,83.1,149z"/>
				<path class="st16" d="M56.7,143.5c0.4,0,0.7,0,1.1,0c0.7-0.1,0.8,0.4,0.8,0.9c-0.1,0.4-0.2,0.8-0.9,0.7
					c-0.7-0.2-1.5-0.2-2.3-0.4c-0.2-0.1-0.6,0-0.6-0.4c0.1-0.4,0.1-0.7,0.6-0.7C55.8,143.5,56.2,143.5,56.7,143.5L56.7,143.5z"/>
				<path class="st18" d="M91.8,134.6c-0.9-2.2-2.9-2.9-5.1-3.1c-0.8-0.1-1.7,0-2.5,0c-0.2-0.1-0.4-0.2-0.3-0.4
					c0.1-0.2,0.3-0.1,0.5-0.1c1.5-0.1,3,0,4.4,0.4c0.9,0.2,1.7,0.7,2.3,1.3C91.6,133.2,91.9,133.8,91.8,134.6z"/>
				<path class="st16" d="M80,149.9c0.9-0.2,1.8,0,2.7,0c0.7-0.1,1.5,0.1,2.2,0.1c0.2,0,0.4-0.1,0.6,0.2c0.1,0.1,0.2,0.3,0.2,0.4
					c0,0.2-0.2,0.1-0.4,0.1c-1.4,0-2.7,0-4.1,0C80.6,150.6,80.4,150.3,80,149.9z"/>
				<path class="st18" d="M82.2,134.8c0.1-0.6,0.1-1.2,0.1-1.9c0.1-0.7-0.3-1.1-1-1.3c-1.1-0.2-2.1-0.2-3.2-0.3
					c-0.4,0-0.8,0.1-1.1-0.2c1.4-0.1,2.7-0.1,4.1-0.1c1.6,0.1,2,0.7,1.7,2.2C82.7,133.8,82.6,134.4,82.2,134.8z"/>
				<path class="st17" d="M86.8,152.1c-1.6,0-3,0-4.5,0c-0.4,0-0.6-0.3-0.9-0.7c0.8-0.1,1.6-0.1,2.3-0.1c0.6,0,1.3,0,1.9,0
					C86.1,151.4,86.5,151.5,86.8,152.1z"/>
				<path class="st16" d="M88.1,153.7c-1.7-0.3-3.6,0.4-5.3-0.7c1.8,0.1,3.6-0.6,5.3,0.2C88.2,153.4,88.1,153.6,88.1,153.7z"/>
				<path class="st16" d="M73.2,135.6c0.1-0.4,0-1,0.5-1.1c0.4-0.1,1.1,0.2,1.2,0.8c0.1,0.3,0.5,0.5,0.3,0.9c-0.3,0.9-1,0.9-1.6,0.2
					C73.3,136.3,73.2,136,73.2,135.6z"/>
				<path class="st18" d="M85.7,140.2c-1.9,0-3.7,0-5.6,0c0-0.4,0.2-0.5,0.6-0.5c1.9-0.1,3.9-0.1,5.8-0.1c0.1,0,0.1,0.1,0.2,0.1
					C86.2,139.9,85.9,140.1,85.7,140.2z"/>
				<path class="st16" d="M55.3,145.7c0.8,0.1,1.6,0.2,2.4,0.4c0.4,0.1,0.6,0.4,0.5,0.7c-0.1,0.4-0.4,0.2-0.7,0.2
					c-0.6-0.1-1.2-0.2-1.7-0.2c-0.4-0.1-0.7-0.1-0.8-0.5C54.8,145.9,54.7,145.6,55.3,145.7z"/>
				<path class="st16" d="M59.5,148.8c-1.1,0.1-2.1-0.1-3.2-0.2c-0.3,0-0.4-0.2-0.6-0.5c-0.1-0.1-0.2-0.2-0.1-0.4
					c0.1-0.1,0.2-0.1,0.4-0.1c0.8,0.1,1.6,0.2,2.4,0.3C58.8,148,59.2,148.3,59.5,148.8z"/>
				<path class="st18" d="M94.9,134.5c1.7,1.1,3.2,2.2,4.8,3.2c-0.2,0.3-0.4,0.1-0.5,0c-1.2-0.7-2.5-1.4-3.8-2.1
					C95,135.4,94.9,135.1,94.9,134.5z"/>
				<path class="st16" d="M58.6,151.2c1.1,0,2-0.2,3,0.1c0.1,0.1,0.3,0.1,0.4,0.1c0.2,0.1,0.4,0.2,0.4,0.4c-0.1,0.3-0.3,0.2-0.5,0.2
					c-0.7,0-1.4-0.1-2.1,0C59.3,152,59,151.7,58.6,151.2z"/>
				<path class="st16" d="M57,149.7c1.3,0.1,2.7-0.5,3.9,0.4c0,0.1,0,0.2,0,0.2c-1,0.1-2,0.1-3,0.1C57.5,150.5,57.2,150,57,149.7z"
					/>
				<path class="st16" d="M60.2,152.8c1.2-0.1,2.4-0.4,3.5,0.3C62.5,153.1,61.3,153.5,60.2,152.8z"/>
				<path class="st17" d="M106,144.1L106,144.1L106,144.1z"/>
				<path class="st15" d="M89.1,150.3c-0.3-0.9-0.1-1.6,0.1-2.3c0.1-0.2,0.3-0.6,0.6-0.6c0.5,0.1,0.7,0.5,0.7,0.9
					c0.1,0.3,0.2,0.8-0.2,0.9C89.8,149.3,89.6,149.8,89.1,150.3z"/>
				<path class="st15" d="M93.2,150.6c-0.2-0.8,0-1.5,0.2-2.1c0.2-0.5,0.7-0.5,1.1,0c0.4,0.6,0.2,1-0.4,1.3
					C93.7,150,93.6,150.4,93.2,150.6z"/>
				<path class="st15" d="M97.3,150.9c-0.2-0.7,0-1.4,0.2-1.9c0.1-0.2,0.2-0.4,0.5-0.3c0.4,0.1,0.4,0.5,0.6,0.8
					c0.1,0.2,0.2,0.5-0.1,0.6C98,150.1,97.7,150.6,97.3,150.9z"/>
				<path class="st15" d="M100.5,151.2c-0.1-0.6-0.1-1.2,0.1-1.7c0.1-0.2,0.2-0.4,0.5-0.4c0.4,0.1,0.6,0.4,0.6,0.7
					c0.1,0.2,0.1,0.6-0.2,0.6C101.1,150.5,100.9,151,100.5,151.2z"/>
				<path class="st15" d="M103.2,151.8c-0.1-0.7-0.1-1.2,0.1-1.6c0.1-0.2,0.2-0.5,0.5-0.4c0.3,0.1,0.4,0.3,0.5,0.6s0.1,0.6-0.2,0.6
					C103.7,151,103.5,151.3,103.2,151.8z"/>
				<path class="st15" d="M90.6,151c0.1,0.6,0,1.2-0.3,1.8c-0.1,0.2-0.3,0.4-0.6,0.2c-0.4-0.2-0.1-0.4,0.1-0.6
					C90.2,151.9,90.4,151.5,90.6,151z"/>
				<path class="st15" d="M94.7,151.1c0.1,0.6-0.1,1.1-0.2,1.6c-0.1,0.2-0.2,0.5-0.4,0.4c-0.2-0.1-0.1-0.4,0-0.6
					C94.2,152.1,94.4,151.6,94.7,151.1z"/>
				<path class="st15" d="M98.6,151.6c0.1,0.5,0,0.9-0.2,1.4c-0.1,0.1-0.2,0.4-0.4,0.2c-0.2-0.1-0.2-0.3-0.1-0.4
					C98.2,152.4,98.3,152,98.6,151.6z"/>
				<path class="st15" d="M101.7,151.8c0.1,0.4-0.1,0.8-0.2,1.2c-0.1,0.1-0.1,0.4-0.3,0.3c-0.2-0.1-0.1-0.3,0-0.5
					C101.4,152.4,101.6,152.1,101.7,151.8z"/>
				<path class="st15" d="M104.3,152c0.1,0.5-0.1,0.9-0.2,1.2c-0.1,0.1-0.2,0.2-0.3,0.1c-0.1-0.1-0.1-0.2-0.1-0.3
					C103.9,152.8,104.1,152.4,104.3,152z"/>
			</g>
		</g>
		<g class="st19">
			<path class="st1" d="M33.1,102.4v-3.1h11.3v3.1h-3.9v9.8h-3.6v-9.8H33.1z"/>
			<path class="st1" d="M45.9,112.1V99.2h10.4v3h-6.8v2h6.2v2.8h-6.2v2h6.9v3H45.9z"/>
			<path class="st1" d="M57.3,112.1l4.4-6.6l-4.2-6.3h4.1l2.3,3.6l2.3-3.6h4l-4.2,6.3l4.4,6.6h-4.1l-2.5-3.9l-2.5,3.9H57.3z"/>
			<path class="st1" d="M71.8,112.1V99.2h3.6v4.9h4.6v-4.9h3.6v12.9h-3.6v-4.9h-4.6v4.9H71.8z"/>
			<path class="st1" d="M85.8,112.1V99.2h3.5v7.3l5-7.3h3.3v12.9h-3.5v-7.3l-5,7.3H85.8z"/>
			<path class="st1" d="M99.9,112.1V99.2h3.6v5.2l4.4-5.2h4.2l-4.9,5.6l5.1,7.4h-4.3l-3.2-4.8l-1.3,1.5v3.3H99.9z"/>
			<path class="st1" d="M112.4,112.1l5.5-13h3.4l5.5,13H123l-0.9-2.3h-5l-0.9,2.3H112.4z M118.1,107h2.9l-1.4-3.7L118.1,107z"/>
		</g>
	</g>
</g>
</svg>
